<svg width="150" height="22" viewBox="0 0 150 22" fill="none" xmlns="http://www.w3.org/2000/svg">
<path d="M145.761 0.627686H150V21.1786H145.761V0.627686Z" fill="#1E1D1D"/>
<path d="M137.547 16.9541H130.026L128.613 21.1786H124.153L131.439 0.627686H136.259L143.49 21.1786H138.863L137.547 16.9541ZM136.356 13.4128L133.807 5.32624L131.175 13.4128H136.356Z" fill="#1E1D1D"/>
<path d="M123.183 21.1786H117.698L111.395 12.1998L109.359 14.3051V21.1786H105.162V0.627686H109.359V9.09066L117.241 0.627686H122.754L114.387 9.09066L123.183 21.1786Z" fill="#1E1D1D"/>
<path d="M92.0446 21.75C89.1265 21.75 86.8964 20.9506 85.3542 19.3519C83.2857 17.3907 82.2514 14.5651 82.2514 10.875C82.2514 7.11058 83.2857 4.28493 85.3542 2.39808C86.8964 0.799359 89.1265 0 92.0446 0C94.9627 0 97.1928 0.799359 98.7349 2.39808C100.794 4.28493 101.824 7.11058 101.824 10.875C101.824 14.5651 100.794 17.3907 98.7349 19.3519C97.1928 20.9506 94.9627 21.75 92.0446 21.75ZM96.0754 16.2288C97.0635 14.974 97.5576 13.1894 97.5576 10.875C97.5576 8.56987 97.0589 6.7899 96.0616 5.5351C95.0735 4.27099 93.7345 3.63894 92.0446 3.63894C90.3547 3.63894 89.0064 4.26635 87.9999 5.52115C86.9933 6.77596 86.4901 8.56058 86.4901 10.875C86.4901 13.1894 86.9933 14.974 87.9999 16.2288C89.0064 17.4837 90.3547 18.1111 92.0446 18.1111C93.7345 18.1111 95.0781 17.4837 96.0754 16.2288Z" fill="#1E1D1D"/>
<path d="M80.5754 0.627686L73.7465 13.4546V21.1786H69.4802V13.4546L62.4158 0.627686H67.444L71.6826 9.57865L75.7412 0.627686H80.5754Z" fill="#1E1D1D"/>
<path d="M55.5868 15.0022V0.627686H59.8532V14.9325C59.8532 16.6799 59.553 18.0649 58.9528 19.0873C57.937 20.8161 56.104 21.6806 53.4537 21.6806C50.8034 21.6806 49.0257 20.9834 48.1208 19.5892C47.2158 18.1857 46.7633 16.2756 46.7633 13.8589V13.3849H50.7941V13.8589C50.8311 15.4484 51.0019 16.5684 51.3067 17.219C51.6206 17.8604 52.2855 18.181 53.3013 18.181C54.3079 18.181 54.9727 17.8278 55.2959 17.1214C55.4899 16.7032 55.5868 15.9968 55.5868 15.0022Z" fill="#1E1D1D"/>
<path d="M40.0731 0.627686H44.3117V21.1786H40.0731V0.627686Z" fill="#1E1D1D"/>
<path d="M32.0804 21.1786V12.0046H24.1018V21.1786H19.877V0.627686H24.1018V8.46326H32.0804V0.627686H36.319V21.1786H32.0804Z" fill="#1E1D1D"/>
<path d="M8.39413 18.2084C9.40068 18.2084 10.2179 18.0968 10.8459 17.8737C12.0371 17.4462 12.6327 16.6515 12.6327 15.4896C12.6327 14.8111 12.3372 14.2859 11.7462 13.9141C11.1552 13.5516 10.2272 13.231 8.96205 12.9521L6.80118 12.4641C4.67726 11.9808 3.20898 11.4556 2.39634 10.8886C1.02041 9.94057 0.332441 8.45804 0.332441 6.44105C0.332441 4.60067 0.997322 3.07166 2.32708 1.85403C3.65685 0.636402 5.60994 0.0275879 8.18635 0.0275879C10.338 0.0275879 12.171 0.60387 13.6855 1.75643C15.2092 2.8997 16.0079 4.56349 16.0818 6.74778H11.9817C11.9078 5.51156 11.3722 4.6332 10.3749 4.11268C9.71004 3.76877 8.88355 3.59682 7.89546 3.59682C6.79656 3.59682 5.91929 3.8199 5.26364 4.26605C4.608 4.7122 4.28017 5.33496 4.28017 6.13432C4.28017 6.86861 4.60338 7.41701 5.24979 7.77951C5.66534 8.02118 6.55185 8.30467 7.90932 8.62999L11.4276 9.48047C12.9698 9.85227 14.1333 10.3495 14.9183 10.9723C16.1372 11.939 16.7467 13.3378 16.7467 15.1689C16.7467 17.0465 16.031 18.608 14.5997 19.8535C13.1776 21.0898 11.1645 21.7079 8.56035 21.7079C5.90082 21.7079 3.80922 21.0991 2.28553 19.8814C0.761843 18.6545 0 16.9721 0 14.8343H4.0724C4.20168 15.7731 4.45563 16.4749 4.83424 16.9396C5.52683 17.7854 6.71345 18.2084 8.39413 18.2084Z" fill="#1E1D1D"/>
</svg>
