<svg  viewBox="0 0 540 266" fill="none" xmlns="http://www.w3.org/2000/svg">
<g clip-path="url(#clip0_10_254)">
<path d="M112.154 79.5767H153.004V87.7379H122.062V112.916H150.657V120.991H122.062V155.199H112.154V79.5767Z" fill="#403B3B"/>
<path d="M193.593 79.5767H183.771V155.285H193.593V79.5767Z" fill="#403B3B"/>
<path d="M266.775 119.688H237.398V147.037H270.252V155.199H227.49V79.5767H268.6V87.7379H237.398V111.701H266.775V119.688Z" fill="#403B3B"/>
<path d="M299.716 79.5767H309.624V147.037H341.956V155.199H299.716V79.5767Z" fill="#403B3B"/>
<path d="M369.682 80.5315C375.766 79.5765 382.806 78.9688 390.542 78.9688C404.622 78.9688 414.617 82.1812 421.223 88.2587C428.089 94.4231 432 103.366 432 115.608C432 127.849 428.089 138.094 421.049 145.04C413.835 152.073 402.188 155.893 387.5 155.893C380.373 155.893 374.723 155.633 369.595 155.025V80.5315M379.503 147.558C381.937 147.992 385.588 147.992 389.412 147.992C410.271 148.079 421.657 136.358 421.657 115.868C421.831 97.8091 411.662 86.6959 390.976 86.6959C385.935 86.6959 382.111 87.13 379.503 87.7378V147.558Z" fill="#403B3B"/>
<path d="M157.784 207.465V194.616H155.785V192.619H157.784V191.924C157.784 189.84 158.305 187.93 159.522 186.715C160.565 185.673 161.869 185.326 163.173 185.326C164.129 185.326 164.911 185.499 165.432 185.76L165.085 187.844C164.65 187.67 164.129 187.496 163.346 187.496C161.087 187.496 160.478 189.58 160.478 191.837V192.619H164.042V194.616H160.478V207.465H157.784Z" fill="#403B3B"/>
<path d="M172.472 189.841C171.429 189.841 170.734 189.059 170.734 188.104C170.734 187.149 171.429 186.368 172.472 186.368C173.515 186.368 174.211 187.149 174.211 188.104C174.211 189.059 173.515 189.841 172.472 189.841ZM171.256 207.465V192.619H173.95V207.465H171.256Z" fill="#403B3B"/>
<path d="M184.554 200.52C184.554 204.166 186.987 205.729 189.682 205.729C191.594 205.729 192.811 205.382 193.854 205.034L194.375 206.944C193.419 207.379 191.768 207.9 189.421 207.9C184.901 207.9 182.12 204.861 182.12 200.433C182.12 196.005 184.814 192.358 189.16 192.358C194.027 192.358 195.244 196.613 195.244 199.391C195.244 199.912 195.244 200.346 195.244 200.693H184.814M192.463 198.523C192.463 196.873 191.768 194.095 188.726 194.095C185.944 194.095 184.814 196.613 184.554 198.523H192.463Z" fill="#403B3B"/>
<path d="M205.761 185.673H203.066V207.465H205.761V185.673Z" fill="#403B3B"/>
<path d="M227.75 185.673V203.645C227.75 204.947 227.75 206.51 227.924 207.465H225.491V204.861H225.317C224.448 206.51 222.709 207.812 220.276 207.812C216.625 207.812 213.844 204.774 213.844 200.259C213.844 195.31 216.886 192.271 220.536 192.271C222.883 192.271 224.361 193.313 224.969 194.529V185.673H227.663M225.056 198.609C225.056 198.609 225.056 197.828 224.969 197.394C224.535 195.657 223.057 194.268 221.058 194.268C218.277 194.268 216.538 196.699 216.538 199.998C216.538 203.037 218.016 205.555 220.971 205.555C222.796 205.555 224.448 204.34 224.969 202.343C225.056 201.995 225.056 201.648 225.056 201.127V198.523V198.609Z" fill="#403B3B"/>
<path d="M254.086 207.813C250.087 207.813 246.958 204.861 246.958 200.172C246.958 195.223 250.261 192.271 254.346 192.271C258.431 192.271 261.473 195.397 261.473 199.912C261.473 205.468 257.649 207.813 254.086 207.813ZM254.172 205.816C256.78 205.816 258.692 203.385 258.692 199.999C258.692 197.481 257.388 194.268 254.172 194.268C250.957 194.268 249.653 197.22 249.653 200.085C249.653 203.298 251.565 205.816 254.086 205.816H254.172Z" fill="#403B3B"/>
<path d="M269.817 207.465V194.616H267.731V192.619H269.817V191.924C269.817 189.84 270.338 187.93 271.555 186.715C272.598 185.673 273.902 185.326 275.206 185.326C276.162 185.326 276.944 185.499 277.465 185.76L277.118 187.844C277.118 187.844 276.162 187.496 275.379 187.496C273.12 187.496 272.424 189.58 272.424 191.837V192.619H276.075V194.616H272.511V207.465H269.817Z" fill="#403B3B"/>
<path d="M295.37 192.619L298.325 200.954C298.846 202.343 299.194 203.558 299.542 204.774C299.889 203.558 300.324 202.343 300.759 200.954L303.714 192.619H306.495L300.672 207.465H298.064L292.415 192.619H295.283H295.37Z" fill="#403B3B"/>
<path d="M315.013 189.841C313.97 189.841 313.274 189.059 313.274 188.104C313.274 187.149 313.97 186.368 315.013 186.368C316.056 186.368 316.751 187.149 316.751 188.104C316.751 189.059 316.056 189.841 315.013 189.841ZM313.709 207.465V192.619H316.403V207.465H313.709Z" fill="#403B3B"/>
<path d="M325.182 204.774C326.051 205.295 327.441 205.816 328.745 205.816C330.744 205.816 331.613 204.861 331.613 203.558C331.613 202.256 330.831 201.561 328.832 200.78C326.138 199.825 324.834 198.349 324.834 196.526C324.834 194.095 326.833 192.185 329.962 192.185C331.44 192.185 332.83 192.619 333.612 193.14L332.917 195.05C332.309 194.702 331.266 194.181 329.875 194.181C328.224 194.181 327.355 195.137 327.355 196.265C327.355 197.481 328.224 198.088 330.136 198.783C332.656 199.738 334.047 201.04 334.047 203.211C334.047 205.816 331.961 207.726 328.484 207.726C326.833 207.726 325.355 207.292 324.312 206.684L325.008 204.687L325.182 204.774Z" fill="#403B3B"/>
<path d="M343.695 189.841C342.652 189.841 342.043 189.059 342.043 188.104C342.043 187.149 342.739 186.368 343.781 186.368C344.824 186.368 345.52 187.149 345.52 188.104C345.52 189.059 344.824 189.841 343.781 189.841M342.391 207.465V192.619H345.085V207.465H342.391Z" fill="#403B3B"/>
<path d="M360.295 207.813C356.297 207.813 353.168 204.861 353.168 200.172C353.168 195.223 356.471 192.271 360.556 192.271C364.641 192.271 367.683 195.397 367.683 199.912C367.683 205.468 363.859 207.813 360.295 207.813ZM360.382 205.816C362.99 205.816 364.902 203.385 364.902 199.999C364.902 197.481 363.685 194.268 360.469 194.268C357.253 194.268 355.949 197.22 355.949 200.085C355.949 203.298 357.775 205.816 360.469 205.816H360.382Z" fill="#403B3B"/>
<path d="M375.766 196.613C375.766 195.05 375.766 193.834 375.679 192.619H378.113L378.287 195.05C379.069 193.661 380.807 192.271 383.241 192.271C385.327 192.271 388.543 193.487 388.543 198.609V207.465H385.848V198.87C385.848 196.526 384.979 194.442 382.459 194.442C380.633 194.442 379.33 195.658 378.808 197.22C378.634 197.568 378.634 198.002 378.634 198.523V207.465H375.94V196.613H375.766Z" fill="#403B3B"/>
</g>
<path d="M1.51865 262.01C0.937108 262.01 0.355569 261.553 0.106338 260.805C-0.0598154 260.348 -0.0598154 259.683 0.314031 257.812C0.314031 257.646 0.438646 257.397 0.521723 257.272C0.521723 257.147 0.812492 256.732 0.854031 256.607L1.93403 254.737C2.30788 254.03 2.7648 253.365 3.22172 252.7C4.59249 250.788 5.96326 249.001 7.25095 247.422C8.53865 245.842 9.7848 244.388 10.9894 243.141C13.7725 240.024 16.5971 236.906 19.4633 233.831C22.2463 230.755 44.594 206.358 44.594 206.358L55.7679 194.222C55.7679 194.222 55.9756 193.972 56.1002 193.806C56.2663 193.64 56.391 193.474 56.5571 193.349C57.2217 192.725 57.7617 192.268 58.1771 192.06C58.634 191.769 58.8833 191.645 59.0494 191.603C59.2156 191.52 59.4233 191.479 59.631 191.479C59.9217 191.479 60.2125 191.562 60.3786 191.686C60.711 191.936 61.0433 192.31 60.9602 192.725C61.0433 192.933 61.0433 193.515 60.794 194.097C60.6694 194.429 60.3786 194.97 59.2571 196.258C58.9248 196.591 58.6756 196.84 58.4263 197.131C58.1356 197.464 57.8448 197.754 57.554 198.045L56.474 199.126C56.1417 199.459 55.7679 199.833 55.4356 200.248C53.7325 202.16 52.0294 204.072 50.3263 205.942C48.6233 207.813 46.9202 209.683 45.2586 211.512C42.6417 214.421 40.1079 217.247 37.4494 220.115C34.874 222.983 32.2986 225.851 29.6817 228.719C27.0648 231.586 24.4894 234.496 21.914 237.405C19.3386 240.273 16.7633 243.182 14.1879 246.092C12.8171 247.671 11.5294 249.375 10.3248 251.079C9.12018 252.866 7.87403 254.654 6.66942 256.441C6.33711 256.981 6.04634 257.438 5.71403 257.937L4.75865 259.35C3.8448 260.722 3.55403 261.096 3.34634 261.304C3.01403 261.594 2.84788 261.761 2.59865 261.885C2.47403 261.927 2.10018 262.052 1.93403 262.052C1.85095 262.052 1.64326 262.052 1.56018 262.01H1.51865ZM12.111 220.946C11.9033 220.905 11.3633 220.572 11.1971 220.406C10.9894 220.281 10.574 219.783 10.491 218.868C10.4494 218.203 10.7402 217.414 11.4048 216.167C11.6956 215.668 12.4433 214.67 15.6417 211.719C18.0925 209.475 19.9202 208.145 21.2494 207.688C21.4156 207.646 21.5817 207.605 21.7479 207.605C22.0802 207.605 22.454 207.688 22.6617 207.937C22.994 208.27 23.0771 208.353 23.2433 208.478C23.6586 208.893 23.9494 209.808 23.6171 210.265C23.0771 210.971 22.7033 211.429 22.4125 211.803C22.1217 212.177 21.7894 212.551 21.4986 212.883C20.9171 213.465 20.3771 214.047 19.7956 214.587C19.2556 215.128 15.2679 218.91 14.7279 219.45C14.3125 219.907 13.9386 220.24 13.6894 220.448C13.3156 220.739 13.191 220.822 12.9833 220.905C12.8586 220.946 12.6094 220.988 12.4848 220.988C12.4017 220.988 12.194 220.988 12.111 220.946ZM13.4402 206.898C13.2325 206.898 13.0248 206.857 12.8171 206.732C12.6094 206.649 12.4433 206.524 12.2771 206.441C12.2356 206.441 11.9448 206.192 11.9033 206.15C11.6125 205.859 11.4048 205.402 11.4879 205.028C11.4879 204.82 11.5294 204.404 11.6956 203.947C11.8202 203.532 11.9448 203.241 12.0279 203.074C13.3571 201.204 14.7279 199.791 16.2233 198.586C17.7186 197.38 19.3386 196.424 20.9586 195.759C21.1248 195.676 21.4156 195.635 21.6233 195.635C21.7063 195.635 21.7479 195.635 21.7894 195.635C22.1217 195.718 22.4125 195.884 22.7033 196.217C22.911 196.424 23.0771 196.674 23.2017 196.923C23.5756 197.339 23.4925 197.754 23.1186 198.212C23.1186 198.253 23.1186 198.336 23.1186 198.378C23.1186 198.544 22.994 198.794 22.8694 198.918C21.5817 200.207 20.4602 201.246 19.3386 202.202L16.0986 204.986C16.0986 204.986 15.9325 205.194 15.8494 205.277C15.6002 205.485 15.351 205.693 15.1017 205.901L14.4371 206.483C14.1879 206.732 13.7725 206.857 13.3986 206.857L13.4402 206.898Z" fill="#00D1B5"/>
<path d="M80.6494 211.221C80.3586 211.221 80.1509 211.054 79.9017 210.763C79.6109 210.431 79.4863 210.015 79.4863 209.475C79.4863 209.059 79.5279 208.685 79.694 208.311C79.8186 208.062 79.9433 207.771 80.1094 207.522C80.2756 207.231 80.4417 207.023 80.5663 206.815C80.6494 206.732 80.6909 206.649 80.774 206.607C80.774 206.607 89.954 193.764 92.0725 190.855L92.9863 189.65L92.3633 186.2C92.1971 185.535 92.0309 184.787 91.9063 183.956C91.7817 183.166 91.6571 182.418 91.4909 181.711C91.4079 181.462 91.3663 181.171 91.3663 180.838C91.3663 180.547 91.3663 180.215 91.4494 179.882C91.4494 179.592 91.5325 179.134 91.7817 178.677C92.0309 178.178 92.4463 177.763 92.9448 177.472C93.4848 177.264 93.6925 177.222 93.9417 177.222C94.0248 177.222 94.3156 177.223 94.3986 177.264C94.8556 177.389 95.4371 177.804 95.5202 178.968C95.6863 180.34 96.2263 184.579 96.3094 185.369C96.5171 185.078 97.9709 183.415 98.4279 182.833C99.5079 181.503 100.588 180.173 101.709 178.885C102.831 177.555 103.911 176.267 105.032 174.978C105.448 174.479 105.905 173.981 106.362 173.523C106.777 173.066 107.234 172.609 107.691 172.152C107.732 172.11 107.774 172.069 107.816 172.027C107.94 171.902 108.688 171.154 108.688 171.154L109.145 170.739C109.145 170.739 109.602 170.365 109.851 170.198C109.976 170.074 110.183 169.949 110.391 169.866C110.599 169.741 110.806 169.658 111.014 169.575C111.346 169.45 111.679 169.367 112.011 169.367C112.676 169.409 113.091 169.617 113.423 169.949C113.797 170.572 113.839 170.947 113.839 171.487C113.839 171.902 113.714 172.484 113.465 173.191C113.174 174.105 112.8 174.978 112.426 175.892C112.011 176.765 111.596 177.68 111.097 178.594C110.557 179.716 109.934 180.88 109.269 182.044L107.359 185.452C107.359 185.452 106.736 186.699 106.528 187.073C106.362 187.405 106.154 187.738 105.905 188.07C105.905 188.153 105.863 188.278 105.822 188.32C105.739 188.528 105.614 188.694 105.531 188.818C105.448 188.902 105.199 189.234 105.074 189.317L104.7 189.608C104.451 189.816 104.202 189.941 103.994 190.024C103.869 190.065 103.662 190.107 103.537 190.107C103.329 190.107 103.08 190.024 102.872 189.899C102.457 189.691 102.083 189.317 102.042 188.569C102.042 188.278 102.042 187.987 102.083 187.696C102.125 187.447 102.208 187.156 102.416 186.865L102.665 186.408C102.665 186.408 102.789 186.2 102.872 186.117L103.496 184.953C103.786 184.454 103.994 184.039 104.243 183.623C104.243 183.54 104.285 183.457 104.326 183.415C104.866 182.459 105.406 181.503 105.905 180.589C106.403 179.633 107.691 177.264 107.816 176.973L107.234 177.513C105.489 179.384 103.786 181.379 102.083 183.415C100.38 185.493 98.8017 187.447 97.3479 189.317C97.1402 189.608 97.0571 189.774 97.0156 189.858L97.5971 192.601C97.8048 193.473 98.0125 194.346 98.1786 195.219C98.1786 195.344 98.1786 195.51 98.1786 195.676L98.9679 198.918C99.2586 200.082 99.5079 201.287 99.7986 202.534C99.8402 202.867 99.8817 203.033 99.9648 203.199L100.38 204.072L100.505 204.529C100.505 204.529 100.588 204.695 100.629 204.82C100.712 204.945 100.754 205.069 100.796 205.194C100.796 205.236 100.879 205.277 100.879 205.36C100.92 205.443 100.962 205.485 100.962 205.568C100.962 205.61 100.962 205.693 101.003 205.776C101.086 205.942 101.128 206.15 101.169 206.275C101.211 206.649 101.169 207.064 100.962 207.397C100.962 207.438 100.712 207.896 100.671 207.937C100.629 208.02 100.339 208.353 100.256 208.436C100.172 208.519 99.7986 208.768 99.674 208.81C99.5494 208.852 99.0094 208.976 98.8432 208.976C98.4279 208.976 98.054 208.81 97.7633 208.519C97.5556 208.27 97.3894 208.02 97.3063 207.729C97.2233 207.605 97.1402 207.48 97.1402 207.438C96.974 207.106 96.8494 206.732 96.7248 206.358C96.6002 205.984 96.4756 205.568 96.3925 205.153C96.0602 203.906 95.7279 202.576 95.3956 201.246C95.0632 199.916 94.7725 198.544 94.4817 197.131C94.3156 196.549 94.1494 195.884 94.0248 195.219C93.9417 194.803 93.8586 194.346 93.7756 193.931C92.1971 196.3 90.494 198.793 88.7494 201.287C86.9217 203.947 85.094 206.524 83.3494 209.101C83.3494 209.309 83.2248 209.35 83.1002 209.517C82.9756 209.724 82.4771 210.265 82.2694 210.348C82.3109 210.389 82.1033 210.556 81.8956 210.68C81.854 210.68 81.4386 210.93 81.3971 210.93C81.1479 211.013 81.0233 211.013 80.8571 211.013C80.7325 211.054 80.6494 211.096 80.5248 211.096L80.6494 211.221Z" fill="#00D1B5"/>
<path d="M158.908 200.29C158.908 200.29 158.617 200.29 158.493 200.207C157.87 200.124 157.454 199.791 157.246 199.292C156.997 198.752 157.039 198.046 157.496 196.716C157.496 196.674 157.953 195.261 157.953 195.261C158.036 194.97 158.119 194.679 158.16 194.388L160.113 181.711C160.819 176.973 161.566 172.152 162.314 167.206L162.397 165.918C162.397 165.71 162.397 165.461 162.397 165.253C162.19 165.461 161.276 166.375 160.985 166.666C160.03 167.746 159.033 168.827 157.994 169.949C156.997 171.03 156 172.152 155.003 173.274C153.425 174.978 151.971 176.599 150.476 178.22C148.98 179.841 147.568 181.421 146.156 183C145.366 183.831 144.702 184.538 144.079 185.161C143.456 185.785 142.874 186.325 142.293 186.865C142.126 187.031 141.919 187.156 141.67 187.281C141.42 187.406 141.254 187.489 141.046 187.572C140.922 187.613 140.423 187.738 140.257 187.738C140.091 187.738 139.925 187.738 139.759 187.696C139.053 187.489 138.596 186.948 138.554 186.2C138.43 185.868 138.513 185.244 138.803 184.538C139.053 183.956 139.468 183.374 140.008 182.834C142.168 180.714 144.286 178.594 146.363 176.475C148.482 174.313 150.6 172.152 152.677 169.949C154.754 167.788 156.831 165.627 158.866 163.424C160.943 161.263 163.02 159.06 165.014 156.899C167.506 154.28 169.999 151.62 172.574 148.919C175.108 146.217 177.683 143.516 180.3 140.897L181.214 139.941C181.505 139.65 181.837 139.359 182.128 139.11C182.128 139.11 182.543 138.819 182.585 138.777C182.751 138.694 182.917 138.57 183.125 138.528C183.25 138.486 183.623 138.403 183.748 138.403C183.914 138.403 184.205 138.445 184.33 138.528C184.62 138.653 184.87 138.819 185.119 139.068C185.451 139.567 185.7 140.149 185.493 141.022C185.368 141.479 185.16 141.978 184.828 142.56C184.579 142.934 184.33 143.266 184.039 143.599L183.25 144.471C182.668 145.178 182.17 145.76 181.671 146.3C181.214 146.799 180.716 147.339 180.259 147.921L179.511 148.752C179.303 149.002 179.137 149.21 178.971 149.417C178.514 149.958 178.182 150.29 177.85 150.581C177.434 150.955 177.06 151.163 176.686 151.329C176.562 151.371 176.105 151.496 175.939 151.496C175.897 151.496 175.856 151.496 175.856 151.496C175.731 151.537 175.565 151.62 175.399 151.745C175.191 151.911 174.983 152.077 174.776 152.244L171.91 155.195C170.954 156.192 167.05 160.224 167.05 160.224C167.133 162.842 166.966 165.668 166.593 168.495C166.219 171.321 165.803 174.147 165.305 176.973L164.973 178.885C164.89 179.509 164.806 180.091 164.723 180.672C164.516 181.919 164.35 183.083 164.142 184.288C163.976 185.452 163.81 186.616 163.685 187.696C163.477 188.86 163.311 189.941 163.186 190.98C163.02 192.019 162.896 193.1 162.771 194.18C162.688 194.679 162.605 195.178 162.48 195.76C162.356 196.383 162.148 197.048 161.857 197.713C161.608 198.378 161.276 198.96 160.819 199.376C160.403 199.791 159.988 200.041 159.573 200.207C159.448 200.248 158.95 200.415 158.825 200.415L158.908 200.29Z" fill="#00D1B5"/>
<path d="M221.174 172.027C220.759 171.986 220.385 171.778 220.011 171.404C219.637 170.864 219.554 170.531 219.512 170.199C219.512 169.908 219.512 169.617 219.512 169.243C219.554 168.91 219.72 168.536 219.969 168.121C220.177 167.788 220.426 167.414 220.717 167.081L230.52 155.818C233.636 152.244 248.091 135.743 248.091 135.743L256.191 126.558C256.565 126.226 256.731 126.059 256.897 125.935C256.98 125.851 257.354 125.602 257.479 125.561C257.686 125.477 257.852 125.477 257.977 125.477C258.102 125.477 258.351 125.477 258.476 125.561C258.642 125.602 259.348 125.851 259.472 126.807C259.472 126.932 259.472 127.223 259.472 127.306C259.472 127.472 259.389 127.68 259.306 127.805C259.057 128.221 258.849 128.553 258.725 128.802C258.517 129.176 258.309 129.426 258.102 129.634C254.945 133.499 251.746 137.323 248.672 140.98L239.908 151.454C237.083 154.821 234.342 158.062 231.683 161.18L223.874 170.323C223.625 170.656 223.292 170.988 223.002 171.238C222.628 171.529 222.337 171.736 222.046 171.82C221.922 171.861 221.672 171.903 221.506 171.903C221.465 171.903 221.299 171.903 221.257 171.903L221.174 172.027ZM225.162 134.58C224.746 134.58 224.331 134.455 223.957 134.206C223.459 133.873 223.085 133.416 222.877 132.834C222.711 132.418 222.669 131.961 222.711 131.504C222.711 131.088 222.836 130.714 222.96 130.423C223.085 130.132 223.209 129.966 223.334 129.758C223.5 129.509 223.749 129.26 223.999 129.052C225.079 128.137 226.2 127.265 227.363 126.475C228.485 125.727 229.523 124.979 230.562 124.314C230.894 124.106 231.185 123.94 231.476 123.773C231.766 123.607 232.016 123.399 232.265 123.191C232.348 123.108 232.556 123.025 232.68 122.984C232.971 122.859 233.262 122.776 233.511 122.734L234.3 123.732L234.176 122.526C234.176 122.526 234.466 122.443 234.591 122.443C234.757 122.443 234.965 122.443 235.131 122.568C235.339 122.693 235.505 122.817 235.629 123.025C235.754 123.108 235.837 123.191 235.92 123.275C236.128 123.441 236.294 123.607 236.419 123.732C236.834 124.147 236.959 124.937 236.626 125.394L236.211 125.935C236.211 125.935 235.588 126.683 235.38 126.766C234.259 127.472 232.888 128.47 231.309 129.634C229.814 130.756 228.236 132.211 226.657 133.956C226.532 134.081 226.283 134.289 226.159 134.372C225.702 134.538 225.452 134.58 225.203 134.58H225.162Z" fill="#00D1B5"/>
<path d="M303.462 155.153C303.129 155.153 302.839 155.028 302.589 154.82H302.548C302.299 154.488 302.132 154.114 302.008 153.698C301.925 153.407 301.883 153.075 301.883 152.784C301.966 152.243 302.049 151.911 302.174 151.495L302.465 150.498C302.465 150.498 302.548 150.207 302.672 150.041C302.672 149.833 302.797 149.583 302.922 149.417C303.877 146.3 305.04 142.726 306.162 139.068C307.242 135.452 308.322 131.753 309.36 127.971C310.399 124.189 311.396 120.323 312.351 116.333C313.348 112.302 314.345 108.187 315.3 103.989C315.965 100.914 316.629 97.7549 317.377 94.5131C318.083 91.2712 318.831 87.9878 319.579 84.6212L319.745 84.0809C319.952 83.0003 320.202 82.2106 320.451 81.7118C320.783 81.0053 321.448 80.5065 322.32 80.174C322.445 80.1324 322.819 80.0493 322.985 80.0493C323.192 80.0493 323.483 80.1324 323.649 80.2156C323.774 80.2987 323.94 80.4234 324.106 80.5481C324.439 80.8806 324.522 81.4209 324.563 82.0443C324.563 82.3768 324.563 83.0418 324.189 84.7459C324.065 85.1199 324.023 85.2862 323.94 85.4524C323.899 85.6187 323.608 86.824 323.608 86.824C322.694 90.9387 321.614 95.469 320.492 100.373C319.329 105.195 318.125 110.224 316.796 115.502C315.466 120.781 314.054 126.184 312.559 131.795C311.063 137.406 309.443 143.058 307.699 148.794L306.992 151.08C306.743 151.869 306.411 152.617 306.037 153.241C305.829 153.573 305.539 153.947 305.123 154.28C304.708 154.654 304.292 154.862 303.919 155.028C303.794 155.07 303.628 155.111 303.462 155.111V155.153ZM294.489 124.854C293.949 124.854 293.492 124.604 293.16 124.189C292.703 123.607 292.703 122.817 292.745 122.277C292.745 121.653 292.786 120.988 292.869 120.323C292.952 119.617 293.036 118.952 293.119 118.328C293.119 118.162 293.119 117.83 293.202 117.539L293.326 116.791L296.276 104.446C296.483 103.449 296.816 102.784 297.189 102.327C297.48 101.953 297.854 101.703 298.186 101.496C298.311 101.371 298.436 101.288 298.56 101.246C298.851 101.122 299.1 101.08 299.349 101.08C299.931 101.08 300.429 101.371 300.762 101.828C301.052 102.285 301.177 102.909 301.094 103.698C301.011 104.239 300.928 104.737 300.803 105.195C300.679 105.693 300.596 106.151 300.429 106.649C300.429 106.816 300.346 107.107 300.263 107.439C300.222 107.688 299.931 109.185 299.806 109.683C299.682 110.182 299.557 110.722 299.432 111.263C299.142 112.759 298.809 114.38 298.436 116.042C298.103 117.705 297.771 119.284 297.522 120.905C297.522 120.988 297.356 121.362 297.314 121.446C297.231 122.027 297.106 122.609 296.94 123.025C296.732 123.607 296.276 124.064 295.652 124.355C295.611 124.355 295.32 124.563 295.279 124.604C294.946 124.729 294.656 124.771 294.406 124.771L294.489 124.854Z" fill="#00D1B5"/>
<path d="M365.271 107.647C364.648 107.647 364.108 107.356 363.776 106.815C363.443 106.317 363.402 105.693 363.651 104.904C363.817 104.405 363.983 104.031 364.191 103.698C364.523 103.241 365.063 102.867 365.977 102.535C368.179 101.62 370.339 100.249 372.416 98.5445C374.576 96.7573 376.736 94.9286 378.812 93.0583C379.269 92.5595 379.726 92.1854 380.183 91.7698C380.64 91.3542 381.056 90.9801 381.471 90.6892L381.845 88.4448C381.845 88.4448 381.72 88.4448 381.637 88.4448C380.889 88.4448 380.391 88.6111 379.892 88.7773C379.145 89.0267 378.439 89.4839 377.691 90.1073C376.943 90.7308 376.237 91.5204 375.531 92.5179C375.116 93.0167 374.742 93.3492 374.409 93.5986C374.036 93.848 373.745 94.0142 373.496 94.0973C373.371 94.1389 372.872 94.222 372.748 94.222C372.457 94.222 371.003 94.1389 370.879 92.1023C370.837 91.3126 370.796 90.8554 370.796 90.6892C370.92 89.7748 371.252 89.2345 371.834 88.7358C372.249 88.3617 372.623 88.1123 372.956 87.9045C373.994 87.3226 375.032 86.7823 376.112 86.242C377.151 85.7017 378.231 85.1614 379.311 84.5795C379.352 84.5795 379.768 84.3717 379.851 84.3717L381.014 83.7898C381.429 83.582 381.803 83.3742 382.219 83.0833L383.506 82.4598L384.752 74.9786C384.171 74.9786 383.797 75.0201 383.423 75.1033C382.925 75.2279 382.385 75.3526 381.886 75.5604C380.723 75.9761 379.56 76.6411 378.397 77.5554C377.234 78.4283 375.988 79.6336 374.742 81.1298C373.703 82.3351 373.288 82.7092 373.039 82.8755C372.582 83.1664 372.457 83.2495 372.291 83.3326C372.166 83.3742 372 83.4158 371.876 83.4158C371.792 83.4158 371.709 83.4158 371.585 83.4158C371.377 83.3742 370.92 83.0833 370.754 82.9586C370.38 82.3767 370.339 82.0858 370.297 81.7948C370.297 81.5039 370.297 81.2129 370.297 80.922C370.463 80.3817 370.629 79.9245 370.879 79.5089C371.128 79.0933 371.419 78.6361 371.751 78.262C373.454 76.3501 375.157 74.7708 376.86 73.5239C378.605 72.2354 380.391 71.2379 382.136 70.6145C382.676 70.4067 383.299 70.2404 383.922 70.1158C384.503 69.9911 385.085 69.8664 385.625 69.7833C385.874 69.7833 386.082 69.7417 386.289 69.7417C387.536 69.7417 388.2 70.3651 388.532 70.8639C389.072 71.6536 389.197 72.6926 388.948 74.0642C388.74 75.1864 388.532 76.3501 388.242 77.5554C387.992 78.7192 387.743 79.8414 387.494 80.9636C387.162 82.3767 386.829 83.7898 386.539 85.1614C386.248 86.5329 385.999 87.9045 385.832 89.1929C385.459 91.4789 384.711 93.2661 383.589 94.5129C382.551 95.6767 381.097 96.9236 379.103 98.3367C378.272 98.9601 377.442 99.6251 376.652 100.249L374.202 102.202C373.454 102.825 372.665 103.449 371.834 104.072C371.045 104.696 370.256 105.278 369.508 105.86C369.051 106.234 368.552 106.525 368.096 106.815C367.597 107.106 367.14 107.314 366.683 107.48C366.476 107.564 366.268 107.605 366.019 107.647C365.769 107.688 365.562 107.73 365.354 107.73L365.146 106.566V107.73L365.271 107.647Z" fill="#00D1B5"/>
<path d="M428.7 98.7526C428.7 98.7526 428.285 98.7526 428.077 98.711C426.955 98.5447 426.499 97.9629 426.249 97.5057C425.917 96.8822 425.917 96.1757 426.208 95.3444C426.415 94.721 426.831 94.056 427.412 93.391C427.828 92.8507 428.285 92.3519 428.742 91.8532C429.199 91.3544 429.572 90.9388 429.946 90.5648C433.477 86.9904 437.091 83.6654 440.746 80.6313C444.402 77.6388 447.974 74.7294 451.505 71.9863C451.588 71.9032 451.795 71.8201 451.879 71.7785L452.086 71.5707C452.335 71.4044 452.585 71.2382 452.834 71.1551C452.959 71.1135 453.374 71.0304 453.499 71.0304C453.831 71.0304 454.122 71.1135 454.412 71.2797C454.495 71.3213 454.62 71.446 454.745 71.6122C454.745 71.2382 454.828 70.781 454.952 70.2822C455.077 69.8251 455.202 69.3679 455.368 68.8691C455.534 68.3704 455.742 67.8301 455.991 67.3313C456.24 66.6663 456.531 65.8766 456.863 65.0869C457.195 64.2972 457.528 63.5491 457.819 62.8426C458.359 61.471 458.982 60.0163 459.563 58.5201C460.145 57.0654 460.726 55.6107 461.266 54.156C461.972 52.2857 462.595 50.4154 463.177 48.5451C463.759 46.6332 464.34 44.7629 464.963 42.9341L465.295 41.6457C465.503 41.1054 465.628 40.6066 465.711 40.0663C465.794 39.4844 465.877 38.9026 465.877 38.2376C465.96 36.6166 465.752 36.2426 465.752 36.2426C465.42 36.2426 465.254 36.3257 465.088 36.3672C464.922 36.4088 464.755 36.4919 464.589 36.5751C464.423 36.6582 464.174 36.7829 463.966 36.9076C462.969 37.4894 461.972 38.1129 460.975 38.7779C459.979 39.4013 459.023 40.1494 458.068 40.9391C454.786 43.4744 451.629 46.2591 448.68 49.2101C445.689 52.2026 442.906 55.0704 440.331 57.8135C439.625 58.5201 439.002 59.2266 438.379 59.8916L436.675 61.8035C436.26 62.3022 436.011 62.5932 435.762 62.8841C435.595 63.0919 435.471 63.2997 435.388 63.5076C435.014 64.7544 434.474 65.6688 433.768 66.2507C433.186 66.7079 432.605 67.1235 431.94 67.4976L431.483 67.7054C431.4 67.7469 431.026 67.9963 430.943 68.0379C430.528 68.2041 430.237 68.2457 429.988 68.2457C429.863 68.2457 429.406 68.1626 429.282 68.121C428.285 67.7885 428.119 67.0819 428.077 66.791C427.994 66.6247 428.077 66.2091 428.243 65.7104C428.326 65.4194 428.492 65.0869 428.659 64.6713C428.659 64.6713 428.866 64.2972 428.866 64.2557C428.866 64.0894 428.949 63.9232 429.074 63.7985C429.115 63.7154 429.365 63.466 429.448 63.3829C429.448 63.3829 429.739 63.0088 429.946 62.9257C431.732 60.8476 433.809 58.6032 436.011 56.2757C438.171 53.9897 440.414 51.6622 442.699 49.3347C445.025 47.0072 447.392 44.7213 449.843 42.5185C452.252 40.3572 454.745 38.2376 457.32 36.2426C458.275 35.4529 459.231 34.7879 460.186 34.1229C461.142 33.4994 462.055 32.9591 462.886 32.4604C463.26 32.2526 463.592 32.0863 463.883 31.9616C464.174 31.7954 464.465 31.6707 464.755 31.5876C465.586 31.2551 466.334 31.1304 466.999 31.1304C468.037 31.1304 468.909 31.5044 469.532 32.2526C470.446 33.3332 470.779 35.1204 470.488 37.7804C470.488 37.7804 470.28 39.1104 470.239 39.1519C470.405 39.4429 470.446 39.7338 470.363 39.9832C470.072 40.7729 469.906 41.2716 469.74 41.7704C469.574 42.2691 469.449 42.7679 469.325 43.1835C469.325 43.2666 469.159 43.5576 469.117 43.6407L467.871 47.6722C467.414 49.1269 466.957 50.5401 466.459 51.9532C466.459 51.9532 463.302 60.0994 462.969 60.8891C462.679 61.7204 462.346 62.5101 462.014 63.3413C461.599 64.3804 461.225 65.461 460.892 66.5832L459.771 70.1576C459.522 71.0304 459.231 71.6954 458.899 72.1941C458.525 72.7344 458.026 73.1085 457.445 73.3579C457.029 73.5241 456.78 73.5657 456.489 73.5657C456.406 73.5657 456.157 73.5657 456.032 73.5241C455.783 73.441 455.326 73.1085 455.119 72.8176C455.119 72.9838 455.035 73.1916 454.911 73.4826C454.745 73.9397 454.537 74.2722 454.288 74.5216L453.582 75.1866C453.208 75.5191 452.917 75.7685 452.626 76.0179C452.626 76.0179 452.252 76.3088 452.211 76.3504C451.422 77.0154 450.757 77.5557 450.092 78.1376C449.428 78.6779 448.763 79.2597 448.099 79.8832C447.974 79.9663 447.849 80.0494 447.725 80.091L443.239 83.9563C441.619 85.3279 440.04 86.6994 438.503 88.1126C437.714 88.736 437.008 89.401 436.343 90.1076L434.059 92.4351C433.768 92.7676 433.435 93.1416 433.02 93.4741C432.771 93.7235 432.48 93.9729 432.231 94.2222C432.231 94.2222 432.231 94.8872 432.189 94.9288C432.189 95.2197 432.189 95.6769 432.148 96.0926C432.065 96.716 431.691 97.2979 431.026 97.8797C430.902 98.0044 430.777 98.0876 430.611 98.1291C430.445 98.2538 430.279 98.3369 430.112 98.4201C429.655 98.5863 429.157 98.711 428.659 98.711L428.7 98.7526Z" fill="#00D1B5"/>
<path d="M493.832 84.7044C493.832 84.7044 493.5 84.7044 493.417 84.6628C493.043 84.5797 492.545 84.0809 492.42 83.6653C492.129 83.0419 492.171 82.2937 492.586 81.5872C492.836 81.1716 493.126 80.7144 493.459 80.3403L494.705 80.6312L493.749 79.9247C496.906 75.81 499.897 71.7784 502.763 67.83C505.671 63.8816 508.412 59.9747 511.071 56.1925C513.688 52.3688 516.263 48.6281 518.714 44.9291C521.123 41.2716 523.491 37.6141 525.734 33.915C526.897 32.0447 528.019 30.1744 529.057 28.3041C530.096 26.4337 531.134 24.5219 532.089 22.61C532.422 21.9034 532.754 21.1553 533.045 20.4488C533.045 20.3656 533.128 20.2409 533.128 20.1578C532.712 20.2409 532.297 20.3656 531.882 20.5319C530.345 21.1138 528.849 21.8203 527.354 22.6516C525.859 23.5244 524.322 24.5219 522.868 25.6441C521.456 26.6831 520.043 27.7638 518.631 28.8444C517.219 29.9666 515.806 31.0472 514.436 32.1278L511.902 34.1644C511.029 34.8709 510.116 35.5775 509.243 36.2425C508.579 36.7413 508.08 37.3231 507.665 37.9881C507.208 38.7363 506.792 39.4844 506.419 40.2741C506.419 40.3156 506.169 40.6481 506.169 40.6897C506.169 40.8144 506.045 40.9806 506.003 41.0638C505.837 41.3547 505.754 41.5209 505.629 41.7287C505.463 42.0612 505.256 42.3522 505.048 42.56C504.923 42.7262 504.799 42.8509 504.591 42.8925L503.885 43.0172C503.594 43.0172 503.345 42.9756 503.096 42.8925C502.431 42.6431 502.14 42.2275 501.974 41.9366C501.725 41.4794 501.476 40.9391 501.185 40.3156C500.894 39.6922 500.603 38.9441 500.312 38.1128C500.146 37.6556 499.939 37.1569 499.772 36.6166L499.274 35.1619C499.149 34.7047 499.025 34.2891 498.9 33.9566C498.776 33.5825 498.651 33.25 498.485 32.8759C498.319 32.0862 498.319 31.5875 498.402 31.0888C498.526 30.5484 498.817 30.0913 499.274 29.6341C499.357 29.5094 499.523 29.3016 499.772 29.1353C500.022 28.9275 500.229 28.8028 500.479 28.7197C500.603 28.6781 501.019 28.595 501.185 28.595C501.434 28.595 501.725 28.6366 501.932 28.7613C502.223 28.8859 502.556 29.1769 502.763 29.6341C502.888 29.8834 502.971 30.1328 503.054 30.4238C503.054 30.4238 503.303 31.3381 503.345 31.3797L503.843 33.3747L504.342 35.1203C508.205 31.6706 511.736 28.8028 514.934 26.3506C518.631 23.5659 522.245 21.0722 525.692 18.9525C526.772 18.2459 527.936 17.6225 529.182 17.0406C530.386 16.4587 531.632 15.96 532.879 15.5028C533.709 15.2119 534.374 15.0456 534.997 15.0456C536.202 15.1287 536.949 15.6275 537.323 16.4588C537.656 16.9991 537.739 17.7472 537.614 18.7447C537.489 19.5344 537.24 20.4487 536.783 21.5294C536.368 22.7347 535.786 23.9816 535.163 25.2284C534.54 26.4753 533.876 27.6806 533.128 28.8444C531.757 31.0888 530.345 33.3747 528.891 35.7022C527.437 38.0713 525.9 40.3572 524.322 42.6431C522.494 45.2616 513.397 58.3537 513.397 58.3537L502.514 73.8981L496.616 82.2522C496.2 82.8341 495.826 83.3328 495.494 83.6653C495.079 84.1225 494.705 84.4134 494.331 84.5381C494.206 84.5797 493.874 84.6628 493.749 84.6628L493.832 84.7044ZM520.043 22.1528C519.462 22.1528 518.672 21.4878 518.589 20.9059C518.506 20.4903 518.506 20.0331 518.589 19.5344C518.672 19.0356 518.756 18.62 518.797 18.1628C518.839 17.7056 518.922 17.2484 519.005 16.7912L519.877 10.0166L520.5 2.9925C520.583 2.53531 520.708 2.16125 520.874 1.70406C521.082 1.20531 521.331 0.789687 521.622 0.49875C521.746 0.374062 521.912 0.290938 522.079 0.207813C522.536 0.0415625 522.826 0 523.076 0C523.159 0 523.491 0 523.616 0.083125C524.031 0.16625 524.363 0.374063 524.571 0.623438C524.696 0.748125 524.779 0.914375 524.82 1.08062C524.945 1.45469 525.028 1.91187 525.028 2.36906C525.028 2.82625 525.028 3.28344 525.028 3.82375L523.906 10.5153L522.992 17.7472L522.909 18.2459C522.909 18.6616 522.909 18.8694 522.826 19.0772C522.826 19.3266 522.702 19.6175 522.66 19.95C522.536 20.4488 522.328 20.8228 521.996 21.1553C521.996 21.2384 521.746 21.4878 521.414 21.6956C521.331 21.6956 520.916 21.945 520.874 21.945C520.749 21.9866 520.251 22.1113 520.085 22.1113L520.043 22.1528Z" fill="#00D1B5"/>
<defs>
<clipPath id="clip0_10_254">
<rect width="319.846" height="128.844" fill="white" transform="translate(112.154 78.9688)"/>
</clipPath>
</defs>
</svg>
