<svg width="376" height="185" viewBox="0 0 376 185" fill="none" xmlns="http://www.w3.org/2000/svg">
<path d="M58.3077 50.4219H90.8364V56.9263H66.1977V76.9933H88.9677V83.4286H66.1977V110.692H58.3077V50.4219Z" fill="#403B3B"/>
<path d="M123.157 50.4219H115.337V110.761H123.157V50.4219Z" fill="#403B3B"/>
<path d="M181.432 82.3906H158.039V104.188H184.2V110.692H150.149V50.4219H182.885V56.9263H158.039V76.0246H181.432V82.3906Z" fill="#403B3B"/>
<path d="M207.663 50.4219H215.553V104.188H241.299V110.692H207.663V50.4219Z" fill="#403B3B"/>
<path d="M263.377 51.183C268.221 50.4219 273.827 49.9375 279.987 49.9375C291.199 49.9375 299.158 52.4978 304.418 57.3415C309.886 62.2545 313 69.3817 313 79.1384C313 88.8951 309.886 97.0603 304.28 102.596C298.535 108.201 289.261 111.246 277.565 111.246C271.889 111.246 267.391 111.038 263.307 110.554V51.183M271.197 104.603C273.135 104.949 276.042 104.949 279.087 104.949C295.698 105.018 304.764 95.6763 304.764 79.346C304.903 64.9531 296.805 56.096 280.333 56.096C276.319 56.096 273.274 56.442 271.197 56.9263V104.603Z" fill="#403B3B"/>
<path d="M335.466 120.271C336.865 120.072 337.973 119.989 339.043 119.748C341.975 119.089 344.906 118.415 347.809 117.635C348.606 117.42 349.358 116.9 350.025 116.384C351.31 115.392 352.741 115.714 354.099 115.91C354.84 116.017 354.552 116.723 354.093 116.965C352.396 117.86 350.739 119.018 348.917 119.458C344.581 120.508 340.164 121.238 335.768 122.02C334.517 122.244 333.729 122.789 333.104 123.915C331.304 127.163 329.388 130.346 327.501 133.545C325.354 137.189 323.225 140.846 321.023 144.456C318.699 148.26 316.279 152.004 313.935 155.795C312.413 158.257 310.976 160.775 309.456 163.237C307.173 166.936 304.8 170.582 302.555 174.304C300.768 177.261 299.056 180.268 297.431 183.318C296.813 184.475 296.148 185.118 294.764 184.977C293.392 184.839 292.866 184.1 293.522 182.882C294.738 180.626 295.984 178.387 297.269 176.171C298.928 173.307 300.605 170.455 302.335 167.633C304.059 164.823 305.903 162.084 307.618 159.265C309.814 155.65 311.909 151.975 314.09 148.352C315.547 145.93 317.123 143.58 318.565 141.149C321.235 136.648 323.836 132.106 326.491 127.596C327.315 126.198 328.213 124.842 329.249 123.193C328.434 123.193 327.908 123.162 327.387 123.197C323.819 123.45 320.255 123.881 316.687 123.917C314.638 123.937 312.527 123.515 310.544 122.952C307.782 122.168 306.49 119.849 306.868 116.989C306.902 116.732 306.915 116.471 306.942 116.212C307.052 115.224 306.942 113.98 308.14 113.687C309.521 113.348 311.041 113.075 312.272 114.221C312.547 114.478 312.686 114.88 312.888 115.215C312.574 115.381 312.25 115.528 311.952 115.718C311.661 115.904 311.207 116.093 311.153 116.348C310.647 118.776 310.965 120.957 313.725 121.828C316.176 122.601 318.645 122.447 321.137 122.13C323.534 121.824 325.938 121.531 328.347 121.337C329.728 121.225 330.637 120.769 331.336 119.449C333.053 116.201 335.007 113.078 336.795 109.865C338.405 106.974 339.974 104.059 341.469 101.11C344.492 95.1501 347.462 89.1631 350.43 83.1761C351.277 81.4693 353.491 80.5758 355.254 81.3666C355.436 81.447 355.597 82.0077 355.494 82.2088C354.648 83.8865 353.705 85.5173 352.855 87.1928C351.187 90.4722 349.578 93.7829 347.905 97.0601C345.982 100.827 344.064 104.597 342.06 108.322C340.229 111.722 338.282 115.059 336.395 118.428C336.108 118.937 335.866 119.473 335.47 120.266L335.466 120.271Z" fill="#95D32A"/>
<path d="M210.586 156.609C215.11 156.01 219.634 155.409 224.158 154.81C227.181 154.411 230.196 153.935 233.229 153.631C236.775 153.278 240.336 153.077 243.891 152.813C244.077 152.8 244.296 152.762 244.444 152.842C244.758 153.014 245.033 153.253 245.324 153.466C245.055 153.676 244.811 154.02 244.516 154.071C243.267 154.281 242.004 154.408 240.746 154.558C235.383 155.201 230.01 155.798 224.653 156.499C219.554 157.167 214.459 157.88 209.384 158.711C208.032 158.932 206.599 159.433 205.487 160.208C199.642 164.276 193.361 167.488 186.696 169.95C183.106 171.275 179.493 172.693 175.553 172.456C174.465 172.392 173.339 172.104 172.334 171.677C170.852 171.047 170.442 169.731 171.34 168.384C171.962 167.45 172.786 166.548 173.722 165.945C177.16 163.726 180.923 162.212 184.919 161.32C188.613 160.498 192.313 159.705 196.024 158.963C198.064 158.557 200.15 158.365 202.178 157.916C203.266 157.674 204.446 157.301 205.294 156.627C207.913 154.545 210.553 152.442 212.887 150.061C216.084 146.8 219.095 143.346 222.023 139.838C224.279 137.135 225.907 134.008 226.858 130.61C227.523 128.233 227.754 125.807 226.672 123.412C225.609 121.06 223.476 119.925 221.029 120.711C219.954 121.055 218.882 121.578 217.985 122.253C216.977 123.01 217.026 123.736 217.808 124.735C218.508 125.631 218.358 126.01 217.244 126.171C215.271 126.455 214.239 125.99 213.474 124.538C213.022 123.683 213.08 122.903 213.648 122.141C214.777 120.631 216.382 119.708 218.13 119.396C220.378 118.993 222.732 118.712 224.987 118.933C228.286 119.257 230.63 121.375 231.286 125.061C232.043 129.317 230.491 133.009 228.45 136.601C225.437 141.903 221.434 146.386 217.031 150.539C215.301 152.17 213.494 153.72 211.712 155.295C211.271 155.684 210.79 156.026 210.326 156.388C210.414 156.461 210.499 156.535 210.586 156.609ZM199.555 160.775L199.454 160.449C199.145 160.449 198.829 160.407 198.529 160.456C193.307 161.296 188.102 162.236 183.115 164.064C180.453 165.04 177.865 166.184 175.743 168.149C175.17 168.679 174.769 169.423 175.291 170.006C175.707 170.468 176.643 170.884 177.194 170.739C179.524 170.122 181.861 169.434 184.08 168.498C187.811 166.923 191.478 165.189 195.122 163.422C196.665 162.674 198.079 161.666 199.555 160.777V160.775Z" fill="#95D32A"/>
<path d="M358.361 1.34116C358.948 1.4207 359.548 1.4549 360.122 1.59442C360.628 1.71785 360.835 2.02953 360.632 2.62377C360.369 3.39417 360.202 4.20189 360.067 5.00589C359.864 6.20867 359.795 7.43719 359.538 8.62507C359.23 10.051 359.417 10.2874 360.818 9.97839C363.42 9.40519 366.055 9.07476 368.716 9.38664C369.956 9.53201 371.193 9.82887 372.387 10.2063C373.997 10.7168 375.192 12.5118 374.948 14.2399C374.72 15.8471 374.39 17.4923 373.773 18.9815C371.689 24.0217 368.211 28.1227 364.554 32.0763C362.162 34.6611 359.79 37.2664 357.332 39.7889C354.385 42.8127 351.351 45.7537 348.366 48.7408C347.304 49.804 346.042 49.5556 344.823 49.2561C344.168 49.0953 344.082 48.5723 344.601 48.0586C346.86 45.8253 349.147 43.6173 351.369 41.3494C353.518 39.1554 355.622 36.9178 357.704 34.6616C359.502 32.7129 361.237 30.7084 363.004 28.7297C366.355 24.9723 369.148 20.8702 370.808 16.0734C370.99 15.5532 371.126 14.9874 371.137 14.4407C371.188 12.0882 370.373 11.1329 368.018 11.025C364.693 10.8737 361.481 11.4351 358.479 12.9591C358.23 13.0842 357.975 13.2213 357.709 13.2754C353.01 14.2399 348.989 16.5379 345.344 19.5617C344.614 20.1676 343.901 20.716 344.431 22.0165C344.763 22.8312 344.269 23.9535 344.282 24.9338C344.295 25.8341 344.433 26.7194 345.324 27.3186C345.865 27.6829 345.628 28.1037 345.08 28.3159C343.257 29.0201 341.273 28.06 340.82 26.1719C340.15 23.3857 339.993 20.5908 340.884 17.8015C341.421 16.1226 342.14 15.4694 343.935 15.5464C345.546 15.6146 346.91 15.1362 348.304 14.3929C349.994 13.4904 351.79 12.7819 353.559 12.0375C354.305 11.7235 354.805 11.2694 354.891 10.4509C355.069 8.79318 355.225 7.13168 355.401 5.47381C355.519 4.36304 355.587 3.2398 355.825 2.15567C355.902 1.80813 356.417 1.41209 356.802 1.31504C357.284 1.19429 357.837 1.36157 358.36 1.40426L358.365 1.33523L358.361 1.34116Z" fill="#95D32A"/>
<path d="M211.52 99.6195C211.281 99.6 211.028 99.6279 210.811 99.5511C210.48 99.4313 210.173 99.2376 209.856 99.0747C210 98.785 210.133 98.4881 210.292 98.208C211.161 96.6661 212.091 95.1588 212.898 93.5844C213.958 91.5163 214.93 89.3988 215.925 87.296C216.544 85.9845 217.144 84.6653 217.731 83.3386C218.731 81.0801 219.734 78.824 220.7 76.5521C222.63 72.0062 224.536 67.4499 226.447 62.896C228.114 58.919 229.842 54.9679 231.416 50.9537C232.648 47.8139 233.667 44.5851 234.836 41.4169C234.976 41.0362 235.443 40.5768 235.804 40.5304C236.532 40.4359 237.315 40.5103 238.029 40.6972C238.302 40.7701 238.677 41.3889 238.617 41.6749C238.311 43.132 237.96 44.5917 237.47 45.9937C236.733 48.0967 235.903 50.1667 235.051 52.2264C233.925 54.9511 232.709 57.6369 231.591 60.3643C230.734 62.4574 230.022 64.615 229.155 66.7031C227.435 70.8424 225.689 74.9733 223.886 79.0763C222.43 82.3855 220.943 85.6858 219.338 88.9216C217.777 92.0662 216.088 95.1434 214.38 98.2063C213.54 99.7105 213.25 99.7691 211.526 99.6221L211.52 99.6195Z" fill="#95D32A"/>
<path d="M312.585 46.4287C313.33 46.5315 313.949 46.5757 314.545 46.7149C314.807 46.7763 315.024 47.0359 315.26 47.2046C315.1 47.4125 314.982 47.6975 314.771 47.8128C314.069 48.1974 313.319 48.494 312.611 48.8718C311.817 49.2953 311.076 49.8261 310.263 50.2058C309.233 50.69 308.105 50.9767 307.106 51.5139C303.515 53.4388 299.944 55.4033 296.402 57.4164C294.892 58.2759 293.459 59.2806 292.017 60.253C291.592 60.5403 291.248 60.9477 290.882 61.2861C291.474 62.555 291.362 62.7731 289.946 62.8322C289.224 62.8617 288.469 62.8127 287.775 62.6256C287.333 62.5075 286.674 62.0981 286.648 61.774C286.606 61.2613 286.86 60.5224 287.251 60.2092C289.781 58.1956 292.379 56.2843 295.319 54.8639C297.355 53.8789 299.276 52.6573 301.28 51.6025C302.823 50.7919 304.444 50.1266 305.973 49.2919C306.519 48.9955 307.056 48.4732 307.33 47.919C309.408 43.7431 311.592 39.6054 313.382 35.3049C314.318 33.056 314.669 30.53 313.308 28.1168C312.531 26.7382 311.039 25.9283 309.217 26.3415C306.368 26.9886 303.692 28.1044 301.343 29.8551C299.252 31.4142 297.257 33.1011 295.238 34.7545C294.478 35.3764 293.834 36.0583 294.509 37.1718C294.572 37.2758 294.13 37.9174 293.902 37.9304C293.143 37.9737 292.353 37.9408 291.617 37.7608C290.353 37.4514 289.883 36.0705 290.681 35.0392C291.379 34.1345 292.151 33.2821 292.94 32.4563C293.523 31.8474 294.202 31.4229 295.055 32.0671C295.129 32.1215 295.304 32.0411 295.618 31.9973C294.529 30.8121 295.551 30.3525 296.249 29.8582C299.8 27.3429 303.501 24.9828 307.933 24.6122C310.55 24.3943 313.384 24.2426 315.689 26.0195C316.934 26.9796 317.905 28.2142 317.911 29.9528C317.913 30.6474 318.077 31.3405 318.092 32.0362C318.146 34.8751 317.165 37.4192 315.862 39.8864C314.757 41.9764 313.744 44.1138 312.592 46.4292L312.585 46.4287Z" fill="#95D32A"/>
<path d="M108.624 104.941C109.093 102.611 109.578 100.284 110.016 97.9487C110.091 97.5493 109.972 97.1133 109.944 96.6951C109.536 96.901 109.042 97.027 108.738 97.3245C105.607 100.39 102.508 103.483 99.4038 106.574C99.1297 106.847 98.9157 107.168 98.6582 107.455C98.3593 107.788 98.0481 108.38 97.732 108.384C96.7661 108.392 95.793 108.19 94.8399 107.988C94.7835 107.975 94.7304 107.109 94.9518 106.859C96.8862 104.673 98.7883 102.45 100.886 100.406C104.879 96.5126 108.906 92.6384 113.089 88.9288C116.263 86.1143 119.365 83.1795 123.208 81.1036C124.636 80.3322 126.125 80.5784 127.578 80.88C128.327 81.0347 128.029 81.5199 127.575 81.8384C125.154 83.5375 122.682 85.174 120.332 86.9558C118.832 88.0915 117.375 89.3326 116.176 90.7362C115.528 91.4944 115.39 92.6788 115.152 93.6992C114.619 95.9744 114.158 98.268 113.687 100.556C113.533 101.299 113.45 102.055 113.307 102.801C113.148 103.642 112.899 104.472 112.801 105.321C112.712 106.088 112.689 106.882 112.797 107.646C112.883 108.262 112.788 108.589 112.09 108.615C112.017 108.618 111.944 108.618 111.871 108.623C109.067 108.799 108.432 108.194 108.659 105.574C108.675 105.367 108.692 105.161 108.709 104.954C108.681 104.95 108.652 104.945 108.624 104.939L108.624 104.941Z" fill="#95D32A"/>
<path d="M46.4535 109.631C45.9643 110.069 45.6924 110.325 45.4092 110.566C41.8119 113.61 38.1857 116.62 34.6249 119.707C32.4098 121.629 30.2583 123.625 28.1418 125.655C26.005 127.703 23.9518 129.838 21.8576 131.932C20.0046 133.784 18.0985 135.589 16.2983 137.491C13.8982 140.026 11.5649 142.621 9.2297 145.213C7.75948 146.846 6.348 148.533 4.88756 150.174C4.29541 150.841 1.944 151.048 1.25751 150.467C1.07011 150.308 0.965937 149.724 1.1018 149.558C2.5954 147.717 4.12851 145.908 5.67928 144.116C6.70848 142.927 7.74764 141.744 8.84345 140.617C11.4221 137.962 14.0143 135.321 16.6415 132.716C19.4847 129.895 22.3474 127.093 25.2527 124.336C27.1249 122.559 29.0826 120.872 31.0168 119.162C33.3442 117.104 35.6583 115.029 38.0339 113.028C39.5306 111.769 41.071 110.543 42.704 109.474C43.7822 108.769 45.0243 109.08 46.4554 109.633L46.4535 109.631Z" fill="#95D32A"/>
<path d="M74.1577 119.072C72.3376 119.8 70.539 119.275 69.3081 117.575C68.116 115.93 67.0277 114.207 65.9622 112.481C65.6003 111.896 65.2673 111.743 64.7667 112.198C63.5645 113.29 62.3814 114.401 61.2058 115.521C61.0421 115.676 60.873 115.923 60.8708 116.128C60.8663 117.272 60.1507 117.37 59.2698 117.213C58.501 117.075 57.5012 117.41 57.0991 116.43C56.7038 115.468 57.4287 114.749 58.0075 114.223C59.7655 112.634 61.6024 111.117 63.4965 109.685C64.2505 109.117 64.5533 108.651 64.3485 107.687C64.112 106.58 64.0891 105.415 64.1055 104.276C64.1184 103.382 64.6686 102.852 65.6429 102.88C66.3612 102.9 67.0853 102.876 67.7957 102.969C68.3053 103.037 68.5117 103.322 68.3015 103.921C68.0617 104.603 67.9699 105.348 67.9004 106.072C67.8222 106.879 68.2176 107.053 68.9906 106.809C70.42 106.357 71.854 105.847 73.3255 105.614C74.9858 105.349 76.7195 105.376 78.2279 106.262C78.7906 106.592 79.3024 107.218 79.5447 107.823C79.9988 108.952 79.0547 110.05 77.8134 109.998C77.3682 109.978 76.9218 109.945 76.4798 109.885C75.6941 109.778 75.2704 109.493 75.6867 108.6C76.0878 107.742 75.6585 107.146 74.6975 107.36C73.3384 107.662 71.9924 108.107 70.7162 108.66C68.4683 109.636 68.415 109.731 69.6214 111.808C70.9275 114.057 72.3986 116.212 73.7936 118.412C73.9146 118.603 74.0137 118.808 74.1594 119.077L74.1577 119.072Z" fill="#95D32A"/>
<path d="M157.384 102.151C157.046 102.1 156.699 102.087 156.373 101.992C155.424 101.72 155.272 101.079 155.854 100.245C158.326 96.701 161.53 93.8855 164.606 90.9452C167.338 88.3346 170.068 85.7218 172.88 83.2069C175.357 80.9948 177.935 78.9054 180.491 76.7866C181.618 75.8516 182.912 76.2388 184.14 76.4766C184.704 76.5862 184.677 77.0668 184.297 77.4318C183.872 77.8397 183.392 78.186 182.944 78.5688C180.106 80.9948 177.226 83.3709 174.45 85.8698C172.366 87.7433 170.385 89.7416 168.416 91.7452C165.696 94.5113 163.029 97.3347 160.342 100.133C160.222 100.257 160.071 100.376 160.007 100.527C159.819 100.98 159.786 101.71 159.482 101.857C158.862 102.153 158.101 102.133 157.399 102.246C157.394 102.213 157.386 102.183 157.38 102.151L157.384 102.151Z" fill="#95D32A"/>
<path d="M257.803 55.931C258.214 54.4503 259.487 54.3496 260.51 54.1896C262.201 53.9265 263.906 53.8569 265.637 54.344C268.104 55.0385 268.827 57.2909 268.519 59.4592C268.408 60.2502 267.95 61.0128 268.576 61.7842C268.643 61.8674 268.656 62.1018 268.594 62.1683C267.844 62.9522 267.209 64.0565 266.288 64.4192C264.252 65.2229 262.643 66.5812 260.941 67.8419C260.815 67.9359 260.685 68.1198 260.682 68.2647C260.667 68.8753 260.637 69.4192 259.821 69.4651C258.617 69.5347 257.345 69.922 256.343 68.9256C255.843 68.4285 256.164 67.8961 256.619 67.526C257.748 66.6074 258.882 65.6932 260.05 64.8248C261.054 64.076 262.117 63.4076 263.13 62.6718C263.364 62.5027 263.508 62.2076 263.695 61.9711C263.611 61.8722 263.529 61.7734 263.446 61.6745C262.801 62.1028 262.069 62.4441 261.529 62.9791C260.834 63.6693 258.445 63.8508 257.817 63.1161C257.409 62.6368 257.588 62.1992 258.061 61.9227C259.546 61.0515 261.051 60.2106 262.552 59.3673C262.818 59.2191 263.113 59.1245 263.391 58.9978C264.475 58.5052 264.724 57.928 264.34 56.8143C264.01 55.8624 263.408 55.5576 262.321 55.8515C260.608 56.3133 259.183 57.2733 257.953 58.5295C257.754 58.7322 257.532 59.0599 257.557 59.3054C257.655 60.2751 257.125 60.3976 256.373 60.3137C256.069 60.2808 255.744 60.3197 255.466 60.2233C254.891 60.0229 254.041 59.8861 253.862 59.4766C253.681 59.0649 254.071 58.2864 254.392 57.7867C255.163 56.5892 256.207 55.7659 257.805 55.9393L257.803 55.931Z" fill="#95D32A"/>
<path d="M283.672 135.386C286.206 135.223 288.74 134.915 291.274 134.937C293.757 134.959 296.26 134.262 298.731 134.872C298.776 135.015 298.818 135.158 298.863 135.301C298.424 135.533 297.999 135.924 297.54 135.971C295.548 136.181 293.546 136.273 291.55 136.44C289.331 136.626 287.113 136.807 284.901 137.059C282.175 137.37 279.457 137.756 276.735 138.096C276.444 138.131 276.115 138.149 275.849 138.049C275.533 137.933 275.267 137.68 274.98 137.488C275.186 137.218 275.338 136.858 275.609 136.691C276.834 135.929 278.195 135.352 279.314 134.468C281.376 132.839 283.133 130.929 283.536 128.159C283.704 127.011 283.549 126.799 282.414 126.872C281.313 126.946 280.303 126.807 279.625 125.851C279.332 125.436 278.947 124.851 279.047 124.455C279.157 124.028 279.764 123.463 280.189 123.43C281.812 123.307 283.489 123.153 285.067 123.439C286.309 123.662 287.207 124.723 287.516 126.075C288.176 128.957 286.842 131.197 285.152 133.306C284.662 133.918 284.06 134.445 283.509 135.011C283.563 135.133 283.619 135.259 283.672 135.381V135.386Z" fill="#95D32A"/>
<path d="M262.872 128.268C263.843 128.184 265.106 128.476 266.248 129.33C266.579 129.578 267.078 129.662 267.512 129.707C268.361 129.794 268.773 130.286 268.643 131.048C268.473 132.057 268.37 133.203 267.817 133.999C265.715 137.028 262.979 139.284 259.156 139.717C258.001 139.849 256.749 139.751 255.628 139.443C253.206 138.775 251.717 135.482 253.904 132.544C256.013 129.709 258.883 128.26 262.872 128.268ZM257.007 135.703C256.969 137.227 257.918 138.27 258.876 137.656C260.365 136.702 261.735 135.553 263.096 134.421C263.328 134.226 263.384 133.681 263.335 133.324C263.243 132.634 263.004 131.963 262.858 131.278C262.715 130.596 262.388 130.196 261.627 130.328C259.659 130.668 257.054 133.695 257.002 135.705L257.007 135.703Z" fill="#95D32A"/>
<path d="M217.37 68.4621C216.87 68.8772 216.653 69.1431 216.376 69.2759C213.322 70.7347 210.305 68.7217 210.605 65.2987C210.778 63.3023 211.281 61.3266 211.75 59.3711C212.046 58.1348 212.546 56.9487 212.968 55.7436C213.215 55.0411 213.687 54.6699 214.444 54.7422C215.05 54.8021 215.659 54.812 216.262 54.8822C217.246 54.9981 217.522 55.6299 216.961 56.4665C215.805 58.1873 215.224 60.121 214.945 62.1634C214.758 63.5326 214.483 64.9072 214.475 66.2805C214.465 67.8217 214.67 67.914 216.185 68.149C216.47 68.1933 216.747 68.2957 217.37 68.4621Z" fill="#95D32A"/>
<path d="M25.0633 101.289C24.6232 101.452 24.1769 101.768 23.7429 101.758C20.0579 101.673 16.842 103.434 13.646 105.25C13.22 105.491 12.7746 105.943 12.5833 106.421C12.2826 107.168 11.8548 107.38 11.2226 107.334C10.6856 107.292 10.1202 107.348 9.61803 107.177C9.22261 107.043 8.65161 106.67 8.61443 106.329C8.56898 105.89 8.87135 105.222 9.20885 104.921C11.9 102.519 15.0716 101.326 18.3199 100.586C20.1357 100.172 22.0548 100.384 23.926 100.386C24.3059 100.387 24.6795 100.714 25.0572 100.89C25.0586 101.022 25.0618 101.157 25.0633 101.289Z" fill="#95D32A"/>
<path d="M19.4469 113.064C19.8197 113.205 20.4305 113.435 21.0435 113.664C20.5276 114.003 20.05 114.416 19.4861 114.667C17.6937 115.465 16.0604 116.451 14.8669 117.922C14.4373 118.45 14.0018 118.67 13.3113 118.578C12.6952 118.495 12.0583 118.504 11.4576 118.368C10.7244 118.203 10.4371 117.663 10.9314 117.155C13.1159 114.91 15.4967 112.937 19.4492 113.062L19.4469 113.064Z" fill="#95D32A"/>
<path d="M160.731 71.4166C162.85 72.1678 164.975 72.9033 167.082 73.6953C167.342 73.7932 167.509 74.1877 167.719 74.4464C167.437 74.6162 167.141 74.9473 166.875 74.9256C165.834 74.8407 164.791 74.6998 163.767 74.4793C162.671 74.2434 161.599 73.8773 160.508 73.6001C159.878 73.4396 159.218 73.4066 158.608 73.1896C158.312 73.0842 158.101 72.6884 157.851 72.4218C158.133 72.1894 158.399 71.8093 158.704 71.7529C159.338 71.6374 159.994 71.6909 160.642 71.6764C160.672 71.5883 160.701 71.5025 160.731 71.4143L160.731 71.4166Z" fill="#95D32A"/>
</svg>
