<svg width="24" height="46" viewBox="0 0 24 46" fill="none" xmlns="http://www.w3.org/2000/svg">
<path d="M0.0859721 27.154C0.154055 27.5633 0.29022 28.0068 0.460428 28.382C0.834885 29.1324 1.51572 29.4735 2.33271 29.5758C3.76246 29.7805 5.09008 29.2347 6.31557 28.5525C7.94957 27.6316 9.31123 26.1989 10.1623 24.5275C10.6388 23.6066 11.0473 22.5492 11.1154 21.4918C11.1495 21.0142 11.0133 20.6731 10.775 20.4002C10.9452 20.2297 11.0133 20.025 10.7069 19.8204C10.7069 19.8204 10.6729 19.8204 10.6388 19.8204C9.48144 16.9892 8.46019 14.0558 7.03045 11.3611C6.48578 10.3037 5.90707 9.28038 5.49857 8.15475C5.22624 7.37022 4.98795 6.6198 5.46454 5.90349C6.45174 4.33443 8.69848 3.61812 10.3325 3.07236C11.7622 2.59482 13.192 2.25372 14.6558 1.91262C14.9281 5.05074 15.8132 8.12064 17.277 10.8835C16.0855 11.327 14.9621 11.8386 14.009 12.6573C12.5792 13.8511 11.4899 15.7272 11.7963 17.6373C11.8643 18.0466 12.0005 18.4901 12.1707 18.8653C12.5452 19.6157 13.226 19.9568 14.043 20.0591C15.4727 20.2638 16.8004 19.718 18.0259 19.0358C19.6599 18.1149 21.0215 16.6822 21.8726 15.0109C22.3491 14.0899 22.7576 13.0325 22.8257 11.9751C22.8598 11.4975 22.7236 11.1564 22.4853 10.8835C22.6555 10.713 22.7236 10.5083 22.4172 10.3037C21.8726 9.89436 20.8173 9.86025 20.1705 10.0308C18.8088 7.16556 18.0259 4.09566 17.8897 0.923433C17.8897 0.309454 16.6982 0.138905 16.2557 0.104795C16.0515 0.104795 15.3366 0.104795 14.894 0.241234C14.86 0.241234 14.826 0.241234 14.7919 0.207124C14.2813 0.0365737 13.0218 -0.202195 12.6473 0.309454C12.5792 0.411784 12.6133 0.480003 12.6133 0.548223C10.9452 0.957543 9.27719 1.33275 7.64319 1.87851C5.80495 2.49249 3.388 3.31113 2.26463 5.01663C1.10722 6.79035 2.60505 9.07572 3.45608 10.713C4.95391 13.6123 6.07728 16.6822 7.33682 19.6839C7.33682 19.7521 7.43894 19.8204 7.50703 19.8886C5.63474 20.4343 3.76246 21.0483 2.26463 22.2763C0.834884 23.4701 -0.254444 25.3462 0.0519297 27.2563L0.0859721 27.154ZM13.9068 18.6947C13.8388 18.6947 13.8047 18.6947 13.9068 18.6947ZM21.4641 11.3952C21.4641 11.3952 21.3279 11.3952 21.2939 11.3952C21.396 11.3952 21.5662 11.3952 21.6683 11.327C21.6002 11.327 21.5321 11.327 21.4981 11.3611L21.4641 11.3952ZM2.19655 28.2796C2.12846 28.2796 2.09442 28.2796 2.19655 28.2796ZM9.71973 20.9801C9.71973 20.9801 9.6176 20.9801 9.54952 20.9801C9.65164 20.9801 9.82185 20.9801 9.92397 20.9119C9.85589 20.9119 9.78781 20.9119 9.75377 20.946L9.71973 20.9801Z" fill="#333333"/>
<path fill-rule="evenodd" clip-rule="evenodd" d="M18.8932 28.2193C18.6213 27.8963 18.2264 27.5833 17.6477 27.3103C17.1481 27.0747 16.8413 26.5291 17 26.0001V26.0001C17.1587 25.4711 17.72 25.1636 18.2284 25.3795C19.1517 25.7718 19.8811 26.2874 20.4232 26.9312C21.1429 27.786 21.4605 28.7816 21.5436 29.8017C21.6885 31.5812 21.1173 33.6197 20.6068 35.4417C20.5584 35.6147 20.5104 35.7858 20.4637 35.9544C19.8859 38.0411 19.4799 39.7992 19.8017 41.17C19.9508 41.8053 20.2589 42.3528 20.8221 42.8177C21.2557 43.1756 21.8692 43.5078 22.7351 43.7744C23.2629 43.9369 23.6126 44.4594 23.5 45.0001V45.0001C23.3874 45.5407 22.8558 45.893 22.3253 45.7392C21.1842 45.4084 20.2643 44.9506 19.5489 44.3601C18.6239 43.5965 18.0961 42.6558 17.8546 41.627C17.3951 39.6697 17.9891 37.3965 18.5363 35.4207C18.5762 35.2765 18.616 35.1336 18.6554 34.992C19.1944 33.0551 19.6644 31.3662 19.5502 29.9641C19.4926 29.2576 19.2868 28.6868 18.8932 28.2193Z" fill="#333333"/>
</svg>
