<svg width="28" height="44" viewBox="0 0 28 44" fill="none" xmlns="http://www.w3.org/2000/svg">
<path d="M10.1167 18.4548C12.6017 19.0688 15.2229 18.9664 17.6739 18.216C18.8313 17.8408 19.9888 17.295 20.9419 16.5446C21.3504 16.2376 21.7249 15.726 21.827 15.2484C21.9632 15.1802 22.0653 15.112 22.0993 15.0438C22.2355 14.9756 22.3376 14.8732 22.3717 14.7368C24.1078 10.166 25.8099 5.62942 27.546 1.05868C27.8523 0.274152 24.5844 -0.544488 24.1759 0.478812C22.5759 4.74256 20.976 8.9722 19.342 13.2359C17.6739 12.5196 15.9038 11.9739 14.0315 11.9398C11.8528 11.9057 9.40184 12.5537 7.93805 14.2934C7.42743 14.9073 6.71255 16.1353 7.12105 16.988C7.56359 17.8749 9.19758 18.2501 10.0486 18.4548H10.1167Z" fill="#333333"/>
<path fill-rule="evenodd" clip-rule="evenodd" d="M9.2433 25.314C9.58957 25.0724 10.052 24.8722 10.6817 24.7583C11.2252 24.6601 11.6628 24.2124 11.6464 23.6604V23.6604C11.63 23.1083 11.1674 22.6661 10.6205 22.7431C9.62713 22.883 8.78911 23.1922 8.09889 23.6738C7.18248 24.3132 6.61801 25.1926 6.27372 26.1565C5.67316 27.8379 5.69726 29.9547 5.7188 31.8468C5.72084 32.0265 5.72286 32.2041 5.72433 32.3791C5.74241 34.5443 5.67955 36.3475 5.01396 37.5883C4.70549 38.1633 4.2661 38.6125 3.60178 38.9158C3.09041 39.1492 2.41177 39.3113 1.50637 39.3447C0.954464 39.3651 0.481469 39.7792 0.450334 40.3307V40.3307C0.4192 40.8821 0.841497 41.3599 1.39367 41.3486C2.58151 41.3244 3.58862 41.1203 4.43238 40.7351C5.52359 40.237 6.27685 39.4649 6.77639 38.5337C7.72681 36.762 7.74138 34.4125 7.72426 32.3624C7.72301 32.2128 7.72158 32.0644 7.72016 31.9175C7.70082 29.9071 7.68395 28.1541 8.15718 26.8293C8.39559 26.1618 8.74214 25.6637 9.2433 25.314Z" fill="#333333"/>
</svg>
