<svg width="228" height="264" viewBox="0 0 228 264" fill="none" xmlns="http://www.w3.org/2000/svg">
<path d="M78.1635 34.7563L92.5409 20.3866L94.1384 18.7899L102.126 15.5966L107.717 14H114.906H124.491L133.277 16.395L146.855 21.1849L155.642 26.7731L162.031 37.9496L164 48L160.434 57.1092V80.2605L182 113.79V145.723L178.805 166.479L166.824 178.454L158.836 192.824L126.5 202.5L118 203.5L106.918 204L84.5535 199.21L60.5912 168.076L55 136.143L62.1887 119.378L70.1761 65.8908L71.7736 48.3277L78.1635 34.7563Z" fill="white"/>
<path d="M106.72 42.9104C106.72 42.9104 106.686 43.2174 106.652 43.3879C106.822 43.7631 107.129 43.9678 107.537 44.036C107.81 44.0701 108.116 44.1042 108.388 44.1725C108.592 44.1725 108.763 44.1384 108.967 44.1384C109.069 44.1384 109.171 44.1725 109.273 44.2066C109.716 44.3089 110.192 44.343 110.669 44.3089C111.248 44.3089 111.826 44.2748 112.439 44.1384C113.12 44.036 113.767 43.8655 114.414 43.6267C115.026 43.4562 115.639 43.2174 116.184 42.9445C116.49 42.774 116.796 42.6034 117.103 42.4329C117.545 42.16 117.92 41.8189 118.192 41.3754C118.192 41.2049 118.226 41.0685 118.26 40.8979C118.09 40.5227 117.784 40.318 117.375 40.2498C117.239 40.1816 117.069 40.1475 116.933 40.1134C116.524 40.011 116.082 39.9769 115.639 39.9087C115.128 39.8746 114.652 39.9087 114.141 39.9087C113.597 39.9087 113.018 40.011 112.473 40.1134C111.792 40.2157 111.146 40.3863 110.499 40.625C109.886 40.7956 109.273 41.0343 108.729 41.3072C108.252 41.5119 107.844 41.7848 107.469 42.0918C107.163 42.2964 106.924 42.5352 106.72 42.8763V42.9104ZM110.567 44.0019C110.329 44.0019 110.124 44.0701 109.886 44.1042C109.682 44.1042 109.478 44.1042 109.273 44.1042C109.716 44.1042 110.124 44.1042 110.567 44.0019Z" fill="#333333"/>
<path d="M96.0993 46.4578C101.274 44.5135 101.001 39.397 102.329 37.6233C103.418 36.1907 105.086 34.4852 107.027 34.3828C108.967 34.2805 107.537 31.5858 105.222 31.4835C103.316 31.4153 98.7205 30.2214 93.444 35.8496C88.1676 41.4777 90.4824 48.5726 96.0652 46.4919L96.0993 46.4578Z" fill="#333333"/>
<path d="M119.554 34.1782C121.358 34.2805 122.788 35.4403 123.809 36.7365C125.069 38.3396 124.456 43.422 129.324 45.1957C134.566 47.1059 137.732 40.0792 132.762 35.031C127.792 29.9827 122.413 31.5176 120.609 31.5858C118.464 31.6541 117.716 34.0759 119.52 34.1782H119.554Z" fill="#333333"/>
<path d="M119.69 51.3698C119.077 51.438 118.499 51.6085 117.886 51.7791C117.92 51.7791 117.954 51.7791 117.818 51.7791C117.818 51.7791 117.818 51.7791 117.784 51.7791C117.682 51.7791 117.546 51.8473 117.443 51.8814C117.307 51.9155 117.137 51.9496 117.001 51.9837C117.103 51.9837 117.103 51.9837 117.171 51.9496C117.103 51.9496 117.069 51.9496 117.035 51.9837C116.899 51.9837 116.763 52.0179 116.66 52.052C116.66 52.052 116.626 52.052 116.592 52.052C116.456 52.052 116.32 52.052 116.218 52.0861C116.116 52.0861 116.048 52.0861 115.946 52.0861C115.741 52.0861 115.775 52.0861 116.082 52.0861C116.082 52.1543 115.231 52.0861 115.163 52.0861C115.095 52.0861 115.026 52.0861 114.958 52.0861C114.822 52.0861 114.72 52.0861 114.584 52.052C114.278 52.0179 114.005 51.9496 113.733 51.8814C113.665 51.8814 113.563 51.8473 113.495 51.8132C113.597 51.8132 113.563 51.8132 113.426 51.8132C113.29 51.745 113.12 51.7109 112.984 51.6426C112.609 51.4721 112.133 51.5062 111.758 51.5403C111.112 51.6085 110.431 51.7791 109.852 51.9837C109.376 52.1543 108.831 52.3248 108.456 52.6659C108.32 52.8024 108.014 53.1094 108.354 53.2458C109.988 53.9621 111.792 54.0645 113.563 53.928C115.605 53.7916 117.614 53.2799 119.554 52.6659C119.792 52.5977 121.733 51.8473 121.052 51.4039C120.745 51.1992 120.133 51.2674 119.826 51.3015L119.69 51.3698Z" fill="#333333"/>
<path d="M117.137 51.9835C117.545 51.8812 117.341 51.9153 117.137 51.9835Z" fill="#333333"/>
<path d="M63.5 54.5L69.5 53.5L71 60.5L69 72.5L66.5 119.5L72.5 124L85 128.5L98.5 131.5L112 133L129 131.5L140 129L151 123.5L172.5 103L154.5 71L164.5 55L168.5 55.5L180 59.5L189 63L203 71L214 80L222 90L226 103L223 120.5L216.5 136L201 153L186.5 161.5L168.5 168.5L148 173.5L130 176L114.5 176.5L100 176L81.5 174L68.5 171.5L56 168L50.5 166.5L44 163.5L37 161L29.5 156.5L22.5 153L16.5 147.5L10.5 141.5L5.5 133.5L2 122V108L8 93.5L17 81L28 71.5L40 64.5L53 58.5L63.5 54.5Z" fill="#F5D7ED"/>
<path d="M226.47 99.91C225.279 92.8848 221.364 86.644 216.565 81.4945C205.605 69.7632 190.492 61.9537 175.379 57.1111C172.213 56.088 169.048 55.2014 165.848 54.2806C168.299 47.119 168.503 39.5482 164.589 32.5913C162.376 28.6354 159.007 25.4979 155.16 22.9061C156.93 22.7697 158.666 22.4287 160.334 21.8148C164.078 20.4166 168.197 17.4497 167.584 12.914C167.074 9.19681 163.568 6.67321 160.13 5.95706C157.543 5.41141 154.854 5.54783 152.267 5.95706C149.306 6.4345 145.698 7.42347 143.621 9.77656C142.43 11.1407 141.749 12.8799 141.988 14.6873C142.09 15.4035 142.396 16.0174 142.77 16.5971C141.817 16.222 140.864 15.8809 139.911 15.574C129.087 11.8909 117.514 11.0043 106.213 12.7094C105.226 12.8458 104.409 13.4597 103.967 14.1076C103.048 14.3463 102.129 14.6191 101.244 14.892C102.027 13.5279 102.537 11.9932 102.742 10.3563C102.946 8.61707 102.742 6.67321 102.061 5.07039C101.482 3.77449 100.835 2.7514 99.6441 1.93294C98.657 1.25089 97.4997 0.773448 96.3424 0.500626C90.7942 -0.897584 84.8716 0.671139 80.8211 4.72936C79.1532 6.40039 78.098 8.44655 77.4853 10.6973C76.9748 12.5048 76.7705 14.8238 77.4853 16.5971C78.1321 18.1317 79.3574 19.0184 80.753 19.7687C81.9784 20.4166 83.2378 20.9963 84.5653 21.4056C85.7906 21.7466 87.05 21.9853 88.3095 22.1558C80.3786 28.533 74.1496 37.5021 70.1672 46.4711C67.5462 52.3367 66.7974 58.3729 68.227 64.1363C60.0919 66.0119 25.5773 75.7653 20.914 106.833C15.6041 142.061 32.0105 150.757 46.4426 145.949C58.4921 141.925 65.1636 131.182 67.8866 121.872C88.9902 134.081 115.063 137.287 138.448 130.193C141.988 129.102 145.562 127.84 148.897 126.237C149.952 125.726 151.042 125.078 151.961 124.293C161.798 130.466 170.205 134.456 188.586 131.967C192.806 131.387 221.296 130.125 209.587 95.5448C208.498 92.3733 206.762 89.4746 204.481 87.0192C198.695 80.7784 185.897 68.9106 169.797 65.364C165.882 64.5114 164.589 61.2034 164.282 58.1683C164.657 57.3157 164.997 56.4973 165.338 55.6447C172.928 57.7591 180.485 60.0098 187.667 63.3178C194.678 66.5575 201.418 70.7181 207.409 75.5948C212.991 80.1304 218.165 85.621 221.092 92.3051C223.985 98.921 224.087 106.321 223.032 113.381C221.024 126.988 213.774 139.264 203.665 148.472C193.079 158.123 179.872 163.818 166.325 167.911C137.529 176.607 106.179 177.801 76.6344 172.378C62.2703 169.752 48.1445 165.455 35.0058 159.044C21.5608 152.462 8.69437 142.845 4.50769 127.704C0.423119 112.937 5.93729 96.9431 15.3318 85.3822C25.5773 72.7642 40.52 64.8865 55.3946 59.1573C59.1729 57.6909 63.0192 56.3608 66.8995 55.0649C68.0908 54.6557 65.2316 53.1552 64.3466 53.428C48.2466 58.8162 31.9083 65.3299 19.11 76.8566C7.77535 87.0874 -0.393795 101.99 0.0146616 117.677C0.423119 133.672 11.043 146.665 24.2157 154.713C32.453 159.76 41.405 163.75 50.5953 166.888C46.2384 171.73 27.1771 193.181 22.2415 204.98C16.6593 218.315 30.3766 231.069 36.1971 236.048C42.0177 240.993 59.4111 243.175 92.0536 224.896C120.373 209.039 119.693 204.81 119.012 203.957C124.696 203.412 130.312 202.354 135.725 200.683C132.014 202.013 128.236 202.934 124.458 203.309C124.458 203.309 110.128 231.205 112.919 244.13C115.744 257.055 118.467 260.022 133.444 262.614C141.817 264.08 159.994 262.682 169.082 246.176C178.17 229.671 188.926 201.502 188.143 184.416C187.326 167.331 184.535 164.023 184.535 164.023C184.535 164.023 184.433 164.023 184.331 164.023C189.879 161.602 195.223 158.737 200.091 155.259C211.698 146.938 221.024 135.07 224.904 121.19C226.776 114.438 227.661 106.867 226.504 99.9441L226.47 99.91ZM72.5498 54.4511C73.8433 45.5503 79.7659 36.82 85.5183 30.1018C88.1393 27.0325 91.0325 24.2361 94.2661 21.9512C95.1851 21.7466 96.0701 21.4056 96.819 20.8258C97.1934 20.5189 97.6359 20.1097 97.9422 19.6322C101.142 17.9271 104.648 16.7335 108.46 16.3584C109.311 16.2902 109.992 15.8809 110.468 15.3694C125.513 14.2099 141.715 17.8589 153.594 27.2712C168.571 39.139 161.832 59.3619 150.497 71.2637C142.566 79.5848 132.219 84.7684 121.19 86.2689L120.646 86.3371C115.778 86.951 110.775 86.8487 105.805 85.9961C90.3858 83.302 69.8268 73.4122 72.5498 54.4511ZM145.085 125.316C142.498 126.442 139.843 127.465 137.154 128.318C131.538 130.125 125.751 131.284 119.897 131.864C108.154 133.024 96.2063 131.728 84.9737 128.011C79.1532 126.101 73.605 123.441 68.3631 120.235C68.7035 118.939 68.9418 117.677 69.112 116.45C70.5416 106.321 87.4245 94.2489 107.167 95.2038C126.909 96.1587 135.112 98.58 135.112 98.58C135.112 98.58 130.278 110.652 144.268 119.349C146.072 120.474 147.74 121.531 149.374 122.588C148.216 123.816 146.412 124.703 145.051 125.282L145.085 125.316ZM85.9608 194.613C76.9067 189.089 70.3033 180.767 65.6061 171.355C95.968 178.96 128.645 179.335 159.109 172.14C164.453 170.878 169.865 169.377 175.175 167.57C164.793 184.553 146.276 197.512 126.772 200.854C113.055 203.207 98.0443 201.979 85.9268 194.613H85.9608Z" fill="#333333"/>
</svg>
