<svg width="328" height="212" viewBox="0 0 328 212" fill="none" xmlns="http://www.w3.org/2000/svg">
<path d="M285 176L272 186L203 191.5L152.5 209.5H135H121.5L109 208L98 205L86 198.5L76.5 192.5L66.5 182L60 171.5L78.5 103.5L84.5 92V86.5L82 62.5L126.5 60.5L175.5 72L195.5 81L206 86.5L207.5 84.5L209.5 74L214 62.5L219 56L225.5 51.5L232.5 50L244 51.5L259.5 62.5L276 83L290 95.5L304.5 106L306.5 117V135.5L303.5 145.5L301 155.5L296.5 161L290 170.5L285 176Z" fill="white"/>
<path d="M319.671 85.5692C314.899 84.2404 309.309 85.1263 304.843 87.0003C300.48 88.8061 296.526 92.6563 296.696 97.5628C295.401 96.4384 294.106 95.314 292.708 94.1896C288.038 90.3735 283.266 86.6936 278.426 83.0478C278.63 82.8434 278.766 82.639 278.732 82.4005C277.778 74.4275 273.21 67.7833 269.563 60.8325C267.654 57.1867 266.12 53.4728 265.2 49.4522C264.313 45.4998 263.666 41.377 261.245 38.0038C259.268 35.2439 256.303 33.6084 252.86 33.6766C248.804 33.7447 245.804 35.7891 242.872 38.3786C241.782 39.3326 236.873 44.7161 235.85 48.2256C228.522 47.5101 221.227 50.1337 216.114 55.7557C209.126 63.422 207.456 73.7119 205.104 83.4908C197.298 79.4361 189.185 75.7904 180.902 72.826C181.038 68.6692 181.004 64.342 179.981 60.5258C177.595 51.4966 166.755 51.224 159.427 53.7454C154.688 55.3808 150.734 58.1748 147.36 61.6161C137.099 51.1899 125.816 41.8199 113.477 33.9492C106.796 29.6901 99.501 26.4191 92.9221 22.0578C86.6841 17.935 84.5026 12.0404 80.2416 6.31624C72.7083 -3.73519 58.9711 -0.907163 52.2218 8.59911C48.1313 14.3915 47.8246 21.2401 48.8813 28.0205C50.0743 35.7891 51.8469 43.8302 54.5398 51.1899C59.8915 65.8752 68.8224 81.7871 81.6051 91.1231C81.8437 91.2934 82.1164 91.3616 82.3891 91.4297C81.537 92.7245 80.7529 94.0192 80.003 95.3821C75.0944 94.5985 70.3904 90.4416 66.9476 87.2728C62.6866 83.3545 59.0393 78.7547 56.0737 73.746C50.5175 64.4101 47.3814 53.8817 45.7452 43.1828C45.268 40.1504 44.9612 37.1179 44.7226 34.0514C44.5522 31.8026 44.859 29.0427 44.1431 26.9302C42.8819 23.3185 38.9278 23.08 35.6554 23.4207C27.6108 24.2725 20.0434 28.6338 14.6576 34.5284C7.46513 42.3651 4.29501 52.7232 2.52246 62.979C0.886271 72.5194 0 82.2301 0 91.9067C0.0340874 102.197 1.0908 112.725 4.66997 122.436C8.01053 131.465 13.6349 139.302 19.8388 146.559C23.6907 151.057 27.7471 155.35 31.6672 159.779C35.3145 163.902 38.4164 168.706 42.541 172.352C47.3132 176.577 55.7328 180.939 62.5162 180.802C62.7207 181.143 62.9253 181.484 63.198 181.79C65.9931 185.129 69.2996 188.128 72.5379 190.99C83.8208 200.973 97.1831 207.788 112.079 210.411C128.339 213.273 145.11 211.57 161.335 209.287C185.06 205.982 209.228 206.016 233.021 203.086C242.975 201.859 252.724 199.576 261.689 194.908C270.483 190.274 278.255 183.937 285.345 177.02C300.616 161.994 311.388 141.857 309.581 119.846C309.377 117.427 308.866 115.246 308.184 113.202C312.513 112.418 316.637 110.613 319.944 107.614C323.284 104.582 326.182 100.255 326.932 95.7569C327.75 90.7142 324.409 86.7958 319.739 85.5011L319.671 85.5692ZM89.9224 198.145C83.2754 194.227 77.2079 189.32 71.7539 183.869C70.4245 182.54 68.8224 181.177 67.6975 179.644C65.959 177.259 65.7545 173.647 65.7204 170.819C65.6522 165.776 66.6067 160.768 67.902 155.929C70.3904 146.661 74.7877 137.803 75.8103 128.16C76.0148 126.15 76.2875 124.139 76.5943 122.129C78.2987 115.655 79.9689 109.147 81.6392 102.64C82.1505 101.311 82.6959 100.016 83.3095 98.7553C85.457 94.1214 88.2862 89.7942 91.9336 86.1825C93.9107 84.2063 96.0923 82.7412 98.4102 81.4464C98.5125 81.3783 98.6488 81.3101 98.7511 81.242C101.001 80.0154 103.353 78.891 105.739 77.6984C108.841 76.097 111.67 74.1208 114.67 72.4172C115.999 71.9061 117.363 71.4972 118.863 71.2587C125.169 70.1684 131.509 69.2143 137.883 68.3285C139.281 68.3285 140.644 68.4307 142.008 68.4988C140.849 70.2706 139.792 72.1105 138.838 73.9845C133.963 83.5589 130.589 93.5763 128.952 104.207C125.373 127.887 123.601 153.101 125.885 176.986C126.873 187.412 129.396 197.736 135.088 206.663C135.429 207.243 135.736 207.72 136.043 208.129C120.056 208.571 104.307 206.629 89.9224 198.179V198.145ZM302.764 140.085C300.514 149.183 296.253 157.803 290.561 165.231C285.516 171.807 279.516 178.008 272.801 183.29C272.699 183.29 272.631 183.29 272.528 183.29C246.588 188.775 222.011 172.931 202.445 157.837C197.945 154.362 193.582 150.716 189.628 146.661C185.401 142.334 182.879 136.746 181.208 130.988C177.97 119.812 178.345 108.023 179.265 96.5406C179.743 90.4075 180.39 84.2745 180.663 78.1414C180.663 77.7666 180.697 77.3918 180.731 77.017C188.503 79.9472 196.07 83.4567 203.365 87.3069C203.57 87.4091 203.842 87.4773 204.081 87.5114C200.945 98.9938 196.377 110.17 196.548 122.3C196.582 124.719 201.559 123.833 201.524 121.822C201.388 111.737 204.558 102.231 207.422 92.6904C210.319 83.1501 211.342 72.6216 215.739 63.6264C220.102 54.7335 228.181 49.0774 238.237 52.3484C241.918 53.5409 245.02 55.6875 247.645 58.3111C247.713 58.4133 247.815 58.5155 247.883 58.6177C250.474 61.8546 252.69 65.3982 254.667 69.044C254.769 69.2484 254.905 69.3847 255.007 69.5891C255.348 70.4069 255.723 71.2587 256.03 72.0764C256.201 72.5535 256.61 72.826 257.087 72.9623C257.087 72.9623 257.087 72.9964 257.155 73.0305C265.541 79.0954 273.926 85.1603 282.073 91.5319C289.572 97.3924 299.628 103.73 302.968 113.1C305.968 121.516 304.843 131.567 302.764 140.085Z" fill="#333333"/>
<path d="M226.613 58.5135C227.056 58.7178 227.738 58.7178 228.249 58.6497C228.897 58.5475 229.578 58.3772 230.124 58.0366C230.396 57.8663 230.601 57.662 230.771 57.4576C230.806 57.4576 230.874 57.4576 230.942 57.4576C231.999 57.2873 233.021 56.9467 233.942 56.4018C234.18 56.2656 234.385 56.1293 234.555 55.925C234.726 55.7887 234.828 55.6184 234.896 55.4141C234.896 55.3119 234.896 55.1757 234.896 55.0735C234.794 54.8351 234.657 54.6648 234.385 54.5626C232.748 53.8814 230.806 54.1539 229.237 54.801C227.908 55.38 226.681 56.2996 226.136 57.696C225.999 58.0707 226.34 58.4113 226.613 58.5475V58.5135Z" fill="#333333"/>
<path d="M239.941 80.8221C239.634 80.788 239.293 80.8221 238.952 80.8561C238.884 80.8561 238.85 80.788 238.782 80.7539C237.384 80.3112 235.816 80.6177 234.521 81.2648C233.158 81.946 232.408 83.0359 231.521 84.1939C230.158 86.0331 228.658 85.8969 226.579 86.4078C224.09 87.0208 221.943 88.4513 221.125 90.9717C220.477 92.9811 220.511 95.5356 221.466 97.4088C223.715 101.905 230.26 101.871 234.419 100.644C238.952 99.2821 243.281 96.1486 245.565 91.9594C246.827 89.6434 247.201 86.9868 245.906 84.6026C244.645 82.3547 242.429 81.1286 239.907 80.788L239.941 80.8221Z" fill="#333333"/>
<path d="M277.028 114.098C271.335 111.067 263.257 112.804 257.905 115.801C251.974 119.139 247.917 125.678 249.179 132.592C249.315 133.341 250.27 133.545 251.292 133.409C252.349 135.827 253.712 137.905 256.371 138.859C259.303 139.949 262.575 139.642 265.575 139.063C271.915 137.871 278.426 134.601 281.187 128.471C283.471 123.396 282.175 116.823 276.994 114.064L277.028 114.098Z" fill="#333333"/>
</svg>
