<svg width="331" height="368" viewBox="0 0 331 368" fill="none" xmlns="http://www.w3.org/2000/svg">
<path d="M160 55L182 51.5L190.5 52.5L216 63L234.5 83L240.5 92.5L244.5 91.5H260L272.5 99L280.5 110.5L281 126.5L278.5 138L268.5 152L256 157C254.333 157 251.1 157.1 251.5 157.5C251.9 157.9 252 162.333 252 164.5H253L264 185.5L279 207.5L287.5 230.5L290 262.5L282.5 292L269 317L253.5 333.5L239.5 339.5L235 341L232.5 352.5L220 365.5L214 367L202.5 364L195.5 360L185 362L178.5 360.5L172 353.5L166.5 356L158.5 357L154 356L146 351L140 341L134.5 339L130.5 345.5L121 352L112 353L104.5 349L100.5 353L92.5 356L83 355L79.5 344L68 342L62.5 332.5L66.5 323L51.5 308L44.5 296L43.5 288.5L56 283.5L71 271L74 277.5L88 294L104.5 304L134.5 313L167 316.5H181.5L199 313L203.5 314.5L212.5 325L227 330.5L236.5 326.5L247 309.5L252 273L239 270.5L233.5 263L237.5 258L236.5 254.5L234.5 250.5L239 242L241.5 232.5L252 230L256 223.5L259.5 213.5L255.5 211.5L236.5 213.5L222.5 188L206 175.5L171.5 166.5L145.5 165.5L125.5 169L106 178L89 193L78.5 211.5L73 223L67 218L46 201.5L44 214.5L40.5 218L34.5 218.5L28 211.5L27 199L28.5 185.5L37.5 175L45.5 167.5L56.5 163L73 164L78 161L89.5 139L75.5 128.5L71 114.5L74 100.5L81 84.5L96 75L111 73L122.5 77.5L129 73L143 62.5L160 55Z" fill="#9D7E61"/>
<path d="M166 88L176.5 99.5L187.5 95L196 93.5L210 95L223.5 99.5L231.5 110L232.5 121L224 139L213 150.5L200 154H190.5L177 148L167.5 137L159.5 145L148.5 152L137 155L125 152L115 142.5L110 124L116.5 102.5L128.5 91.5L140 86.5L152.5 85L166 88Z" fill="white"/>
<path d="M195.5 3.5C204 4.5 215.5 8 221.5 9.5L228 11L246.5 17L271 30.5L293.5 48.5L313 69.5L324.5 100L328.5 134.5L321.5 160L313 173.5L291.5 186L274.5 187L266.5 188C262.167 181.5 253.2 167.8 252 165C250.8 162.2 251.167 158.833 251.5 157.5L262.5 154.5L273 148L279.5 134.5L281.5 121.5L278.5 104.5L266.5 95.5L256 90L240 92L230.5 76.5L213 61L196.5 54L173.5 51.5L152.5 57L128 73L123 77.5L120 76.5L112.5 74H102L90 79L79 87L71.5 110L72 120L78.5 132.5L90 139L78.5 161L71.5 164C69.8333 164.167 65.5 164.2 61.5 163C57.5 161.8 52.1667 155.833 50 153L37 134L31 115.5L32 94.5L38 76L44.5 64L56.5 49L69.5 35L84.5 22.5L98 14.5L118.5 7L124 5.5L141.5 2.5L158 1L175.5 2C179.333 2.16667 188.7 2.7 195.5 3.5Z" fill="#F4D6AE"/>
<path d="M110 174L134 166L151.5 165L181 168L204 174L227.5 193.5L238.5 214L251.5 211.5L260.5 212.5L252 229.5L246.5 229L239.5 234.5V243L235 248.5L238.5 256L234 259.5L235 269.5L239.5 270.5L250 273L251.5 278.5L248.5 302L245 317L232 329L223 330.5L208.5 320.5L200.5 313L179.5 317L159 315H142.5L110 306L94.5 300L74.5 278.5L70.5 271L71.5 267.5L80 244.5L75 222.5L77.5 212L92.5 190.5L110 174Z" fill="#E5E5E5"/>
<path d="M64 212.5L46.5 203.5L43.5 215L39.5 218L33.5 217L28 214.5L12.5 231.5L5 250L7 272L30 289.5L48 287.5L68 274.5L74.5 259L79 244.5L71.5 225.5L64 212.5Z" fill="#D1C9B0"/>
<path d="M224.838 98.1106C210.567 90.5217 193.385 90.619 178.483 96.2134C171.784 83.5653 152.66 81.2789 139.943 84.4895C123.342 88.6732 110.479 102.538 108.441 119.661C107.47 127.688 107.324 138.001 111.935 145.006C115.867 150.99 122.808 154.59 129.798 155.708C143.729 157.946 156.397 150.698 165.863 141.066C181.444 163.346 216.489 159.211 229.741 135.909C236.585 123.893 238.963 105.651 224.838 98.1593V98.1106ZM224.887 133.72C219.693 144.276 209.548 152.741 197.316 152.449C186.007 152.157 175.328 145.833 169.94 135.861C168.824 133.769 164.94 135.277 163.824 136.639C155.184 147.001 142.078 156.39 128.099 150.747C114.896 145.444 113.246 131.531 114.751 118.834C116.304 105.554 124.701 93.4406 137.37 88.7218C149.942 84.0031 170.231 87.4083 173.92 102.489C174.454 104.678 180.813 103.024 180.23 100.786C180.085 100.202 179.891 99.6673 179.696 99.1322C180.036 99.1322 180.424 98.9863 180.764 98.889C193.287 94.1703 207.898 94.8027 219.79 101.224C231.731 107.645 230.08 123.115 224.887 133.769V133.72ZM239.254 84.3436C241.196 87.4083 234.497 90.0353 232.798 87.4083C227.799 79.5762 222.411 71.9387 214.79 66.4416C207.073 60.8472 197.753 57.2473 188.482 55.4474C177.949 53.4042 167.998 54.0853 158.096 58.2689C152.903 60.458 148 63.2309 143.195 66.1983C138.875 68.8253 134.069 71.3549 130.623 75.0521C128.487 77.3385 121.74 76.2682 124.75 73.0575C128.876 68.6793 134.264 65.7119 139.36 62.5985C144.651 59.3391 150.087 56.2744 155.864 53.8907C166.105 49.6584 176.541 48.2477 187.463 49.853C198.238 51.4097 209.111 55.0582 218.237 61.0904C227.168 66.9767 233.527 75.4412 239.206 84.3436H239.254ZM271.63 143.547C276.921 136.104 277.989 127.299 277.261 118.348C276.484 109.202 271.97 101.37 263.961 96.6999C257.02 92.6136 248.768 91.4947 241.099 93.9757C240.031 94.3162 237.458 94.4621 237.07 93.0027C236.633 91.446 238.963 90.4731 240.079 90.1326C249.302 87.1165 259.689 87.8948 268.329 92.419C278.037 97.5755 283.716 106.624 284.396 117.569C285.075 128.32 283.231 138.244 276.096 146.563C269.786 153.957 260.854 158.627 251.243 159.795C250.03 159.941 248.088 159.698 248.137 158.092C248.234 156.535 250.904 155.757 252.117 155.563C260.029 154.59 267.067 149.92 271.63 143.449V143.547ZM80.4819 259.618C83.6855 252.37 86.3551 243.954 84.365 236.024C83.2001 231.452 80.8702 227.025 78.0549 222.938C78.5888 222.452 78.9771 221.82 78.9286 221.09C78.5888 211.944 84.1223 204.55 89.6073 197.739C94.6068 191.561 100.189 185.772 106.499 180.956C108.538 179.399 110.576 178.037 112.663 176.821C115.43 178.135 118.294 179.205 121.061 180.129C135.186 184.799 150.427 187.426 162.902 196.085C166.397 198.518 169.163 201.242 171.542 204.161C165.28 212.869 161.106 223.036 159.504 233.787C159.213 235.635 166.202 234.37 166.445 232.619C167.707 224.106 170.668 216.079 174.842 208.928C178.289 214.766 180.376 221.382 181.929 228.679C183.191 234.906 182.512 240.986 181.395 247.165C180.667 251.348 179.454 263.85 173.532 264.24C171.59 264.385 165.911 267.499 170.522 267.207C185.278 266.234 187.608 252.759 189.162 240.5C189.307 239.235 189.404 238.019 189.453 236.851C190.132 237.143 190.763 237.435 191.346 237.678C194.452 239.041 197.753 239.965 201.102 240.5C204.403 241.035 207.801 241.181 211.15 240.889C214.742 240.597 218.625 239.819 221.44 237.387C222.46 236.511 222.363 235.635 220.906 235.489C219.402 235.295 217.12 235.781 215.955 236.803C214.742 237.873 213.091 237.727 211.393 237.727C208.966 237.727 206.49 237.484 204.063 236.997C201.636 236.462 199.258 235.684 197.025 234.662C195.18 233.835 192.22 232.765 191.831 230.527C191.686 229.798 190.521 229.652 189.21 229.798C188.919 227.414 188.531 225.079 187.851 222.647C185.909 215.69 184.405 209.171 179.891 203.285C179.648 202.993 179.405 202.75 179.162 202.458C186.443 192.777 196.297 185.334 207.655 181.248C219.79 188.496 229.207 199.15 232.798 214.231C232.313 214.474 231.779 214.668 231.342 214.912C229.11 216.031 225.712 217.539 226.731 220.603C228.284 225.273 232.944 228.095 234.837 232.522C235.031 232.96 235.323 233.3 235.662 233.543C234.934 235.003 234.643 236.608 235.128 238.262C235.468 239.43 236.099 240.451 236.876 241.376C233.963 242.592 231.488 244.489 230.517 247.7C229.886 249.694 230.08 251.932 231.391 253.635C232.362 254.851 233.866 255.337 235.128 256.067C232.75 257.915 229.935 259.229 229.255 262.683C228.721 265.456 229.983 267.839 231.925 269.737C226.052 279.417 218.576 287.931 211.004 296.298C207.364 300.287 203.044 304.179 200.034 308.654C199.452 309.53 199.112 310.405 198.869 311.232C198.772 311.232 198.675 311.232 198.578 311.33C186.977 315.805 174.503 314.881 162.368 314.005C150.427 313.13 138.389 312.059 126.74 309.238C107.664 304.665 85.7241 294.303 77.1326 275.38C76.2104 273.337 69.3178 275.574 70.0944 277.277C79.7052 298.487 104.752 309.043 126.109 313.47C139.36 316.194 153.048 317.265 166.542 317.946C177.512 318.481 188.336 317.946 198.772 314.443C199.258 316.632 200.762 318.675 202.753 320.475C210.179 327.286 221.052 335.021 231.634 332.151C241.147 329.572 245.613 319.892 248.671 311.427C252.894 299.606 255.078 287.249 255.321 274.747C257.942 273.969 260.466 272.801 262.747 271.196C264.058 270.272 264.349 268.375 263.087 267.304C261.631 266.137 259.398 266.721 258.039 267.645C253.185 271.05 246.487 271.196 241.244 268.52C239.4 267.548 235.08 264.726 236.633 262.099C237.216 261.126 238.526 260.494 239.4 259.91C240.71 259.034 241.875 258.061 242.895 256.845C243.477 256.116 243.817 254.851 243.137 254.072C242.021 252.808 240.808 252.078 239.351 251.348C238.332 250.813 237.361 250.327 237.41 249.013C237.41 245.851 241.584 245.462 243.865 245.073C245.856 244.732 247.991 241.959 245.856 240.354C244.205 239.138 240.371 236.17 242.992 234.03C245.467 232.035 249.981 232.035 252.942 232.181C254.641 232.279 256.777 231.743 257.505 229.944C257.99 228.727 257.311 227.511 256.194 226.976C258.524 223.911 260.709 220.652 261.874 217.003C262.505 214.96 263.67 211.701 261.582 210.144C260.514 209.366 259.155 209.317 257.845 209.269C256.437 209.269 255.03 209.22 253.622 209.269C248.962 209.463 244.254 210.339 239.788 211.701C236.196 197.156 227.508 186.551 216.247 179.01C221.295 178.037 226.537 177.648 231.973 178.086C233.478 178.183 235.759 177.794 236.924 176.773C237.895 175.946 237.992 175.216 236.487 175.119C228.673 174.486 220.761 175.216 213.092 177.016C196.151 166.897 174.309 162.908 155.135 162.47C139.7 162.13 125.721 164.076 112.712 170.74C108.149 167.481 104.703 163.151 103.538 157.217C103.247 155.66 96.1601 157.265 96.4999 159.114C97.7619 165.73 102.033 170.351 107.324 173.805C105.48 174.973 103.684 176.189 101.888 177.551C94.6554 183.097 88.2482 189.81 82.6176 197.01C78.2005 202.653 73.929 208.782 72.4729 215.787C72.036 215.301 71.5991 214.766 71.1623 214.328C67.4733 210.339 63.2989 207.128 58.4935 205.036C61.4544 204.161 64.5609 202.458 65.6773 199.393C66.7937 196.377 66.3084 192.485 65.7744 189.129C66.5025 189.178 67.2306 189.275 67.9102 189.226C69.9973 189.08 72.1816 188.594 74.0261 187.621C77.1326 186.015 78.4917 183.194 79.5596 180.032C80.7245 176.481 81.7439 172.638 80.0935 169.086C79.0257 166.751 77.2297 164.951 75.0454 163.833C75.2881 163.638 75.4823 163.395 75.5308 163.151C75.5308 162.908 75.4338 162.762 75.3367 162.616C76.9385 163.297 80.4819 162.714 81.4526 161.206C86.1124 154.152 90.2868 146.806 94.0243 139.169C94.801 137.563 93.3448 136.834 91.9857 136.59C84.0738 135.277 78.0549 128.369 75.8706 120.926C73.298 112.121 75.1911 102.392 79.2198 94.3162C86.6949 79.333 104.46 69.0685 119.653 80.3059C121.837 81.9113 128.196 78.7979 125.138 76.5601C107.518 63.4741 83.6855 74.2251 73.7834 91.5433C68.2985 101.127 65.4832 113.532 69.2693 124.234C72.1331 132.261 78.3947 138.196 86.4037 140.531C82.9088 147.487 79.0742 154.2 74.8027 160.719C74.3174 161.4 74.4144 161.935 74.7542 162.276C74.0261 162.081 73.0553 162.227 72.6185 162.276C67.8616 162.908 62.9591 161.838 58.1537 162.033C53.591 162.227 49.1254 163.443 45.1452 165.73C41.6018 167.773 38.5924 170.546 35.68 173.416C32.622 176.481 29.5155 179.545 27.2827 183.34C22.8656 190.88 20.2445 207.031 25.778 215.058C23.7393 215.252 21.2638 215.982 19.8561 217.441C8.8377 228.873 -1.11288 243.419 0.100609 260.251C1.11994 274.309 11.7015 286.422 25.1955 290.022C39.8544 293.914 56.4549 288.271 67.4248 278.25C73.0553 273.142 77.4239 266.575 80.4819 259.618ZM232.75 219.971C232.75 219.971 232.653 220.068 232.604 220.117C232.313 220.166 232.41 220.117 232.75 219.971ZM248.185 275.769C247.991 284.914 246.778 294.011 244.399 302.865C243.137 307.584 241.584 312.254 239.594 316.681C238.041 320.135 236.099 323.735 233.041 326.07C225.809 331.469 214.693 322.178 209.403 317.508C207.849 316.146 205.422 314.151 205.616 311.865C205.762 309.676 208.335 307.681 209.742 306.173C212.946 302.622 216.198 299.119 219.402 295.568C225.712 288.514 231.731 281.217 236.876 273.288C240.419 275.088 244.302 275.866 248.234 275.818L248.185 275.769ZM250.418 214.62C251.583 214.522 252.797 214.425 253.962 214.425C254.447 214.425 254.981 214.425 255.466 214.425C255.369 215.106 255.127 215.885 254.981 216.42C254.544 217.782 253.913 219.144 253.234 220.409C251.972 222.695 250.37 224.787 248.719 226.879C246.001 227.122 243.283 227.706 240.856 228.873C239.934 227.268 238.914 225.76 237.701 224.301C236.924 223.376 236.196 222.501 235.468 221.576C235.08 221.041 234.692 220.506 234.352 219.971C234.303 219.874 234.158 219.63 234.061 219.387C234.4 219.193 234.789 219.047 235.128 218.852C235.225 218.852 235.274 218.803 235.371 218.755C237.021 219.095 239.157 218.317 240.079 216.955C241.487 216.468 242.846 216.031 244.302 215.69C246.292 215.204 248.331 214.912 250.37 214.717L250.418 214.62ZM157.271 167.919C172.998 168.503 190.327 171.859 204.597 179.448C197.753 181.929 191.297 185.334 185.521 189.761C181.978 192.437 178.774 195.502 175.862 198.81C166.542 189.761 153.728 185.334 141.399 181.686C134.458 179.643 125.575 177.648 118.148 173.951C130.235 168.405 143.195 167.384 157.271 167.919ZM30.9231 190.637C33.0589 181.783 39.0778 175.313 45.7762 169.476C47.2809 168.162 48.9312 166.897 50.7272 166.022C52.9115 164.951 55.2899 164.951 57.6683 165.049C60.5807 165.146 63.4931 165.341 66.3569 165.341C66.454 165.487 66.5996 165.632 66.9394 165.73C73.3951 167.578 74.6571 174.048 72.9097 179.789C72.5214 181.053 72.1331 182.318 71.6477 183.486C71.405 184.021 71.1623 184.605 70.8225 185.091C70.6284 185.432 70.3371 185.772 70.0459 186.015C67.1335 185.821 64.3182 185.772 61.4544 186.599C60.6292 186.842 58.1052 187.572 58.2994 188.788C58.6391 191.415 58.9304 193.994 58.9789 196.669C58.9789 198.42 59.076 201.631 57.1829 202.507C56.1151 202.993 53.591 201.874 52.4261 201.437C51.1155 200.901 48.64 200.172 48.0575 198.615C48.0575 198.372 47.9605 198.08 47.9119 197.837C47.6207 196.037 41.0193 197.837 40.8737 199.734C41.6503 204.112 42.427 209.512 40.8737 213.841C40.5339 214.814 39.5631 215.593 39.2719 216.42C38.9807 216.42 38.738 216.42 38.4467 216.42C36.8935 216.225 35.3888 215.447 34.2238 214.474C27.7681 209.269 29.2242 197.691 30.9231 190.637ZM31.5056 285.401C20.0503 281.606 11.4588 271.001 10.0512 259.034C8.15815 242.835 17.6719 228.63 28.2535 217.441C30.6319 219.241 33.787 220.117 38.0584 219.436C41.8445 218.852 45.8733 217.052 47.5721 213.404C48.3002 211.847 48.64 210.096 48.7371 208.296C58.9304 211.944 67.085 222.744 71.7933 231.792C78.3947 244.44 73.3951 258.937 65.8715 270.126C58.2994 281.461 45.3879 290.022 31.5056 285.45V285.401ZM27.2827 113.434C25.9721 94.6567 33.253 77.8736 43.2036 62.3552C53.591 46.2045 67.0364 31.9023 83.103 21.3946C118.779 -1.85857 162.222 -3.07474 202.947 3.34664C204.791 3.63852 198.821 6.3141 197.171 6.07086C173.726 2.3737 149.99 0.525124 126.643 5.97357C88.4909 14.8759 59.3672 40.902 41.9416 75.5872C27.2341 104.873 34.2723 141.601 62.9106 159.308C63.8328 159.843 57.9596 162.762 56.2607 161.692C39.3204 151.184 28.6903 133.38 27.3312 113.434H27.2827ZM269.446 188.351C274.834 196.231 280.416 204.063 284.396 212.82C292.211 229.944 295.026 249.256 292.599 267.888C290.366 285.06 283.377 301.503 272.892 315.27C267.698 322.129 261.582 328.307 254.835 333.659C249.884 337.55 244.302 342.123 237.847 341.88C235.42 351.852 231.634 361.679 221.44 366.009C211.927 370.046 201.491 367.614 193.385 361.679C184.842 365.717 174.017 364.598 169.503 355.598C156.155 361.241 139.312 357.058 136.108 341.102C132.807 347.523 126.886 352.242 119.896 354.431C116.11 355.647 111.644 356.231 107.712 355.355C106.014 354.966 104.072 354.188 102.956 352.728C98.8297 356.133 93.5875 358.128 88.2482 358.323C84.5592 358.468 80.2392 357.787 77.9578 354.528C76.1618 351.998 76.0162 348.739 76.2589 345.674C70.8225 346.258 65.0949 344.701 61.7457 339.934C57.911 334.486 59.076 327.286 63.3475 322.567C63.2018 322.567 63.0562 322.518 62.9591 322.47C57.3771 319.502 52.4746 315.367 48.5429 310.405C46.5528 307.924 44.8539 305.249 43.3978 302.427C41.9416 299.557 40.4369 296.395 41.262 293.087C41.7474 291.141 48.6886 290.12 48.2032 291.968C47.4265 295.082 49.3196 298.487 50.7272 301.162C52.1348 303.789 53.7852 306.319 55.6782 308.605C59.3672 313.081 63.9299 316.827 69.0266 319.648C69.2693 319.648 69.5605 319.648 69.8032 319.746C71.1138 320.183 71.7448 321.351 70.4827 322.372C66.8423 325.437 65.4832 330.642 67.1821 335.118C68.7353 339.204 74.0261 343.047 78.5403 341.393C79.7052 340.956 83.734 340.08 83.4913 342.512C82.9088 347.718 83.103 354.333 90.0441 354.188C95.2864 354.042 99.4122 350.442 101.791 346.015C102.664 344.361 106.256 343.388 107.858 344.361C110.431 345.966 108.101 348.496 109.848 350.393C111.693 352.388 116.158 351.512 118.391 350.782C124.216 348.934 128.633 344.069 130.477 338.329C131.303 335.848 138.341 334.972 137.516 337.502C137.467 337.696 137.321 337.939 137.273 338.134C139.312 337.258 142.612 336.821 142.758 337.745C144.408 349.128 157.562 361.095 168.921 352.874C169.746 352.29 174.988 349.858 175.619 351.658C176.541 354.236 177.9 356.523 180.036 358.323C181.104 359.198 182.22 359.831 183.482 360.317C185.812 361.241 189.598 360.998 191.637 359.393C192.802 358.42 196.734 356.766 198.141 357.933C204.791 363.479 215.567 368.782 222.751 361.387C228.284 355.647 230.032 347.474 231.682 339.934C232.022 338.475 237.118 337.55 238.332 338.231C238.963 338.085 239.594 337.988 239.982 338.085C243.38 338.766 249.593 332.54 252.117 330.351C255.515 327.48 258.67 324.367 261.631 321.059C266.582 315.465 270.902 309.335 274.494 302.816C282.503 288.174 286.58 271.537 286.386 254.851C286.143 237.922 281.532 221.09 273.086 206.447C264.737 192.048 253.331 179.691 247.749 163.784C247.021 161.692 254.01 159.649 254.787 161.887C257.845 170.643 262.699 178.378 267.844 185.918C269.155 184.994 271.242 184.216 272.358 184.41C294.249 188.545 313.228 174.973 320.266 154.444C330.46 124.72 320.898 86.7759 302.21 62.4525C292.065 49.1719 277.94 38.8588 263.961 29.9565C249.011 20.373 232.75 13.076 215.13 10.3031C211.198 9.67073 217.266 6.2168 219.45 6.55733C241.536 10.0113 261.388 20.373 279.396 33.2158C294.832 44.2586 308.374 56.3717 317.5 73.2521C326.334 89.5488 330.8 108.132 330.994 126.618C331.188 144.422 326.916 162.86 313.519 175.459C301.87 186.405 285.075 190.88 269.446 188.351ZM142.127 225.663C141.884 227.365 139.554 227.998 138.195 228.241C129.555 229.749 120.624 228.679 112.518 225.322C108.538 223.717 104.849 221.528 101.548 218.803C98.3444 216.176 94.9951 213.16 95.1408 208.734C95.1893 206.058 102.276 204.744 102.228 208.004C102.13 211.555 106.256 214.571 108.829 216.468C111.644 218.56 114.751 220.311 118.003 221.576C124.701 224.252 131.934 224.982 139.069 223.765C140.234 223.571 142.418 224.009 142.175 225.614L142.127 225.663ZM146.738 265.602C146.738 265.602 147.029 265.456 147.126 265.407C146.35 263.85 145.961 262.05 146.253 260.299C146.35 259.569 146.981 259.034 147.515 258.645C148.291 258.11 149.262 257.818 150.184 257.721C151.349 257.575 153.582 257.964 153.339 259.618C153.291 259.959 153.291 260.251 153.291 260.591C153.291 260.786 153.339 260.98 153.388 261.175C154.504 260.688 155.718 260.494 156.883 260.786C157.465 260.932 158.145 261.321 158.291 261.905C158.436 262.488 158.048 263.218 157.66 263.607C157.028 264.191 156.3 264.726 155.621 265.261C156.058 265.748 156.543 266.185 157.028 266.623C157.708 267.158 158.388 267.693 159.116 268.18C159.65 268.569 159.941 269.007 159.892 269.688C159.844 270.418 159.164 270.953 158.63 271.342C157.902 271.877 156.834 272.218 155.961 272.266C155.281 272.315 154.213 272.266 153.582 271.877C152.32 270.953 151.058 269.931 149.845 268.812C148.049 269.688 146.204 270.466 144.263 271.05C143.049 271.391 140.768 271.488 140.234 270.029C140.04 269.445 140.525 268.715 140.865 268.326C141.496 267.693 142.37 267.304 143.195 267.061C143.437 266.964 143.729 266.915 143.971 266.818C143.971 266.818 143.971 266.818 144.02 266.818C144.457 266.623 144.942 266.477 145.379 266.283C145.816 266.088 146.301 265.894 146.738 265.65V265.602ZM165.669 120.245C165.426 119.953 165.329 119.661 165.426 119.272L165.669 118.737C165.96 118.348 166.348 118.007 166.736 117.764C166.979 117.618 167.27 117.472 167.513 117.375C167.95 117.18 168.435 117.034 168.921 116.986C169.357 116.888 169.843 116.84 170.28 116.84C170.668 116.84 171.056 116.888 171.396 117.034C171.687 117.083 171.979 117.229 172.173 117.472C172.318 117.618 172.464 117.715 172.61 117.861C172.852 118.153 172.949 118.445 172.852 118.834L172.61 119.369C172.318 119.758 171.93 120.099 171.542 120.342C171.299 120.488 171.008 120.634 170.765 120.731C170.328 120.926 169.843 121.072 169.358 121.121C168.921 121.218 168.435 121.267 167.998 121.267C167.61 121.267 167.222 121.218 166.882 121.072C166.591 121.023 166.3 120.877 166.105 120.634C165.96 120.488 165.814 120.391 165.669 120.245ZM177.172 126.618C177.512 126.958 177.415 127.445 177.172 127.785C176.833 128.32 176.202 128.661 175.668 128.904C172.998 130.12 169.891 130.704 166.979 130.461C165.474 130.315 164.067 130.023 162.659 129.488C161.446 129.001 160.281 128.272 160.426 126.812C160.426 126.277 161.106 125.888 161.494 125.596C162.125 125.207 162.902 124.964 163.63 124.866C164.504 124.72 166.154 124.866 166.057 126.083C166.057 125.937 166.057 125.937 166.057 126.083C165.96 125.985 165.96 125.937 166.057 126.083C166.105 126.18 166.202 126.229 166.3 126.326C166.154 126.229 166.154 126.229 166.3 126.326C166.688 126.472 167.028 126.666 167.416 126.764C167.513 126.764 167.853 126.91 167.901 126.91C168.095 126.91 168.29 127.007 168.484 127.056C168.726 127.104 168.969 127.153 169.26 127.201C169.309 127.201 169.406 127.201 169.455 127.201C169.697 127.201 169.891 127.201 170.134 127.201C170.183 127.201 170.28 127.201 170.425 127.201C170.862 127.201 171.299 127.104 171.687 127.056C171.784 127.056 171.833 127.056 171.93 127.007C172.124 127.007 172.318 126.91 172.513 126.861C172.561 126.861 172.61 126.861 172.658 126.812C172.901 126.715 173.144 126.618 173.386 126.52C174.357 126.083 176.202 125.742 177.124 126.569L177.172 126.618ZM199.112 120.099C199.064 122.531 197.947 124.964 195.763 126.18C193.53 127.445 190.618 127.104 188.579 125.547C186.54 123.991 186.346 121.267 187.56 119.126C188.142 118.056 189.016 117.083 189.987 116.256C191.055 115.38 192.22 114.942 193.579 115.137C193.773 115.137 194.113 115.283 194.404 115.429C195.52 115.624 196.637 115.915 197.607 116.548C198.821 117.375 199.112 118.64 199.064 120.05L199.112 120.099ZM152.272 111.197C152.757 112.316 152.32 113.726 151.98 114.845C151.398 116.645 150.427 118.494 148.728 119.467C147.515 120.148 146.253 120.099 144.942 119.661C143.923 119.272 142.806 118.591 142.175 117.667C141.544 116.791 141.739 115.478 141.836 114.456C141.981 113.386 142.273 112.316 142.855 111.391C144.117 109.494 146.301 108.813 148.486 109.397C148.486 109.397 148.583 109.397 148.631 109.445C148.631 109.445 148.631 109.445 148.68 109.445C150.039 109.299 151.689 109.98 152.272 111.245V111.197ZM154.456 106.964C154.456 106.964 154.019 106.672 153.873 106.624C148.728 104.873 142.612 103.754 137.758 106.964C133.438 109.835 131.739 116.499 133.778 121.218C135.623 125.596 140.428 128.223 145.088 128.272C150.136 128.272 154.65 125.499 157.077 121.169C159.553 116.742 160.572 108.813 154.456 107.013V106.964ZM155.184 119.515C153.437 123.31 149.99 126.277 145.816 126.958C141.787 127.591 137.952 125.547 136.205 121.85C134.409 117.959 135.331 112.316 138.244 109.202C142.127 105.067 148.146 105.7 153 107.354C153 107.354 153.048 107.354 153.097 107.354C153.339 107.597 153.825 107.743 153.971 107.791C156.252 108.375 156.737 111.634 156.64 113.58C156.543 115.624 156.058 117.618 155.184 119.467V119.515ZM200.471 112.024C200.471 112.024 200.083 111.926 199.84 111.926C199.695 111.829 199.5 111.732 199.403 111.683C196.976 110.856 194.792 110.564 192.268 110.662C189.89 110.807 187.366 111.002 185.278 112.267C180.813 114.991 179.502 122.337 181.735 126.812C183.919 131.19 188.87 133.574 193.627 133.331C198.287 133.088 203.432 130.218 204.791 125.499C205.519 123.066 205.908 119.807 205.228 117.326C204.597 115.04 202.85 112.656 200.52 111.975L200.471 112.024ZM202.607 124.185C201.782 128.077 198.481 130.85 194.744 131.872C190.569 133.088 186.249 131.385 184.162 127.493C182.075 123.65 182.9 117.764 185.812 114.505C187.414 112.753 189.647 112.121 191.928 111.926C194.21 111.732 196.297 111.683 198.481 112.461C198.675 112.51 199.064 112.656 199.403 112.656C199.646 112.802 199.986 112.948 200.131 112.997C200.86 113.191 201.588 114.602 201.927 115.186C202.413 116.061 202.801 116.937 202.947 117.959C203.238 119.953 202.947 122.239 202.51 124.185H202.607Z" fill="#333333"/>
</svg>
