<svg viewBox="0 0 1440 121" fill="none" xmlns="http://www.w3.org/2000/svg">
<path d="M0 0L60 5.45219C120 10.9044 240 21.8088 360 27.8299C480 33.8036 600 34.9414 720 33.8984C840 32.8554 960 29.7263 1080 30.959C1200 32.239 1320 37.9283 1380 40.7729L1440 43.6175V119H1380C1320 119 1200 119 1080 119C960 119 840 119 720 119C600 119 480 119 360 119C240 119 120 119 60 119H0V0Z" fill="#00D1B5"/>
<path d="M0 48.9369L60 45.6444C120 42.2897 240 35.7047 360 38.8108C480 41.917 600 54.7144 720 56.5781C840 58.4418 960 49.3718 1080 46.6384C1200 43.9671 1320 47.6945 1380 49.5582L1440 51.4219V121H1380C1320 121 1200 121 1080 121C960 121 840 121 720 121C600 121 480 121 360 121C240 121 120 121 60 121H0V48.9369Z" fill="white"/>
</svg>
