<svg width="143" height="132" viewBox="0 0 143 132" fill="none" xmlns="http://www.w3.org/2000/svg">
<g clip-path="url(#clip0_134_15)">
<path d="M94.8622 83.6946C90.5343 93.2514 85.3525 102.403 79.3169 111.033C74.6945 117.665 69.5715 125.397 62.1816 129.336C58.8546 131.102 54.9094 132.232 51.0819 132C47.4606 131.797 45.959 129.857 44.4869 126.816C41.0422 119.692 38.9812 111.728 38.3335 103.88C37.6858 95.8868 38.2746 87.8359 37.8919 79.8139C37.8036 78.2211 43.8097 77.2944 43.8686 78.2501C44.2514 86.1272 43.692 94.0623 44.2808 101.939C44.8108 108.948 46.5479 115.695 49.1388 122.211C50.0515 124.47 51.1703 128.206 53.6139 129.278C57.2353 130.842 60.8567 127.308 63.2121 124.963C68.806 119.402 73.3401 112.51 77.5503 105.936C81.8783 99.1593 85.6469 92.0641 88.9738 84.7661C89.651 83.2892 95.245 82.8548 94.8622 83.6946ZM141.557 57.1382C139.555 54.8214 136.523 53.4024 133.755 52.1571C130.811 50.8539 127.749 49.8403 124.658 48.9715C116.914 46.8574 108.965 45.3515 101.104 43.6139C100.898 43.5559 100.692 43.5559 100.456 43.5559C100.456 43.498 100.545 43.4401 100.545 43.3532C102.282 31.4796 107.758 18.6503 105.55 6.4581C104.578 1.07152 98.8664 -0.405439 93.9495 0.057922C86.9718 0.695044 80.2884 4.28609 74.7828 8.3405C68.3644 13.061 63.6537 18.824 59.0313 25.1953C56.8526 28.2071 54.35 32.1457 50.9347 33.9122C47.4606 35.7367 42.9854 35.2734 39.1873 35.2444C30.2075 35.1575 21.1099 34.7521 12.1595 35.3602C5.80007 35.8236 0.559382 39.0382 0.0588672 45.7859C-0.529974 53.663 4.79904 60.3817 10.5402 65.247C17.4591 71.097 25.8501 75.441 34.2705 78.7424C36.8025 79.7271 41.2483 76.165 37.7152 74.8039C31.0319 72.1685 24.643 68.8381 18.784 64.6968C13.5433 60.9609 8.18487 56.0667 6.53612 49.6665C5.85895 47.0312 5.50565 42.4265 8.03766 40.5441C10.5402 38.6907 16.2225 39.5305 19.1962 39.4726C27.0278 39.3567 34.8888 39.7043 42.7204 39.5884C48.1377 39.5015 53.3784 38.4011 57.4709 34.7231C62.2699 30.4081 65.3908 24.5871 69.4832 19.6639C73.7523 14.509 79.3463 9.90435 85.4408 6.95042C89.5332 4.98113 98.6603 1.53489 99.6613 8.42738C101.398 20.1562 96.2166 32.3774 94.5384 43.8166C94.3912 44.7433 94.9506 45.2646 95.7161 45.5252C95.7161 45.728 95.8044 45.9017 96.246 45.9886C104.343 47.7841 112.527 49.319 120.506 51.5489C124.187 52.5915 127.778 53.8368 131.135 55.6613C134.02 57.2251 138.378 59.8894 136.817 63.7411C135.551 66.8398 131.665 69.4173 128.897 71.1259C126.1 72.8346 123.038 74.1088 119.976 75.2383C112.41 77.9895 104.608 80.1904 96.9232 82.5941C96.3343 82.7679 94.4795 83.5498 95.1861 84.3607C95.8633 85.1716 98.3364 84.3028 99.043 84.1C105.785 81.986 112.557 79.9877 119.27 77.7288C124.893 75.8464 130.575 73.5875 135.433 70.1702C139.437 67.3611 145.974 62.2062 141.587 57.1382H141.557ZM61.7988 68.4906C60.8272 66.724 61.1217 64.4941 61.5339 62.5827C62.4466 58.4704 65.1847 55.0821 69.2477 53.663C71.603 52.8521 74.1645 52.5915 76.5493 53.3734C77.0793 53.5472 77.9036 53.9526 78.6102 54.4449C79.4346 54.4449 80.2296 54.5608 80.4651 55.2269C81.8489 59.1654 81.2895 63.5094 79.2285 67.1005C78.0214 69.1856 76.3138 70.6626 73.9584 71.4155C71.603 72.1975 68.7766 72.3712 66.3624 71.7341C64.4486 71.2418 62.741 70.1992 61.7988 68.4616V68.4906ZM72.3391 69.0118L72.2508 69.0698C72.2213 69.1856 72.2508 69.0987 72.3096 69.0408L72.3391 69.0118ZM71.1025 56.0377C71.1614 56.0377 71.1908 56.0377 71.2497 56.0377C71.1614 56.0377 71.1614 56.0377 71.1025 56.0377ZM67.1278 64.1466C67.0984 65.5366 67.4812 66.8398 68.5116 67.7666C68.9533 68.172 69.4538 68.4906 70.0426 68.6933C70.3076 68.7802 70.602 68.867 70.8964 68.896C71.0436 68.896 71.2203 68.9539 71.3969 68.9539C71.4558 68.9539 71.6619 68.9539 71.6619 68.9539C71.6619 68.9539 72.5746 68.896 72.0741 68.9539C72.1624 68.9539 72.2802 68.9539 72.3685 68.925C72.5157 68.7512 72.7513 68.4616 72.9279 68.2299C73.7229 67.1584 74.2823 66 74.665 64.7547C75.2539 62.8434 75.3716 60.903 75.0478 58.9627C74.9005 58.9337 74.7239 58.9337 74.5767 58.8758C74.2528 58.731 73.8112 58.3256 73.9878 57.9201C74.1645 57.5147 73.2223 56.8197 72.8396 56.588C72.2802 56.2405 71.868 56.1536 71.3675 56.0667C71.3086 56.0667 71.2792 56.0667 71.2497 56.0667C71.2497 56.0667 71.2497 56.0667 71.1908 56.0667C71.1614 56.0667 71.1025 56.0667 71.0142 56.0667C71.0142 56.0667 70.9848 56.0667 70.9553 56.0667C70.8375 56.1246 70.7492 56.1825 70.6314 56.2405C70.5726 56.2694 70.5431 56.2984 70.5137 56.2984C70.5137 56.2984 70.5137 56.2984 70.4548 56.3563C70.3665 56.4432 70.2487 56.5011 70.1604 56.588C68.2172 58.2097 67.1573 61.4533 67.069 64.1176L67.1278 64.1466Z" fill="#333333"/>
</g>
<defs>
<clipPath id="clip0_134_15">
<rect width="143" height="132" fill="white"/>
</clipPath>
</defs>
</svg>
