<svg width="388" height="171" viewBox="0 0 388 171" fill="none" xmlns="http://www.w3.org/2000/svg">
<g clip-path="url(#clip0_134_21)">
<path d="M386.113 114.387C380.218 114.242 374.295 114.184 368.401 114.184C370.637 94.6747 370.521 75.6586 368.546 56.0918C368.517 55.6859 368.169 55.425 367.762 55.2801C367.762 55.1642 367.849 55.0482 367.82 54.9033C365.352 44.2937 358.384 33.771 349.209 27.9155C340.266 22.2048 329.087 21.5091 318.751 22.0599C311.143 22.4657 303.826 24.321 297.468 28.6112C289.367 34.0609 283.879 42.2355 281.005 51.4537C271.975 51.6276 262.944 51.8595 253.944 52.2654C244.42 52.6712 234.896 53.077 225.373 53.4829C222.237 53.6278 219.13 53.7437 215.994 53.8887C215.472 53.8887 214.949 53.9467 214.455 53.9467C214.339 53.9467 214.223 53.9467 214.049 53.9467C207.138 53.7437 200.228 53.6278 193.289 53.5988C193.405 53.3959 193.492 53.193 193.492 52.9611C193.376 49.4535 192.04 45.801 190.821 42.5254C189.224 38.2352 187.133 33.7131 183.939 30.3794C179.439 25.6834 172.761 22.3788 166.431 21.0743C161.204 20.0018 155.775 19.9728 150.49 20.2916C145.467 20.6105 140.502 21.1323 135.828 23.1325C134.782 23.5673 133.766 24.0891 132.808 24.6398C131.995 19.2771 129.701 12.4069 123.546 13.2186C119.452 13.7693 116.896 16.6681 115.212 20.1757C114.051 17.1899 112.28 14.552 109.231 14.61C105.515 14.668 101.972 17.3059 99.8817 20.1757C96.9782 24.176 95.5264 29.4808 94.1908 34.2348C93.3197 27.4517 92.0712 20.6975 90.6775 14.0302C89.8064 9.88496 89.1677 5.30486 86.0318 2.17416C81.6185 -2.20302 73.9241 0.666791 70.556 4.986C66.491 10.2038 64.5166 17.1899 62.9197 23.7122C62.6583 20.4656 62.2809 17.2189 61.6711 14.0302C60.9453 10.2328 59.3773 6.11653 56.619 3.33368C51.9733 -1.33338 43.9596 1.71036 40.5334 6.43539C36.149 12.4939 35.3651 21.3062 34.7844 28.4952C34.3198 34.4957 34.1746 40.5542 34.523 46.5547C34.5521 47.1345 38.7913 46.4678 38.7332 45.4242C38.1234 34.5537 38.2976 22.6687 41.5786 12.233C42.4497 9.47913 43.6111 6.43539 45.7017 4.37725C48.8085 1.27554 51.9152 3.39166 53.9477 6.40641C55.7479 9.01532 56.8803 12.175 57.461 15.2767C59.1741 24.6398 59.2322 34.4088 58.9128 43.8878C58.9128 44.4096 62.9777 43.8299 63.1229 42.7573C64.5747 31.9448 66.7523 20.6685 71.0786 10.6097C72.211 7.97176 73.5176 5.15992 75.5791 3.10178C78.4826 0.173995 81.7636 2.58 83.4767 5.50778C85.3059 8.60949 85.8286 12.175 86.5545 15.6246C88.645 25.8283 90.4743 36.177 91.055 46.5547C91.084 47.2215 95.0618 46.3808 95.2361 45.5981C96.6588 38.8729 98.4009 32.0897 100.869 25.6834C102.205 22.2628 103.714 18.7263 106.821 16.5232C107.721 15.8855 107.112 15.9434 107.75 16.5232C108.476 17.2189 109.086 17.8567 109.609 18.7263C111.206 21.3642 111.989 24.5239 112.773 27.4807C112.977 28.2633 116.78 27.2487 116.955 26.524C117.361 24.6108 117.971 22.7266 118.697 20.9004C119.19 19.6249 119.771 18.3494 120.497 17.1899C121.019 16.3493 121.774 15.7115 122.297 14.8999C122.326 14.8999 122.384 14.8419 122.413 14.8129C122.558 14.8709 122.762 14.8999 123.081 14.9579C124.213 16.0304 125.346 16.6971 126.159 18.1755C126.885 19.48 127.378 20.9294 127.785 22.3498C128.22 23.9441 128.54 25.5964 128.714 27.2487C124.359 30.5534 120.7 34.8146 117.826 39.4527C115.154 43.7719 112.802 48.5549 111.409 53.4539C110.915 55.1352 115.967 54.4395 116.461 52.7871C119.277 43.0182 125.404 32.5825 134.056 27.0168C141.867 21.9729 153.22 21.915 162.134 23.4513C168.144 24.4949 173.864 27.3647 178.393 31.452C181.965 34.6697 184.113 39.3947 185.768 43.8009C186.901 46.8446 188.091 50.2072 188.353 53.4829C181.645 53.4539 174.909 53.4249 168.202 53.3379C161.234 53.2509 154.265 53.193 147.267 53.106C136.524 52.9901 125.084 52.6422 115.358 57.947C114.254 58.5557 113.935 59.7443 114.922 60.5269C116.025 61.4256 118.087 60.6139 119.103 60.0631C126.856 55.8309 136.931 56.7585 145.467 56.8165C151.623 56.8744 157.778 56.9324 163.934 57.0194C179.584 57.1933 195.234 57.3962 210.884 57.5702C223.079 57.7151 235.361 56.6136 247.527 56.0918C258.531 55.628 269.565 55.2511 280.569 55.0482C281.179 55.3671 282.34 55.3381 283.385 54.9902C294.477 54.8163 305.568 54.8453 316.66 55.1931C331.991 55.6859 347.496 56.3816 362.739 58.4108C364.568 77.166 364.655 95.3994 362.565 114.068C354.493 114.126 346.421 114.329 338.378 114.676C338.32 114.618 338.291 114.532 338.146 114.474C328.623 111.459 322.119 103.458 313.96 98.1533C305.278 92.5007 295.464 91.9789 285.708 95.1096C275.081 98.5012 266.022 105.371 257.602 112.473C251.156 117.894 245.117 123.779 239.31 129.895C239.31 129.895 239.281 129.895 239.252 129.895C228.16 129.402 217.04 129.315 205.919 129.605C205.745 129.605 205.542 129.605 205.338 129.663C206.384 129.228 207.138 128.649 206.935 128.156C205.222 124.011 202.667 122.474 198.079 122.445C196.628 122.445 195.176 122.59 193.782 122.793C192.447 115.053 192.069 107.227 192.65 99.3998C214.194 99.0519 235.738 98.82 257.254 99.3418C261.202 99.4288 267.358 98.936 270.668 100.153C271.887 100.588 275.691 98.791 274.036 98.1823C270.697 96.9648 266.429 97.2837 262.915 97.1677C255.599 96.9358 248.282 96.8778 240.965 96.8488C225.111 96.7909 209.229 96.9358 193.376 97.1387C189.746 97.1967 186.088 97.2257 182.458 97.2837C180.949 97.2837 177.958 99.6027 180.803 99.5447C183.649 99.4867 186.465 99.4578 189.311 99.3998C188.846 99.6317 188.498 99.9216 188.469 100.298C187.888 108.067 188.265 115.865 189.543 123.547C187.394 124.011 185.217 124.474 183.01 124.735C174.735 125.721 166.286 125.257 157.953 125.257C142.419 125.257 126.885 125.257 111.351 125.112C111.206 125.112 111.031 125.112 110.886 125.112C111.06 124.88 111.176 124.648 111.176 124.329L112.715 56.2367C112.773 53.9756 108.476 54.5264 108.447 56.5266L106.908 124.619C106.908 124.764 106.966 124.88 106.995 125.025C101.479 124.851 95.9039 124.59 90.5033 125.286C86.6416 125.779 81.7346 126.388 77.96 128.011C77.8148 128.011 77.6696 128.011 77.5535 128.011C65.0102 127.692 52.496 127.344 39.9527 127.025C28.6579 126.735 17.3341 126.417 6.03933 126.127C8.0718 116.735 10.1333 107.371 12.1948 97.9794C15.3597 83.6883 18.0309 69.0204 22.2411 54.9612C22.967 52.5842 23.838 50.0333 25.3769 48.0331C25.5511 47.8302 26.0447 47.3954 26.4512 47.0475C27.2352 47.7142 28.3966 48.0041 29.1515 48.8158C30.2258 49.9753 35.7425 47.8592 34.6973 46.7576C32.0841 43.9458 27.9901 43.8009 24.5639 45.1053C17.276 47.8592 16.0565 57.0194 14.4596 63.6866C10.4237 80.4127 6.73618 97.2547 3.04868 114.068C2.03244 118.677 1.04524 123.257 0.0289993 127.866C-0.116178 128.475 0.551636 128.649 1.04524 128.649L70.0043 130.475C72.9949 130.562 75.8694 130.881 78.744 130.04C83.2735 128.736 87.8901 127.518 92.6519 127.431C95.2651 127.373 97.8783 127.576 100.491 127.605C116.461 127.866 132.459 127.837 148.458 127.837C155.601 127.837 162.772 127.953 169.915 127.837C174.938 127.75 180.136 127.692 185.072 126.59C188.527 125.837 192.127 124.706 195.728 125.025C198.863 125.286 199.938 127.083 201.041 129.721C201.302 130.388 202.522 130.388 203.77 130.127C203.509 130.301 203.248 130.475 203.132 130.736C203.074 130.852 203.074 130.968 203.074 131.055C202.522 130.823 201.389 131.055 201.099 131.171C196.802 132.417 193.463 134.997 190.066 137.809C186.465 140.795 182.894 143.809 179.468 146.969C172.79 153.085 166.634 159.84 162.221 167.782C161.814 168.507 163.702 168.333 163.934 168.304C164.718 168.188 165.966 167.869 166.373 167.087C167.999 164.188 169.915 161.463 171.948 158.854C185.507 158.071 199.096 158.477 212.568 160.014C212.946 160.043 213.323 159.956 213.7 159.811C211 163.202 208.329 166.594 205.658 170.014C204.467 171.551 210.1 170.797 211 169.638C224.182 152.796 237.48 135.925 252.956 121.054C260.941 113.401 269.507 105.719 279.204 100.269C284.431 97.3416 290.209 95.1096 296.306 95.6024C301.213 96.0082 305.685 98.2113 309.662 100.994C317.473 106.444 323.948 113.836 333.297 116.764C333.53 116.851 333.936 116.822 334.372 116.764C334.11 117.778 334.749 118.735 336.782 118.648C352.519 117.952 368.285 117.807 384.022 118.213C385.358 118.242 387.274 117.836 387.884 116.474C388.435 115.227 387.39 114.271 386.142 114.242L386.113 114.387ZM285.824 51.3667C290.325 36.351 301.562 25.4805 317.705 24.7558C327.519 24.321 337.856 25.1036 346.131 30.9302C351.59 34.7856 355.858 40.2354 358.877 46.1489C360.213 48.7868 361.433 51.5986 362.275 54.4684C350.399 53.019 338.407 52.3523 326.503 51.8305C312.943 51.2508 299.384 51.1638 285.853 51.3377L285.824 51.3667ZM26.8577 46.6127C26.7706 46.9026 26.6254 47.0475 26.4802 47.0765C26.6545 46.9026 26.8287 46.7287 26.8577 46.6127ZM26.277 47.0475C25.9286 46.9316 25.6963 46.5257 26.277 47.0475ZM214.078 157.289C200.867 155.781 187.569 155.405 174.299 156.071C176.68 153.288 179.235 150.65 181.936 148.129C183.3 146.824 184.723 145.578 186.146 144.331C199.067 144.389 211.987 144.853 224.908 145.723C225.053 145.723 225.198 145.723 225.344 145.723C221.947 149.752 218.636 153.839 215.355 157.955C215.21 157.637 214.862 157.405 214.136 157.318L214.078 157.289ZM226.941 143.809C214.078 142.969 201.186 142.534 188.294 142.447C189.224 141.664 190.124 140.853 191.053 140.07C194.16 137.461 197.499 133.895 201.506 132.736C201.854 132.649 203.015 132.301 203.335 131.808C203.567 131.982 203.916 132.069 204.293 132.069C215.239 131.779 226.157 131.866 237.103 132.33C235.274 134.301 233.474 136.272 231.702 138.273C230.105 140.099 228.538 141.954 226.941 143.78V143.809Z" fill="#333333"/>
</g>
<defs>
<clipPath id="clip0_134_21">
<rect width="388" height="171" fill="white"/>
</clipPath>
</defs>
</svg>
