<svg width="159" height="126" viewBox="0 0 159 126" fill="none" xmlns="http://www.w3.org/2000/svg">
<g clip-path="url(#clip0_134_27)">
<path d="M0.352933 19.2204C-0.70589 12.3518 8.44117 8.22495 13.647 6.20479C22.9118 2.65509 33.0294 1.0101 42.9412 0.346339C53.7941 -0.404005 64.9118 2.66635e-05 75.5294 2.45307C84 4.41551 93.2647 7.96521 98.5294 15.1223C100.912 18.3546 102.235 22.1352 102.412 26.0889C102.824 34.7467 100.265 44.0394 97.3529 52.12C96.8235 53.5919 92.5294 54.1113 93.0882 52.6107C96 44.5877 98.8529 34.8333 98.0882 26.2332C97.7059 22.1063 96.0588 18.2969 93.2647 15.2089C87.5882 8.88871 78.7353 5.97392 70.5588 4.32893C60.8235 2.36649 50.6765 2.13562 40.7647 2.91482C32.0294 3.60745 23.0588 5.02156 14.9118 8.25381C11 9.81221 3.79411 12.8424 4.61764 18.0948C4.88234 19.7398 0.588227 20.7211 0.352933 19.2204ZM77.2647 82.0761C79.1176 80.4599 74.9412 80.3156 73.8235 81.2969C71.7059 83.115 69.3235 84.5291 67.1765 86.2607C66.0882 87.1553 65.5 88.3674 64.7647 89.5506C64.5294 89.9547 64.2647 90.5896 63.9412 91.0513C63.7941 90.9936 62.9412 91.4265 62.647 91.4554C61.8823 91.5708 61.1176 91.8594 60.3529 91.9748C57.2353 92.5232 54.0294 92.5232 50.8823 92.35C45.9412 92.0903 41.0294 91.3688 36.2059 90.3298C35.6765 90.2144 35.1176 90.0413 34.5882 89.9547C33.7059 88.4251 32.9706 86.7801 32.1765 85.2217C31.2353 83.4036 30.8823 83.2016 28.9706 82.1049C26.3823 80.6042 23.9706 78.8438 21.7647 76.7948C17.8235 73.1585 14.6176 68.7719 12.2059 64.0101C7.99999 55.8429 5.85293 46.7233 4.88234 37.6615C4.32352 32.4091 4.08823 27.0413 4.55882 21.76C4.73529 19.9996 0.441168 20.7499 0.29411 22.2506C-1.02942 36.5071 1.38234 52.3509 7.94117 65.1068C10.4118 69.9263 13.5588 74.3995 17.5294 78.1512C19.5588 80.0559 21.7647 81.7586 24.1176 83.2593C24.9118 83.7499 26.7059 84.356 27.2059 84.9043C27.7941 85.5392 28.1176 86.7224 28.5294 87.5016C29.147 88.6849 29.7941 91.0225 30.8823 91.9171C31.5588 92.4654 33.0588 92.552 33.8529 92.7252C39.0588 93.8218 44.3823 94.601 49.7059 94.8319C53.0588 94.9762 56.4706 94.9185 59.7647 94.399C62.2059 93.995 65.6765 93.5332 67.4706 91.6862C68.0588 91.0802 68.4706 90.0701 68.8823 89.3775C69.2059 88.858 70.9706 86.5204 69.7059 87.6171C72 85.5969 74.8529 84.0385 77.2059 82.0183L77.2647 82.0761ZM20.1176 18.268C41.1765 6.66654 68.7647 9.81221 88.9412 21.2405C90.4706 22.1063 94.2353 20.0573 92.2353 18.9029C76.8235 10.1585 59.1176 6.37795 41.4412 8.91757C33.5882 10.0431 25.2647 12.0921 18.2647 15.9593C15.7353 17.3445 18.0294 19.3935 20.1176 18.268ZM8.05881 22.2217C17.2941 32.0628 33 36.1897 46.0588 36.6514C62.2647 37.2286 80.1765 34.3138 94.8529 27.1567C97.3823 25.9157 93.5294 25.656 92.2941 26.2332C78.8235 32.7843 61 35.5548 45.8235 34.487C34.0882 33.65 20.2941 29.4943 12.0294 20.6922C11.1765 19.7687 7.14705 21.2694 8.05881 22.2217ZM159 93.2735C159.059 89.4063 153.618 87.4439 154.324 83.6056C154.735 81.4989 156.765 79.7673 157.588 77.8049C158.235 76.2465 158.529 74.6304 158.529 72.9565C158.529 69.3491 157 65.7128 154.324 63.2309C147.971 57.3436 137.471 53.6207 129.088 51.8892C115.676 49.1187 101.559 51.1965 89.4706 57.4879C81.9412 61.4128 73.2059 67.6464 76.2353 77.372C76.9412 79.6519 78.7941 81.268 79.647 83.4325C80.7647 86.3184 78.4706 87.9345 76.9117 90.0124C74.2941 93.5044 75.7059 95.7265 77.5588 99.132C79.0882 101.96 77.2059 103.086 77.0882 105.77C77 107.732 78.3235 109.464 79.7059 110.705C83.2353 113.879 88.147 115.149 92.7059 116.188C91.5588 116.246 90.0882 116.736 89.8235 117.515C88.647 120.921 94.0882 121.815 96.2647 122.393C100.765 123.576 105.176 124.817 109.824 125.423C116.647 126.317 123.559 126.115 130.324 124.788C133.912 124.095 137.912 122.739 140.853 121.671C143.206 120.805 144.559 120.257 144.706 117.458C144.794 115.813 140.529 116.65 140.441 118.006C140.441 117.919 140.294 119.334 140.147 119.795C138.824 120.228 137.529 120.776 136.176 121.209C133 122.191 129.735 122.912 126.412 123.316C120.941 123.98 115.382 123.778 109.971 122.854C106.471 122.248 103.088 121.354 99.6764 120.401C98.0588 119.94 93.2353 119.449 94.0882 116.967C94.2353 116.563 93.9412 116.361 93.4706 116.246C95.147 116.072 97.647 114.225 95.4412 113.706C91.5588 112.811 87.5 111.859 84.2647 109.435C81.7059 107.53 81.3529 105.914 82.2059 103.115C82.6765 101.614 83.0294 100.777 82.5 99.2185C81.2647 95.6977 78.147 94.0238 80.9706 90.2433C82.5 88.1943 84.6176 86.5204 84.2941 83.7211C83.9412 80.4599 80.7941 78.1801 80.2059 74.8612C79.5294 71.1384 80.7941 67.0692 83.647 64.5007C85.0588 63.2309 86.4706 62.3363 88.6765 61.0087C97.5882 55.5543 108.235 52.8127 118.735 53.3899C127.324 53.8516 135.647 56.4778 143.206 60.4893C146.706 62.3363 150.588 64.241 152.618 67.733C154.471 70.9363 154.882 75.0344 153.235 78.4109C151.735 81.4123 148.882 83.721 150.559 87.2708C152.235 90.8493 156.176 92.2057 153.735 96.6212C153 97.9776 151.823 99.2474 151.559 100.835C151.235 102.711 152.382 103.49 152.765 105.164C154.088 110.762 143.5 112.956 139.824 113.793C137.206 114.399 137.882 116.823 140.5 116.217C145.941 114.976 159.853 111.282 156.676 103.23C155.706 100.777 155.912 99.8823 157.265 97.6313C158.088 96.2749 159 94.8896 159.029 93.2447L159 93.2735ZM115.824 116.852C113.059 116.707 110.324 116.448 107.588 116.072C105.294 115.726 103.029 115.38 101.206 113.85C99.9117 112.754 96.1176 114.629 97.8823 116.13C99.8235 117.775 102.324 118.295 104.794 118.699C107.735 119.16 110.676 119.478 113.647 119.651C119.765 119.997 125.912 119.709 131.971 118.814C132.824 118.699 134.235 118.237 134.353 117.227C134.441 116.246 133.206 115.899 132.441 116.015C126.941 116.823 121.382 117.14 115.824 116.88V116.852ZM143.029 71.5424C126.118 79.1613 106.176 78.5264 89.7059 70.0417C88.2647 69.2914 84.4412 71.2827 86.3823 72.2639C104.441 81.5566 126.324 81.9606 144.824 73.6203C147.5 72.4082 145.088 70.59 143.029 71.5135V71.5424ZM95.1765 65.5108C107.294 56.8241 125.471 59.4792 138.471 64.7027C140.029 65.3376 143.441 63.1443 141 62.1631C126.265 56.2758 106.029 54.1979 92.4412 63.9524C90.1176 65.6262 93.647 66.6074 95.1765 65.5108Z" fill="#333333"/>
</g>
<defs>
<clipPath id="clip0_134_27">
<rect width="159" height="126" fill="white"/>
</clipPath>
</defs>
</svg>
