<svg width="164" height="224" viewBox="0 0 164 224" fill="none" xmlns="http://www.w3.org/2000/svg">
<g clip-path="url(#clip0_134_24)">
<path d="M73.9392 36.6106C73.9392 36.6106 73.9102 36.8725 73.8812 37.0181C74.0261 37.3382 74.2871 37.5128 74.6351 37.571C74.867 37.6001 75.128 37.6292 75.36 37.6874C75.5339 37.6874 75.6789 37.6583 75.8529 37.6583C75.9399 37.6583 76.0269 37.6874 76.1138 37.7165C76.5198 37.8038 76.8967 37.8329 77.3027 37.8038C77.7956 37.8038 78.3175 37.7747 78.8105 37.6583C79.3904 37.571 79.9413 37.4255 80.4922 37.2218C81.0141 37.0763 81.5361 36.8725 82 36.6397L82.7829 36.2032C83.1598 35.9704 83.4788 35.6793 83.7107 35.301C83.7107 35.1555 83.7397 35.0391 83.7687 34.8936C83.6237 34.5735 83.3628 34.3988 83.0148 34.3406C82.8988 34.2824 82.7539 34.2533 82.6379 34.2242C82.2899 34.1369 81.913 34.1078 81.5361 34.0496C81.1011 34.0205 80.6952 34.0496 80.2602 34.0496C79.7963 34.0496 79.3034 34.1369 78.8394 34.2242C78.2595 34.3115 77.7086 34.4571 77.1577 34.6608C76.6358 34.8063 76.1138 35.01 75.6499 35.2428C75.244 35.4174 74.896 35.6502 74.5771 35.9122C74.3161 36.0868 74.1131 36.2905 73.9392 36.5815V36.6106ZM77.1867 37.5419C76.9837 37.5419 76.8097 37.6001 76.6068 37.6292C76.4328 37.6292 76.2588 37.6292 76.0848 37.6292C76.4618 37.6292 76.8097 37.6292 77.1867 37.5419ZM62.6308 30.5574C67.1252 25.7846 71.0396 26.7741 72.6633 26.8323C74.6351 26.9196 75.8529 29.2186 74.2001 29.306C72.5474 29.3933 71.1266 30.8484 70.1987 32.0707C69.0389 33.584 69.2998 37.9493 64.8925 39.6082C60.1082 41.4125 58.1655 35.3301 62.6598 30.5282L62.6308 30.5574ZM85.7694 26.9487C87.3062 26.8905 91.8875 25.5518 96.1209 29.888C100.354 34.2242 97.6577 40.1902 93.1923 38.5605C89.0459 37.0472 89.5679 32.7109 88.495 31.3431C87.6252 30.2372 86.4073 29.2478 84.8706 29.1604C83.3338 29.0731 83.9717 27.0069 85.7984 26.9487H85.7694ZM86.1464 44.3227C86.2624 44.6719 85.9434 44.9921 85.7114 45.1958C85.3635 45.545 84.7546 45.7778 84.3196 45.8942C83.7977 46.0397 83.2758 46.0689 82.7539 46.0106C82.4639 45.9815 82.203 45.9524 81.913 45.9233C81.884 45.9233 81.855 45.9233 81.826 45.9233C81.681 45.9233 81.565 45.9233 81.4201 45.8942C80.8691 45.8651 80.3472 45.836 79.7963 45.8069C79.2454 45.8069 78.6655 45.8069 78.1146 45.8069C77.8536 45.8069 77.5636 45.8069 77.3027 45.8069C77.1577 45.8069 77.0417 45.8069 76.8967 45.8069C76.7518 45.8069 76.3168 45.836 76.8967 45.8069C76.3168 45.836 74.954 45.8942 75.099 44.963C75.157 44.6137 75.6499 44.2645 75.9109 44.0899C76.3458 43.828 76.9837 43.5952 77.5056 43.5661C80.1443 43.3914 82.7539 43.4496 85.3635 43.7698C85.6824 43.7989 86.0594 44.0026 86.1754 44.3227H86.1464ZM161.622 81.4572C160.694 78.7507 159.216 76.277 157.273 74.1816C152.344 68.8559 141.441 58.7283 127.726 55.7017C124.363 54.945 123.29 52.0639 123.029 49.4738C126.276 42.4893 127.204 34.7772 123.29 27.8508C121.376 24.475 118.477 21.7685 115.171 19.5276C116.708 19.4403 118.216 19.1202 119.665 18.5963C122.855 17.4031 126.363 14.8712 125.842 11.0006C125.407 7.8285 122.42 5.67493 119.491 5.09289C117.288 4.62725 114.997 4.74366 112.793 5.09289C110.271 5.50032 107.197 6.34428 105.429 8.38144C104.414 9.54553 103.834 11.0297 104.037 12.5722C104.124 13.2415 104.414 13.7945 104.791 14.3183C103.689 13.9109 102.616 13.5325 101.543 13.1833C92.5254 10.2731 82.9858 9.63284 73.6492 11.0297C72.7793 11.1753 72.0254 11.6991 71.6775 12.2229C70.8366 12.4267 70.0247 12.6886 69.2129 12.9505C69.9378 11.6991 70.4597 10.3313 70.6336 8.84708C70.8076 7.36286 70.6336 5.70403 70.0537 4.33623C69.5608 3.23034 69.0099 2.35728 67.995 1.65882C67.1542 1.07678 66.1683 0.669346 65.1824 0.436528C60.4561 -0.756665 55.4109 0.582039 51.9604 4.04521C50.5396 5.47122 49.6407 7.21735 49.1188 9.1381C48.6839 10.6805 48.5099 12.6595 49.1188 14.1728C49.6697 15.4824 50.7136 16.239 51.9024 16.8793C52.9462 17.4322 54.0191 17.927 55.1499 18.2762C56.2807 18.5963 57.4116 18.8291 58.5714 18.9456C51.8444 24.2713 46.5962 31.8088 43.0877 39.3462C40.739 44.4682 39.9851 49.6775 41.2609 54.7122C34.36 56.3128 4.92927 64.6361 0.956848 91.1482C-3.56649 121.211 10.4095 128.632 22.7037 124.529C24.1824 124.034 25.5452 123.423 26.8211 122.724C27.285 127.73 28.2708 132.823 29.8366 137.77C28.5608 141.844 26.8501 152.03 29.6047 174.41C33.5191 206.16 43.7546 217.045 50.1047 218.558C56.4257 220.071 72.1124 223.098 78.4335 212.505C83.9427 203.279 89.017 179.765 90.2058 173.915C91.9165 173.595 93.6273 173.187 95.338 172.751C93.6563 179.794 88.872 201.358 91.3946 210.38C94.4102 221.264 97.4257 224.291 104.646 224C111.866 223.709 127.233 222.778 134.163 208.285C141.093 193.763 148.922 169.288 147.414 154.766C146.4 144.958 142.949 137.741 140.803 134.074C141.441 131.746 141.905 129.359 142.282 126.915C143.007 122.2 143.558 117.398 143.297 112.626C143.471 112.626 143.616 112.597 143.79 112.567C147.385 112.073 171.655 110.996 161.68 81.4863L161.622 81.4572ZM44.7984 46.389C45.8713 38.9388 50.6846 31.8087 55.3529 26.0756C57.5856 23.34 60.1082 20.8372 62.9208 18.7709C63.8196 18.5963 64.7185 18.3053 65.4724 17.7524C65.8783 17.4322 66.3133 16.9666 66.6032 16.4428C69.2708 15.0459 72.1994 14.0855 75.331 13.7654C76.0559 13.7072 76.7228 13.3288 77.1287 12.9214C90.1188 11.9319 104.414 15.1914 114.388 23.6601C126.508 33.9623 120.709 50.9289 111.228 60.911C105.11 67.3426 97.3677 71.5624 89.0459 73.2795L81.623 74.0943C78.8104 74.1525 75.9979 73.9488 73.1563 73.4541C59.9922 71.1259 42.4498 62.5698 44.7984 46.3599V46.389ZM106.878 168.589C111.866 166.319 116.563 163.555 120.767 160.353C116.476 163.758 111.808 166.756 106.878 168.589ZM137.324 126.362C136.628 131.193 135.816 135.966 133.583 140.36C131.09 145.308 127.204 149.76 123.29 153.66C112.909 163.991 99.5134 170.539 84.8706 171.674C71.4165 172.722 57.9915 169.462 48.2779 159.655C41.2899 152.612 36.9116 143.445 34.273 133.958C32.9392 129.214 31.9243 124.208 31.6054 119.261C37.8394 113.644 41.029 105.583 41.9279 99.4133C43.1457 90.7699 57.5276 80.4677 74.3451 81.2826C91.1626 82.0974 98.1506 84.1637 98.1506 84.1637C98.1506 84.1637 94.0332 94.4659 105.95 101.887C116.65 108.551 122.855 113.993 138.165 113.12C138.484 117.544 137.962 122.026 137.324 126.391V126.362Z" fill="#333333"/>
</g>
<defs>
<clipPath id="clip0_134_24">
<rect width="164" height="224" fill="white"/>
</clipPath>
</defs>
</svg>
