<svg width="198" height="220" viewBox="0 0 198 220" fill="none" xmlns="http://www.w3.org/2000/svg">
<g clip-path="url(#clip0_134_9)">
<path d="M134.497 58.6489C125.96 54.1128 115.682 54.171 106.767 57.5149C102.76 49.9548 91.3199 48.5881 83.7124 50.5072C73.7819 53.0079 66.0872 61.295 64.8677 71.5302C64.2869 76.328 64.1998 82.4924 66.9583 86.6796C69.3102 90.2561 73.4625 92.4078 77.6437 93.0766C85.9772 94.4142 93.5557 90.0816 99.2179 84.3243C108.539 97.6418 129.503 95.1702 137.43 81.2421C141.524 74.06 142.947 63.1559 134.497 58.678V58.6489ZM134.526 79.9336C131.419 86.2434 125.351 91.3029 118.034 91.1284C111.268 90.954 104.88 87.1739 101.657 81.213C100.989 79.9627 98.6662 80.8641 97.9983 81.6783C92.8298 87.8718 84.99 93.4837 76.6275 90.1107C68.7295 86.9413 67.7423 78.6251 68.6424 71.0359C69.5716 63.0978 74.5949 55.8575 82.1734 53.037C89.6939 50.2165 101.831 52.2519 104.038 61.2659C104.357 62.5744 108.161 61.5857 107.813 60.2482C107.726 59.8993 107.609 59.5794 107.493 59.2595C107.697 59.2595 107.929 59.1723 108.132 59.1142C115.623 56.2936 124.363 56.6717 131.477 60.5099C138.62 64.3481 137.633 73.5947 134.526 79.9627V79.9336ZM143.121 50.42C144.283 52.2519 140.275 53.8221 139.259 52.2519C136.268 47.5704 133.045 43.0053 128.487 39.7195C123.87 36.3756 118.295 34.2239 112.749 33.148C106.448 31.9267 100.495 32.3338 94.572 34.8345C91.4651 36.143 88.5324 37.8004 85.6578 39.5741C83.0736 41.1443 80.1989 42.6563 78.1374 44.8662C76.8597 46.2329 72.8237 45.5932 74.6239 43.674C77.092 41.0571 80.3151 39.2833 83.3639 37.4224C86.5289 35.4742 89.781 33.6423 93.2363 32.2175C99.363 29.6878 105.606 28.8445 112.139 29.8041C118.585 30.7346 125.089 32.9154 130.548 36.521C135.891 40.0394 139.695 45.0988 143.092 50.42H143.121ZM162.488 85.8073C165.653 81.3584 166.292 76.0954 165.857 70.7451C165.392 65.2786 162.692 60.5971 157.901 57.8057C153.748 55.3632 148.812 54.6944 144.224 56.1773C143.586 56.3809 142.047 56.4681 141.814 55.5958C141.553 54.6653 142.947 54.0838 143.615 53.8802C149.132 52.0774 155.345 52.5427 160.514 55.2469C166.321 58.3291 169.719 63.7375 170.125 70.2799C170.532 76.706 169.428 82.6378 165.16 87.6101C161.385 92.0298 156.042 94.8213 150.293 95.5191C149.567 95.6064 148.406 95.461 148.435 94.5014C148.493 93.5709 150.09 93.1057 150.816 92.9894C155.549 92.4078 159.759 89.6164 162.488 85.7491V85.8073ZM48.1426 155.186C50.059 150.854 51.656 145.823 50.4656 141.084C49.7687 138.35 48.3749 135.704 46.6908 133.262C47.0102 132.971 47.2425 132.593 47.2135 132.157C47.0102 126.69 50.3204 122.27 53.6015 118.2C56.5923 114.507 59.9315 111.046 63.7062 108.168C64.9257 107.237 66.1453 106.423 67.3938 105.696C69.0489 106.481 70.7621 107.121 72.4172 107.674C80.8668 110.465 89.9843 112.035 97.4466 117.211C99.5373 118.665 101.192 120.293 102.615 122.038C98.8694 127.243 96.3723 133.32 95.4141 139.746C95.2399 140.851 99.4211 140.095 99.5663 139.048C100.321 133.96 102.092 129.162 104.59 124.887C106.651 128.377 107.9 132.331 108.829 136.693C109.584 140.415 109.177 144.049 108.51 147.742C108.074 150.243 107.348 157.716 103.806 157.948C102.644 158.036 99.2469 159.897 102.005 159.722C110.832 159.141 112.226 151.086 113.155 143.759C113.243 143.003 113.301 142.276 113.33 141.578C113.736 141.752 114.114 141.927 114.462 142.072C116.32 142.886 118.295 143.439 120.298 143.759C122.273 144.078 124.305 144.166 126.309 143.991C128.458 143.817 130.781 143.352 132.465 141.898C133.074 141.374 133.016 140.851 132.145 140.764C131.245 140.647 129.88 140.938 129.184 141.549C128.458 142.188 127.47 142.101 126.454 142.101C125.002 142.101 123.521 141.956 122.07 141.665C120.618 141.345 119.195 140.88 117.859 140.269C116.756 139.775 114.985 139.135 114.752 137.798C114.665 137.362 113.968 137.274 113.184 137.362C113.01 135.937 112.778 134.541 112.371 133.087C111.21 128.929 110.31 125.033 107.609 121.514C107.464 121.34 107.319 121.195 107.174 121.02C111.529 115.234 117.424 110.785 124.218 108.342C131.477 112.675 137.111 119.043 139.259 128.057C138.969 128.202 138.649 128.319 138.388 128.464C137.052 129.133 135.02 130.034 135.63 131.866C136.559 134.657 139.346 136.344 140.479 138.99C140.595 139.252 140.769 139.455 140.972 139.601C140.537 140.473 140.363 141.432 140.653 142.421C140.856 143.119 141.234 143.73 141.698 144.282C139.956 145.009 138.475 146.143 137.895 148.062C137.517 149.254 137.633 150.592 138.417 151.61C138.998 152.336 139.898 152.627 140.653 153.063C139.23 154.168 137.546 154.953 137.14 157.018C136.82 158.675 137.575 160.1 138.737 161.234C135.223 167.021 130.752 172.109 126.222 177.11C124.044 179.495 121.46 181.821 119.66 184.496C119.311 185.02 119.108 185.543 118.963 186.037C118.905 186.037 118.847 186.037 118.788 186.095C111.849 188.771 104.386 188.218 97.1272 187.695C89.9843 187.171 82.7832 186.532 75.8144 184.845C64.4031 182.112 51.2786 175.918 46.1391 164.607C45.5874 163.386 41.4642 164.723 41.9288 165.741C47.6781 178.419 62.6609 184.729 75.437 187.375C83.3639 189.003 91.5522 189.643 99.6244 190.05C106.187 190.37 112.662 190.05 118.905 187.956C119.195 189.265 120.095 190.486 121.286 191.562C125.728 195.633 132.232 200.256 138.562 198.541C144.253 196.999 146.925 191.213 148.754 186.154C151.28 179.088 152.587 171.702 152.732 164.229C154.3 163.764 155.81 163.066 157.175 162.106C157.959 161.554 158.133 160.42 157.378 159.78C156.507 159.082 155.171 159.431 154.358 159.984C151.455 162.019 147.448 162.107 144.312 160.507C143.208 159.926 140.624 158.239 141.553 156.669C141.902 156.087 142.686 155.709 143.208 155.361C143.992 154.837 144.689 154.256 145.299 153.529C145.647 153.092 145.851 152.336 145.444 151.871C144.776 151.115 144.05 150.679 143.179 150.243C142.569 149.923 141.989 149.632 142.018 148.847C142.018 146.957 144.515 146.725 145.88 146.492C147.07 146.288 148.348 144.631 147.07 143.671C146.083 142.944 143.789 141.171 145.357 139.891C146.838 138.699 149.538 138.699 151.309 138.786C152.326 138.845 153.603 138.525 154.039 137.449C154.329 136.722 153.923 135.995 153.255 135.675C154.649 133.843 155.955 131.895 156.652 129.714C157.03 128.493 157.726 126.545 156.478 125.614C155.839 125.149 155.026 125.12 154.242 125.091C153.4 125.091 152.558 125.062 151.716 125.091C148.928 125.207 146.112 125.731 143.44 126.545C141.292 117.851 136.094 111.512 129.358 107.005C132.378 106.423 135.514 106.191 138.766 106.452C139.666 106.51 141.03 106.278 141.727 105.667C142.308 105.173 142.366 104.737 141.466 104.679C136.791 104.301 132.058 104.737 127.47 105.813C117.337 99.7644 104.27 97.3801 92.8008 97.1184C83.5672 96.9149 75.2047 98.0779 67.4229 102.062C64.6934 100.113 62.6319 97.5255 61.935 93.978C61.7608 93.0476 57.5214 94.0071 57.7247 95.112C58.4796 99.0666 61.0348 101.829 64.1998 103.893C63.0964 104.591 62.0221 105.318 60.9477 106.132C56.6213 109.447 52.7885 113.46 49.4202 117.763C46.7779 121.136 44.2227 124.8 43.3516 128.987C43.0903 128.697 42.829 128.377 42.5676 128.115C40.3609 125.731 37.8637 123.812 34.9891 122.561C36.7603 122.038 38.6187 121.02 39.2865 119.188C39.9543 117.385 39.664 115.059 39.3446 113.053C39.7801 113.082 40.2157 113.14 40.6222 113.111C41.8707 113.024 43.1774 112.733 44.2808 112.151C46.1391 111.192 46.9521 109.505 47.5909 107.615C48.2878 105.493 48.8976 103.196 47.9103 101.073C47.2715 99.6772 46.1972 98.6013 44.8905 97.9326C45.0357 97.8163 45.1519 97.6709 45.1809 97.5255C45.1809 97.3801 45.1228 97.2929 45.0648 97.2056C46.023 97.6127 48.1426 97.2638 48.7234 96.3624C51.5109 92.1461 54.008 87.7555 56.2438 83.1903C56.7084 82.2307 55.8373 81.7946 55.0243 81.6492C50.2913 80.8641 46.6908 76.7351 45.3842 72.2862C43.8452 67.0232 44.9777 61.2077 47.3877 56.3809C51.8593 47.425 62.4867 41.2897 71.5751 48.0066C72.8817 48.9661 76.6855 47.1052 74.8562 45.7676C64.316 37.9458 50.059 44.3719 44.1356 54.7235C40.8545 60.4517 39.1704 67.8665 41.4352 74.2635C43.1484 79.0613 46.8941 82.6087 51.6851 84.0045C49.5945 88.1625 47.3006 92.1752 44.7454 96.0716C44.455 96.4787 44.5131 96.7985 44.7163 97.0021C44.2808 96.8858 43.7 96.973 43.4387 97.0021C40.5931 97.3801 37.6605 96.7404 34.7858 96.8567C32.0564 96.973 29.385 97.6999 27.0041 99.0666C24.8844 100.288 23.0841 101.945 21.3419 103.661C19.5126 105.493 17.6543 107.325 16.3186 109.593C13.6763 114.1 12.1083 123.753 15.4185 128.551C14.199 128.667 12.7181 129.104 11.876 129.976C5.28474 136.809 -0.667742 145.503 0.0581706 155.564C0.667937 163.967 6.9979 171.208 15.07 173.359C23.8391 175.686 33.7696 172.313 40.3318 166.323C43.7001 163.27 46.3133 159.344 48.1426 155.186ZM139.23 131.488C139.23 131.488 139.172 131.546 139.143 131.575C138.969 131.604 139.027 131.575 139.23 131.488ZM148.464 164.84C148.348 170.306 147.622 175.744 146.199 181.036C145.444 183.856 144.515 186.648 143.324 189.294C142.395 191.358 141.234 193.51 139.404 194.906C135.078 198.133 128.429 192.58 125.264 189.788C124.334 188.974 122.883 187.782 122.999 186.415C123.086 185.107 124.625 183.915 125.467 183.013C127.383 180.891 129.329 178.797 131.245 176.674C135.02 172.458 138.62 168.096 141.698 163.357C143.818 164.433 146.141 164.898 148.493 164.869L148.464 164.84ZM149.799 128.289C150.496 128.231 151.222 128.173 151.919 128.173C152.209 128.173 152.529 128.173 152.819 128.173C152.761 128.58 152.616 129.045 152.529 129.365C152.268 130.179 151.89 130.994 151.484 131.75C150.729 133.116 149.77 134.367 148.783 135.617C147.157 135.762 145.531 136.111 144.079 136.809C143.528 135.85 142.918 134.948 142.192 134.076C141.727 133.523 141.292 133 140.856 132.447C140.624 132.128 140.392 131.808 140.188 131.488C140.159 131.43 140.072 131.284 140.014 131.139C140.217 131.023 140.45 130.935 140.653 130.819C140.711 130.819 140.74 130.79 140.798 130.761C141.785 130.965 143.063 130.499 143.615 129.685C144.457 129.394 145.27 129.133 146.141 128.929C147.331 128.638 148.551 128.464 149.77 128.348L149.799 128.289ZM94.0784 100.375C103.486 100.724 113.852 102.73 122.389 107.266C118.295 108.749 114.433 110.785 110.978 113.431C108.858 115.03 106.942 116.862 105.199 118.839C99.6244 113.431 91.9587 110.785 84.5835 108.604C80.4312 107.383 75.1176 106.191 70.675 103.981C77.9051 100.666 85.6578 100.055 94.0784 100.375ZM18.4964 113.954C19.774 108.662 23.3745 104.795 27.3815 101.306C28.2817 100.52 29.2689 99.7644 30.3433 99.2411C31.6499 98.6013 33.0727 98.6013 34.4955 98.6595C36.2377 98.7177 37.9799 98.834 39.693 98.834C39.7511 98.9212 39.8382 99.0084 40.0414 99.0666C43.9033 100.172 44.6583 104.039 43.6129 107.47C43.3806 108.226 43.1484 108.982 42.858 109.68C42.7128 110 42.5676 110.349 42.3644 110.639C42.2482 110.843 42.074 111.046 41.8998 111.192C40.1576 111.076 38.4735 111.046 36.7603 111.541C36.2667 111.686 34.7568 112.122 34.873 112.849C35.0762 114.419 35.2504 115.961 35.2795 117.56C35.2795 118.607 35.3375 120.526 34.2051 121.049C33.5663 121.34 32.0564 120.671 31.3595 120.409C30.5755 120.09 29.0947 119.653 28.7462 118.723C28.7462 118.578 28.6882 118.403 28.6591 118.258C28.4849 117.182 24.536 118.258 24.4488 119.392C24.9134 122.009 25.378 125.236 24.4488 127.824C24.2456 128.406 23.6649 128.871 23.4906 129.365C23.3164 129.365 23.1712 129.365 22.997 129.365C22.0678 129.249 21.1677 128.784 20.4708 128.202C16.609 125.091 17.4801 118.17 18.4964 113.954ZM18.8448 170.597C11.9922 168.329 6.85271 161.99 6.01066 154.837C4.87823 145.154 10.5694 136.664 16.8993 129.976C18.3221 131.052 20.2095 131.575 22.7647 131.168C25.0296 130.819 27.4396 129.743 28.4559 127.562C28.8914 126.632 29.0947 125.585 29.1528 124.509C35.2504 126.69 40.1286 133.145 42.9451 138.554C46.8941 146.114 43.9033 154.779 39.4026 161.467C34.8729 168.242 27.1492 173.359 18.8448 170.626V170.597ZM16.3186 67.8083C15.5346 56.5844 19.8901 46.5527 25.8426 37.277C32.0564 27.6233 40.0995 19.0745 49.7106 12.7938C71.0524 -1.10524 97.0401 -1.83217 121.402 2.00605C122.505 2.18051 118.934 3.77977 117.946 3.63439C103.922 1.4245 89.7229 0.319557 75.7564 3.57623C52.9337 8.8974 35.5118 24.4538 25.0876 45.1861C16.2896 62.6907 20.4999 84.6442 37.6314 95.2284C38.1831 95.5482 34.6697 97.2929 33.6534 96.6532C23.5197 90.3724 17.1607 79.7301 16.3477 67.8083H16.3186ZM161.182 112.588C164.405 117.298 167.744 121.98 170.125 127.214C174.8 137.449 176.484 148.993 175.032 160.129C173.697 170.394 169.515 180.222 163.243 188.451C160.136 192.551 156.478 196.243 152.442 199.442C149.48 201.768 146.141 204.501 142.279 204.356C140.827 210.317 138.562 216.191 132.465 218.778C126.774 221.192 120.531 219.738 115.682 216.191C110.571 218.604 104.096 217.935 101.396 212.556C93.4106 215.929 83.3349 213.428 81.4185 203.891C79.444 207.729 75.9015 210.55 71.7203 211.858C69.4554 212.585 66.7841 212.934 64.4321 212.41C63.4158 212.178 62.2544 211.713 61.5865 210.84C59.1184 212.876 55.9825 214.068 52.7885 214.184C50.5817 214.271 47.9974 213.864 46.6327 211.916C45.5584 210.404 45.4713 208.456 45.6165 206.624C42.3644 206.973 38.9381 206.043 36.9345 203.193C34.6407 199.936 35.3375 195.633 37.8927 192.812C37.8056 192.812 37.7185 192.783 37.6605 192.754C34.3213 190.98 31.3886 188.509 29.0366 185.543C27.8461 184.06 26.8298 182.461 25.9587 180.774C25.0876 179.059 24.1875 177.169 24.6811 175.191C24.9715 174.028 29.1237 173.418 28.8334 174.523C28.3688 176.384 29.5012 178.419 30.3433 180.018C31.1853 181.588 32.1726 183.1 33.305 184.467C35.5118 187.142 38.2412 189.381 41.29 191.068C41.4352 191.068 41.6094 191.068 41.7546 191.126C42.5386 191.388 42.9161 192.085 42.1611 192.696C39.9834 194.528 39.1704 197.639 40.1866 200.314C41.1158 202.757 44.2808 205.054 46.9812 204.065C47.6781 203.804 50.0881 203.28 49.9429 204.734C49.5945 207.845 49.7106 211.8 53.8628 211.713C56.9988 211.625 59.4669 209.474 60.8897 206.828C61.4123 205.839 63.561 205.257 64.5192 205.839C66.0582 206.799 64.6644 208.311 65.7097 209.445C66.8131 210.637 69.4845 210.113 70.8201 209.677C74.3045 208.572 76.9469 205.665 78.0502 202.233C78.5439 200.75 82.7542 200.227 82.2605 201.739C82.2315 201.855 82.1444 202.001 82.1154 202.117C83.3349 201.594 85.3094 201.332 85.3965 201.884C86.3837 208.689 94.2526 215.842 101.047 210.928C101.541 210.579 104.677 209.125 105.054 210.201C105.606 211.742 106.419 213.108 107.697 214.184C108.335 214.708 109.003 215.086 109.758 215.376C111.152 215.929 113.417 215.783 114.636 214.824C115.333 214.242 117.685 213.254 118.527 213.952C122.505 217.266 128.951 220.436 133.249 216.016C136.559 212.585 137.604 207.7 138.591 203.193C138.795 202.321 141.843 201.768 142.569 202.175C142.947 202.088 143.324 202.03 143.557 202.088C145.589 202.495 149.306 198.773 150.816 197.465C152.848 195.749 154.736 193.888 156.507 191.911C159.469 188.567 162.053 184.903 164.202 181.007C168.993 172.255 171.432 162.31 171.316 152.336C171.17 142.218 168.412 132.157 163.36 123.404C158.365 114.797 151.542 107.412 148.202 97.9035C147.767 96.6532 151.948 95.4319 152.413 96.7695C154.242 102.003 157.146 106.627 160.224 111.134C161.008 110.581 162.256 110.116 162.924 110.232C176.019 112.704 187.373 104.591 191.583 92.3206C197.681 74.5543 191.96 51.8739 180.781 37.3352C174.713 29.397 166.263 23.2326 157.901 17.9114C148.957 12.1832 139.23 7.82154 128.69 6.16412C126.338 5.78612 129.968 3.72162 131.274 3.92516C144.486 5.98966 156.362 12.1832 167.134 19.8596C176.368 26.4602 184.469 33.7005 189.928 43.7903C195.213 53.5313 197.884 64.6389 198 75.6883C198.116 86.3307 195.561 97.351 187.547 104.882C180.578 111.425 170.532 114.1 161.182 112.588ZM85.019 134.89C84.8738 135.908 83.4801 136.286 82.667 136.431C77.4985 137.333 72.1558 136.693 67.3067 134.686C64.9257 133.727 62.719 132.418 60.7445 130.79C58.8281 129.22 56.8246 127.417 56.9117 124.771C56.9407 123.172 61.18 122.387 61.151 124.335C61.0929 126.458 63.561 128.26 65.1 129.394C66.7841 130.645 68.6424 131.691 70.5879 132.447C74.5949 134.047 78.9213 134.483 83.1897 133.756C83.8866 133.64 85.1932 133.901 85.048 134.861L85.019 134.89ZM87.7775 158.763C87.7775 158.763 87.9517 158.675 88.0098 158.646C87.5452 157.716 87.3129 156.64 87.4871 155.593C87.5452 155.157 87.9227 154.837 88.2421 154.605C88.7066 154.285 89.2874 154.11 89.8391 154.052C90.5359 153.965 91.8716 154.197 91.7264 155.186C91.6974 155.39 91.6974 155.564 91.6974 155.768C91.6974 155.884 91.7264 156 91.7555 156.117C92.4233 155.826 93.1492 155.709 93.8461 155.884C94.1945 155.971 94.6011 156.204 94.6882 156.553C94.7753 156.902 94.543 157.338 94.3107 157.57C93.9332 157.919 93.4977 158.239 93.0912 158.559C93.3525 158.85 93.6428 159.112 93.9332 159.373C94.3397 159.693 94.7462 160.013 95.1818 160.304C95.5012 160.536 95.6754 160.798 95.6464 161.205C95.6173 161.641 95.2108 161.961 94.8914 162.194C94.4559 162.514 93.8171 162.717 93.2944 162.746C92.8879 162.775 92.2491 162.746 91.8716 162.514C91.1167 161.961 90.3617 161.35 89.6358 160.682C88.5615 161.205 87.4581 161.67 86.2966 162.019C85.5707 162.223 84.206 162.281 83.8866 161.409C83.7704 161.06 84.0608 160.624 84.2641 160.391C84.6415 160.013 85.1642 159.78 85.6578 159.635C85.803 159.577 85.9772 159.548 86.1224 159.49C86.1224 159.49 86.1224 159.49 86.1514 159.49C86.4128 159.373 86.7031 159.286 86.9645 159.17C87.2258 159.053 87.5161 158.937 87.7775 158.792V158.763ZM99.1017 71.8792C98.9565 71.7047 98.8985 71.5302 98.9565 71.2976L99.1017 70.9778C99.2759 70.7451 99.5082 70.5416 99.7405 70.3962C99.8857 70.309 100.06 70.2217 100.205 70.1636C100.466 70.0473 100.757 69.96 101.047 69.931C101.308 69.8728 101.599 69.8437 101.86 69.8437C102.092 69.8437 102.325 69.8728 102.528 69.96C102.702 69.9891 102.876 70.0764 102.993 70.2217C103.08 70.309 103.167 70.3671 103.254 70.4544C103.399 70.6288 103.457 70.8033 103.399 71.0359L103.254 71.3558C103.08 71.5884 102.847 71.7919 102.615 71.9373C102.47 72.0245 102.296 72.1118 102.151 72.1699C101.889 72.2862 101.599 72.3735 101.308 72.4026C101.047 72.4607 100.757 72.4898 100.495 72.4898C100.263 72.4898 100.031 72.4607 99.8276 72.3735C99.6534 72.3444 99.4792 72.2572 99.3631 72.1118C99.2759 72.0245 99.1888 71.9664 99.1017 71.8792ZM105.983 75.6883C106.187 75.8919 106.129 76.1826 105.983 76.3862C105.78 76.706 105.403 76.9096 105.083 77.0549C103.486 77.7819 101.628 78.1308 99.8857 77.9854C98.9856 77.8982 98.1435 77.7237 97.3014 77.4039C96.5755 77.1131 95.8787 76.6769 95.9658 75.8046C95.9658 75.4848 96.3723 75.2521 96.6046 75.0777C96.9821 74.8451 97.4466 74.6997 97.8822 74.6415C98.4048 74.5543 99.3921 74.6415 99.334 75.3685C99.334 75.2812 99.334 75.2812 99.334 75.3685C99.2759 75.3103 99.2759 75.2812 99.334 75.3685C99.363 75.4266 99.4211 75.4557 99.4792 75.5138C99.3921 75.4557 99.3921 75.4557 99.4792 75.5138C99.7115 75.6011 99.9147 75.7174 100.147 75.7755C100.205 75.7755 100.408 75.8628 100.437 75.8628C100.554 75.8628 100.67 75.9209 100.786 75.95C100.931 75.9791 101.076 76.0082 101.25 76.0372C101.279 76.0372 101.338 76.0372 101.367 76.0372C101.512 76.0372 101.628 76.0372 101.773 76.0372C101.802 76.0372 101.86 76.0372 101.947 76.0372C102.209 76.0372 102.47 75.9791 102.702 75.95C102.76 75.95 102.789 75.95 102.847 75.9209C102.964 75.9209 103.08 75.8628 103.196 75.8337C103.225 75.8337 103.254 75.8337 103.283 75.8046C103.428 75.7465 103.573 75.6883 103.719 75.6302C104.299 75.3685 105.403 75.1649 105.954 75.6592L105.983 75.6883ZM119.108 71.7919C119.079 73.2458 118.411 74.6997 117.104 75.4266C115.769 76.1826 114.026 75.9791 112.807 75.0486C111.587 74.1181 111.471 72.4898 112.197 71.2104C112.546 70.5707 113.068 69.9891 113.649 69.4948C114.288 68.9714 114.985 68.7097 115.798 68.826C115.914 68.826 116.117 68.9133 116.291 69.0005C116.959 69.1168 117.627 69.2913 118.208 69.6693C118.934 70.1636 119.108 70.9196 119.079 71.7629L119.108 71.7919ZM91.0876 66.4708C91.378 67.1395 91.1167 67.9828 90.9134 68.6516C90.565 69.7274 89.9842 70.8324 88.968 71.4139C88.2421 71.821 87.4871 71.7919 86.7031 71.5302C86.0934 71.2976 85.4255 70.8905 85.048 70.3381C84.6706 69.8147 84.7867 69.0296 84.8448 68.4189C84.9319 67.7792 85.1061 67.1395 85.4546 66.5871C86.2095 65.453 87.5161 65.046 88.8228 65.3949C88.8228 65.3949 88.8809 65.3949 88.9099 65.424C88.9099 65.424 88.9099 65.424 88.9389 65.424C89.752 65.3367 90.7392 65.7438 91.0876 66.4998V66.4708ZM92.3943 63.941C92.3943 63.941 92.133 63.7666 92.0458 63.7375C88.968 62.6907 85.3094 62.0219 82.4057 63.941C79.8215 65.6566 78.8052 69.6402 80.0247 72.4607C81.1281 75.0777 84.0027 76.6479 86.7902 76.6769C89.81 76.6769 92.5104 75.0195 93.9623 72.4316C95.4431 69.7856 96.0529 65.046 92.3943 63.9701V63.941ZM92.8298 71.443C91.7845 73.711 89.7229 75.4848 87.2258 75.8919C84.8158 76.2699 82.5219 75.0486 81.4765 72.8387C80.4022 70.5125 80.9539 67.1395 82.6961 65.2786C85.019 62.807 88.6195 63.185 91.5232 64.1736C91.5232 64.1736 91.5522 64.1736 91.5813 64.1736C91.7264 64.319 92.0168 64.4063 92.1039 64.4353C93.4686 64.7843 93.759 66.7325 93.7009 67.8956C93.6429 69.1168 93.3525 70.309 92.8298 71.4139V71.443ZM119.921 66.9651C119.921 66.9651 119.689 66.9069 119.543 66.9069C119.456 66.8488 119.34 66.7906 119.282 66.7615C117.83 66.2672 116.524 66.0927 115.014 66.1509C113.591 66.2381 112.081 66.3544 110.832 67.1105C108.161 68.7388 107.377 73.1295 108.713 75.8046C110.019 78.4216 112.981 79.8464 115.827 79.701C118.614 79.5556 121.692 77.84 122.505 75.0195C122.941 73.5657 123.173 71.6175 122.766 70.1345C122.389 68.7679 121.344 67.3431 119.95 66.936L119.921 66.9651ZM121.199 74.2344C120.705 76.5606 118.73 78.218 116.495 78.8287C113.997 79.5556 111.413 78.5379 110.165 76.2117C108.916 73.9146 109.41 70.3962 111.152 68.448C112.11 67.4012 113.446 67.0232 114.81 66.9069C116.175 66.7906 117.424 66.7615 118.73 67.2268C118.847 67.2559 119.079 67.3431 119.282 67.3431C119.427 67.4303 119.631 67.5175 119.718 67.5466C120.153 67.6629 120.589 68.5062 120.792 68.8551C121.082 69.3785 121.315 69.9019 121.402 70.5125C121.576 71.7047 121.402 73.0713 121.14 74.2344H121.199Z" fill="#333333"/>
</g>
<defs>
<clipPath id="clip0_134_9">
<rect width="198" height="220" fill="white"/>
</clipPath>
</defs>
</svg>
