<svg width="241" height="153" viewBox="0 0 241 153" fill="none" xmlns="http://www.w3.org/2000/svg">
<g clip-path="url(#clip0_134_18)">
<path d="M196.892 34.8537C196.892 34.8537 196.863 34.8537 196.834 34.8537C196.863 34.8537 196.921 34.8537 196.95 34.8537C196.95 34.8537 196.921 34.8537 196.892 34.8537ZM197.53 34.8829C197.53 34.8829 197.472 34.8829 197.443 34.8829C197.443 34.8829 197.472 34.8829 197.501 34.8829H197.53ZM180.605 37.3662C180.605 37.3662 180.576 37.3662 180.547 37.3662C180.547 37.3662 180.576 37.3662 180.605 37.3662ZM180.46 37.4246C180.46 37.4246 180.431 37.4246 180.402 37.4246C180.402 37.4246 180.402 37.4246 180.431 37.4246H180.46ZM180.547 37.3954C180.547 37.3954 180.489 37.3954 180.46 37.4538C180.46 37.4538 180.489 37.4538 180.518 37.4538C180.518 37.4538 180.518 37.4538 180.547 37.4246V37.3954ZM180.489 37.4246C180.489 37.4246 180.489 37.4246 180.46 37.4246H180.489ZM237.841 90.9469C235.986 93.4302 231.118 94.5403 228.452 95.709C221.033 98.9811 213.614 102.195 206.166 105.408C187.879 113.297 169.448 120.776 151.016 128.313C127.571 137.925 104.213 150.137 78.6525 152.416C66.7416 153.467 54.5989 152.912 42.7749 150.984C33.2404 149.406 23.4161 147.128 14.9249 142.307C12.2297 140.788 17.5041 137.954 19.5038 139.094C29.1832 144.557 40.8332 146.719 51.7298 147.975C64.713 149.465 78.1019 149.494 90.9112 146.748C94.2729 146.018 97.5766 145.141 100.851 144.177C99.5473 127.407 98.475 109.937 104.909 94.4235C107.256 88.785 111.11 83.1172 116.993 81.598C123.949 79.7867 131.252 84.7533 134.584 91.1806C137.917 97.6079 138.236 105.145 138.497 112.391C138.7 118.088 138.902 123.756 139.076 129.453C141.424 128.43 143.8 127.407 146.148 126.385C144.496 110.258 144.843 91.7941 149.248 76.1056C149.857 73.9436 150.553 71.7233 151.973 69.8827C153.711 67.6331 156.754 64.9453 159.478 63.6891C164.782 61.235 171.447 60.8552 175.997 64.3026C178.692 66.3477 179.707 69.5906 180.46 72.629C183.59 85.0162 184.952 97.754 184.546 110.463C188.691 108.71 192.835 106.928 196.95 105.145C195.472 88.9018 195.733 78.6181 198.979 65.8218C199.413 64.0981 200.978 60.826 201.906 59.2192C203.847 55.8886 207.818 54.2526 212.165 53.5806C216.512 52.9087 221.235 54.0773 224.452 56.6482C228.075 59.5405 229.611 63.7767 230.654 67.8669C232.654 75.7842 233.088 82.0947 232.335 89.7198C232.451 89.6614 232.567 89.603 232.683 89.5445C232.77 89.4861 232.943 89.4569 233.088 89.3985C232.972 89.2524 233.059 88.785 233.117 88.3759C233.32 87.2073 233.987 86.0095 234.277 84.8117C235.378 80.371 235.001 75.8426 234.74 71.3435C234.421 66.0263 234.248 60.9429 232.77 55.801C230.915 49.3152 228.133 42.9171 224.829 37.0156C224.771 36.8988 224.713 36.7819 224.684 36.665C223.38 37.8336 221.612 38.3011 219.931 38.6517C217.439 39.1775 213.527 39.3528 211.817 37.1033C210.078 38.5056 207.731 39.2068 205.528 39.1191C203.702 39.0315 202.022 38.2427 200.63 37.1033C200.515 37.0156 200.37 36.8988 200.254 36.7819C199.326 37.4831 198.167 37.9213 197.037 38.0089C195.704 38.0966 194.458 37.746 193.269 37.1617C192.632 37.7752 191.647 38.0674 190.835 38.1842C189.444 38.3595 187.995 38.418 186.604 38.2719C185.966 38.2134 185.3 38.0382 184.691 37.8044C184.286 38.4764 183.706 39.0315 183.068 39.4697C181.59 40.4046 179.881 40.726 178.171 40.6967C176.49 40.6967 174.809 40.6091 173.273 39.7911C172.751 39.4989 172.259 39.0899 171.882 38.5932C171.244 39.1775 170.578 39.6742 169.738 40.0248C168.317 40.6383 166.521 41.0473 164.869 40.8136C164.115 41.544 163.188 42.1283 162.203 42.5373C160.956 43.034 159.623 43.3553 158.29 43.4137C157.943 43.4137 157.566 43.4137 157.218 43.3845C157.16 43.5598 157.102 43.7059 157.015 43.8228C156.667 44.4071 156.262 44.9037 155.769 45.3712C154.726 46.3353 153.48 46.9488 152.146 47.387C151.712 47.6792 151.132 47.8837 150.813 47.9421C148.901 48.4972 146.901 48.7893 144.901 48.7309C144.757 48.7309 144.612 48.7309 144.467 48.7017C144.235 49.1691 143.974 49.6366 143.597 50.0456C142.583 51.1558 141.192 51.8569 139.772 52.3244C137.28 53.1132 134.787 52.8503 132.44 52.003C131.194 53.8728 128.759 54.8953 126.615 55.4504C124.876 55.8886 123.021 56.0347 121.225 55.9763C119.196 59.4237 114.878 61.3227 110.821 61.0597C110.241 62.725 108.821 64.0105 107.285 64.7993C105.72 65.5881 104.01 65.851 102.3 65.8802C101.982 67.7792 100.359 69.3861 98.6199 70.2333C96.5913 71.2266 94.4467 71.2851 92.3022 70.9637C91.8965 72.5121 90.8532 73.8852 89.5201 74.8201C87.4625 76.2809 84.9122 76.7191 82.4199 76.7191C81.0579 79.2024 78.3337 80.78 75.4936 81.1598C74.943 82.6205 73.3491 83.6431 71.8132 84.1105C69.9584 84.6656 67.9878 84.6948 66.0461 84.5195C65.0607 87.9377 61.5541 89.9828 58.0185 90.0704C57.5549 92.6998 55.0336 94.7156 52.5413 95.5921C48.542 97.0236 43.9341 96.7607 39.761 96.2933C39.2973 96.3517 38.8336 96.4101 38.3989 96.4101C31.9653 96.5854 25.6186 96.4686 19.5617 94.4235C11.9109 105.934 8.95493 121.769 15.5045 134.302C16.3739 135.968 9.8823 138.217 8.78105 136.114C1.6519 122.499 5.6222 105.087 14.3163 93.0504C14.4902 92.8167 14.722 92.6414 14.9538 92.4661C12.0848 91.0345 9.24473 89.3985 6.66549 87.4995C4.05726 85.6005 1.7968 82.7958 2.28947 79.3777C2.57927 77.391 9.09983 76.9236 9.01289 77.5663C8.52023 81.0429 10.7807 83.7015 13.4469 85.5713C16.1131 87.4411 18.9821 89.1355 21.8801 90.5671C28.5456 93.8392 35.5009 93.956 42.7749 93.7807C43.4704 93.7807 43.7892 93.956 43.8472 94.219C48.1652 94.5696 55.4103 94.4819 53.6715 88.8434C53.2368 87.4118 56.6275 86.886 57.4389 87.2658C60.4239 88.7265 62.0758 86.0387 62.1048 83.2633C62.1048 82.0655 64.713 81.7149 65.4955 81.861C67.0024 82.1531 72.016 83.3217 71.4074 80.5171C71.1176 79.1732 73.9577 78.6181 74.7981 78.8226C77.0296 79.3484 78.5076 77.4495 78.9423 75.4044C79.1741 74.2942 81.7824 73.6807 82.7677 74.1774C84.1298 74.265 85.7237 74.2942 86.8539 73.4178C88.0131 72.5121 88.4768 70.9345 88.1001 69.5321C87.7233 68.1006 90.5634 67.4579 91.4618 67.75C92.8818 68.1882 95.1713 69.1231 96.6203 68.4512C97.8664 67.8669 98.3011 66.2893 97.9244 65.0622C97.5187 63.806 100.011 63.1048 100.822 63.1924C103.402 63.4554 106.85 63.6599 106.879 60.1248C106.879 58.9562 109.343 58.1966 110.502 58.7517C110.763 58.7517 111.023 58.7809 111.255 58.8686C112.762 59.5698 114.269 59.9203 115.602 58.8102C116.906 57.7292 117.805 56.1516 118.124 54.4863C118.298 53.6391 122.094 52.4705 122.326 53.3469C122.731 54.8369 125.34 54.574 126.499 54.2818C127.948 53.9312 128.933 52.3244 129.078 50.9221C129.165 50.0456 131.773 49.3152 132.846 49.5489C133.396 49.4321 133.976 49.4029 134.411 49.6074C135.715 50.2501 137.917 51.2142 139.134 50.7176C140.351 50.2209 140.844 48.2635 141.076 46.8904C141.221 46.1308 142.641 45.7802 143.221 45.6633C143.858 45.5172 144.872 45.3712 145.278 46.0139C145.713 46.7151 146.64 46.7443 147.365 46.7151C148.408 46.7151 149.422 46.5398 150.437 46.2476C150.553 46.2184 150.813 46.16 151.103 46.1308C151.132 46.1308 151.161 46.1308 151.19 46.1308C152.146 45.8678 152.9 44.7284 153.277 43.8812C153.509 43.3845 153.595 42.8879 154.001 42.4789C154.581 41.8653 155.537 41.544 156.32 41.3687C157.189 41.1934 157.914 41.2518 158.754 41.4271C159.276 41.5148 159.942 41.7193 160.493 41.544C161.391 41.281 162 40.1416 162.29 39.3236C162.637 38.3303 165.564 37.5123 166.347 38.2427C166.608 38.4764 166.868 38.6809 167.187 38.827C167.39 38.9146 167.825 38.9146 167.97 39.0315C168.057 38.9438 168.26 38.827 168.346 38.7685C169.361 37.8921 169.911 36.6358 170.317 35.3796C170.694 34.211 174.809 33.6851 174.461 34.7076C174.461 34.766 174.403 34.8245 174.374 34.9121C174.577 34.9706 174.78 35.029 174.925 35.1458C175.331 35.438 175.418 35.7886 175.447 36.256C175.447 35.9639 175.534 36.3729 175.534 36.4605C175.563 36.519 175.621 36.6358 175.649 36.665C175.707 36.7527 175.765 36.8111 175.823 36.8988C175.823 36.928 175.852 36.928 175.881 36.9572C175.939 37.0156 175.997 37.0448 176.055 37.1033C176.142 37.1617 176.229 37.2201 176.287 37.2786C176.287 37.2786 176.287 37.2786 176.316 37.2786C176.432 37.3078 176.548 37.3662 176.635 37.3954C176.635 37.3954 176.751 37.4246 176.809 37.4538C176.867 37.4538 176.983 37.4831 176.983 37.4831C177.127 37.4831 177.272 37.5415 177.417 37.5415C177.649 37.5415 177.881 37.5707 178.142 37.5999C178.258 37.5999 178.374 37.5999 178.49 37.5999C178.982 37.5999 179.475 37.5707 179.997 37.5123C179.997 37.5123 179.997 37.5123 180.025 37.5123C180.141 37.5123 180.228 37.4538 180.344 37.4246C180.373 37.4246 180.373 37.4246 180.402 37.4246C180.344 37.4831 180.344 37.4538 180.402 37.4246C180.46 37.4246 180.46 37.4246 180.402 37.4246C180.402 37.4246 180.402 37.4246 180.431 37.3954H180.489C180.489 37.3954 180.489 37.3954 180.46 37.3954C180.518 37.337 180.576 37.3078 180.634 37.2493C180.663 37.1909 180.75 37.1033 180.779 37.0448C180.808 36.928 180.866 36.8111 180.924 36.7235C180.808 37.0156 180.924 36.5774 180.924 36.4313C180.924 35.9931 181.185 35.6717 181.503 35.4088C181.475 35.3211 181.388 35.2627 181.359 35.1751C181.243 34.8537 181.619 34.5615 181.793 34.3863C182.199 34.0357 182.721 33.8604 183.213 33.7143C183.793 33.539 185.242 33.2761 185.561 34.0357C185.995 35.1458 186.923 35.7886 187.937 36.1392C188.517 36.3437 189.27 36.4021 189.647 36.4021C189.705 36.4021 189.763 36.4021 189.792 36.4021C189.879 36.1684 189.966 35.9054 190.024 35.6717C190.082 35.4964 190.198 35.3504 190.342 35.2335C190.053 34.8537 189.821 34.4155 189.734 33.9188C189.56 32.8378 190.487 32.1367 191.444 31.8445C191.936 31.6985 192.574 31.6985 193.038 31.8737C193.385 32.0198 193.878 32.3412 193.936 32.7794C193.936 32.8963 193.994 33.0131 194.023 33.13C194.081 33.2176 194.139 33.3053 194.197 33.3637C194.197 33.3637 194.197 33.3929 194.255 33.4221C194.255 33.4221 194.4 33.5682 194.429 33.5682C194.516 33.6559 194.632 33.7143 194.719 33.8019C194.892 33.9188 195.095 34.0649 195.269 34.1817C195.443 34.2986 195.675 34.4447 195.878 34.5323C195.878 34.5323 195.907 34.5323 195.936 34.5323C196.052 34.5908 196.168 34.62 196.254 34.6784C196.37 34.7368 196.486 34.766 196.602 34.7953C196.602 34.7953 196.602 34.7953 196.66 34.7953H196.602C196.602 34.7953 196.66 34.7953 196.718 34.7953C196.776 34.7953 196.805 34.7953 196.776 34.7953C196.892 34.7953 197.066 34.8245 197.182 34.8537C197.211 34.8537 197.24 34.8537 197.269 34.8537C197.269 34.8537 197.298 34.8537 197.327 34.8537C197.327 34.8537 197.327 34.8537 197.356 34.8537C197.356 34.8537 197.385 34.8245 197.414 34.7953C197.472 34.7368 197.53 34.6492 197.588 34.5908C197.646 34.5031 197.675 34.4155 197.732 34.2986C197.819 34.0941 197.906 33.8604 197.993 33.6267C198.051 33.4222 198.138 33.2176 198.196 33.0131C198.196 32.9839 198.196 33.0131 198.196 32.9547C197.964 32.1951 198.689 31.4063 199.297 31.0557C200.167 30.5883 201.5 30.5883 202.166 31.4063C202.369 31.64 202.427 31.9322 202.456 32.1951C202.601 32.2828 202.688 32.3996 202.601 32.6041C202.051 33.7727 203.442 34.9121 204.195 35.5841C205.151 36.4021 206.195 37.1033 207.441 37.3954C207.557 37.4246 207.673 37.4538 207.789 37.4538C207.789 37.4538 207.876 37.4538 207.934 37.4538L207.991 37.4246C208.136 37.3078 208.339 37.1033 208.484 36.9572C209.267 36.1392 209.788 35.1458 210.31 34.1817C210.716 33.4221 212.02 33.1592 212.773 33.0131C213.005 32.9839 214.831 32.7502 214.454 33.4514C214.367 33.5974 214.28 33.7435 214.193 33.8896C214.657 33.948 215.005 34.1525 215.092 34.5031C215.497 36.5482 217.497 37.1033 219.294 36.7527C220.018 36.6066 221.033 36.5774 221.438 35.8762C221.873 35.1166 221.786 34.2402 221.438 33.4806C220.888 32.2535 224.771 31.1434 225.496 32.1075C226.075 32.8378 226.771 33.4222 227.553 33.8896C228.625 33.7143 229.64 33.9188 230.045 34.6784C230.103 34.766 230.132 34.8537 230.19 34.9413C230.828 35.029 231.494 35.0582 231.958 34.7368C233.001 34.0357 232.306 31.4063 232.045 30.413C231.61 28.7769 230.828 27.287 229.785 25.9723C225.409 19.9832 220.047 15.075 213.411 11.7445C210.078 10.0792 206.6 8.82295 203.036 7.77121C198.805 6.54417 194.284 5.14184 189.821 5.40477C188.72 5.46321 188.227 5.17105 188.169 4.73282C187.213 4.93733 186.227 4.99576 185.329 4.84969C186.111 4.99576 184.517 4.70361 183.967 4.64518C182.228 4.38224 180.518 4.17774 178.779 4.00244C172.549 3.35971 166.289 3.06756 160.029 3.06756C140.873 3.06756 121.659 5.40477 103.025 9.84548C81.1738 15.0458 59.2937 22.671 40.0218 34.4739C29.2701 41.0473 18.6343 49.2276 11.5921 59.9203C9.76638 62.6958 4.83973 69.9704 6.98427 73.6223C7.6798 74.7909 1.33312 77.2742 0.260848 75.4336C-0.753462 73.7099 0.260848 70.7592 0.840454 69.0647C2.31845 64.7408 4.89769 60.7676 7.6798 57.1741C16.7506 45.4004 29.5019 36.665 42.3692 29.6534C63.7856 17.9673 87.5205 10.3129 111.284 5.40477C130.15 1.54837 149.277 -0.35062 168.346 0.058393C175.881 0.233684 183.561 0.613482 191.009 2.01581C191.734 2.16189 191.734 2.51247 191.473 2.92148C196.052 2.80462 200.515 3.85637 204.92 5.08341C208.687 6.13515 212.396 7.42062 215.961 9.08589C223.206 12.5041 229.147 17.7628 233.871 24.2194C233.871 24.2194 233.871 24.2194 233.871 24.2486C235.349 26.0891 236.392 28.2803 236.74 30.6175C236.914 31.7569 237.03 33.0716 236.508 34.1233C235.986 35.1458 234.943 35.847 233.929 36.2852C233.175 36.6066 232.393 36.8403 231.581 36.9864C235.204 43.7935 238.305 51.1558 239.754 58.6933C240.855 64.361 240.855 70.467 240.971 76.2224C241.087 80.7216 240.623 87.1489 237.812 90.9177L237.841 90.9469ZM178.2 37.5999C178.026 37.5999 177.997 37.5999 178.2 37.5999ZM197.588 34.8829C197.588 34.8829 197.617 34.8829 197.646 34.8829C197.646 34.8829 197.646 34.8829 197.617 34.8829H197.588ZM197.472 34.9121H197.443C197.385 34.9413 197.356 34.9706 197.501 34.9121H197.472ZM198.457 33.0424C198.457 33.0424 198.486 33.2176 198.544 33.3053C198.486 33.2176 198.486 33.13 198.457 33.0424ZM14.664 72.0446C14.3163 73.9728 17.1274 74.1189 18.3156 74.0021C28.9803 72.8627 39.732 73.3885 50.2228 75.492C52.1935 75.9011 54.6858 75.3167 56.1638 73.8852C57.4099 72.6874 57.1201 71.0805 55.3234 70.73C43.4994 68.3635 31.3857 67.8084 19.3878 69.0939C17.8229 69.2692 14.9538 70.1749 14.6351 72.0446H14.664ZM100.793 16.2728C99.895 16.3605 98.0693 16.9448 97.9534 18.055C97.8085 19.2236 99.3734 19.3112 100.156 19.2236C107.372 18.4932 114.965 20.1877 121.891 22.1159C129.484 24.2194 137.164 27.1409 143.626 31.7861C145.017 32.8086 149.654 30.7344 147.626 29.2444C140.757 24.2778 132.44 21.2686 124.354 19.0775C116.82 17.0324 108.676 15.484 100.851 16.2728H100.793ZM129.687 13.2052C128.788 13.2929 126.963 13.8772 126.847 14.9874C126.702 16.156 128.267 16.2436 129.049 16.156C135.164 15.5424 141.424 17.3538 147.046 19.6618C153.393 22.2619 159.363 25.7093 164.898 29.741C166.289 30.7636 170.926 28.6893 168.897 27.1993C157.914 19.1943 143.684 11.8029 129.716 13.2052H129.687ZM150.495 10.1376C149.596 10.2253 147.77 10.8096 147.655 11.9198C147.51 13.0884 149.075 13.176 149.857 13.0884C155.972 12.4749 162.232 14.2862 167.854 16.5942C174.2 19.1943 180.17 22.6417 185.706 26.6734C187.097 27.696 191.734 25.6217 189.705 24.1317C178.721 16.1268 164.492 8.73531 150.524 10.1376H150.495ZM196.341 18.2595C201.181 20.7135 205.615 23.9856 209.991 27.1993C211.382 28.2218 216.019 26.1476 213.99 24.6576C209.498 21.3855 204.978 18.055 200.022 15.5717C195.327 13.2344 190.256 11.7737 185.155 10.6927C183.996 10.459 182.46 10.7804 181.59 11.6568C180.837 12.3872 181.011 13.3221 182.083 13.5558C187.01 14.6076 191.849 15.9807 196.341 18.2595ZM23.3291 61.4687C22.9814 63.1924 25.9084 63.0756 26.8647 62.9003C42.5141 60.1248 58.4243 60.2709 74.0157 63.2509C75.8704 63.6015 78.5076 62.9003 79.9566 61.644C81.2607 60.5046 80.9999 59.4237 79.2901 59.1023C62.4235 55.8886 45.0644 55.801 28.1689 58.8102C26.7778 59.0439 23.6769 59.745 23.3291 61.4687ZM42.8329 47.2409C41.8475 48.9062 43.6733 49.6366 45.0933 49.6366C61.0035 49.5197 76.7978 51.3019 92.2732 54.9245C94.1569 55.3628 96.8231 54.6616 98.2142 53.3177C99.4893 52.0907 99.1995 50.8344 97.4317 50.4254C81.3477 46.6566 64.8869 44.8453 48.3681 44.9329C46.6003 44.9329 43.8182 45.5172 42.8039 47.2117L42.8329 47.2409ZM57.7287 35.6425C54.5699 37.074 57.41 39.4989 59.8733 38.3595C63.4668 36.7235 67.7849 37.2201 71.6103 37.5123C75.4647 37.8044 79.319 38.3303 83.1444 39.0023C91.0561 40.4338 98.8228 42.6834 106.503 45.1667C108.502 45.8094 112.443 42.9171 109.459 41.953C100.822 39.1775 92.0704 36.7527 83.1155 35.2627C78.6815 34.5323 74.1895 34.0357 69.6976 33.8896C65.5824 33.7435 61.5252 33.8896 57.6998 35.6717L57.7287 35.6425ZM79.6958 24.4823C78.7394 24.5699 76.8557 24.8037 76.3341 25.7678C75.8414 26.7027 76.7398 27.024 77.6092 26.9364C93.9251 25.4172 110.241 28.1926 125.166 34.9706C126.441 35.5549 131.049 33.5682 129.252 32.7502C113.748 25.7093 96.6203 22.8755 79.6958 24.4823Z" fill="#333333"/>
</g>
<defs>
<clipPath id="clip0_134_18">
<rect width="241" height="153" fill="white"/>
</clipPath>
</defs>
</svg>
