<svg width="358" height="169" viewBox="0 0 358 169" fill="none" xmlns="http://www.w3.org/2000/svg">
<path d="M42.4619 82.8706C42.9419 82.8706 43.4059 82.9266 43.8819 82.9426C44.1939 63.4547 51.2497 44.6772 63.8482 29.806C76.4468 14.9348 93.8095 4.88909 112.981 1.37864C132.153 -2.1318 151.948 1.10999 168.999 10.5522C186.049 19.9945 199.301 35.0537 206.498 53.1666C214.734 46.0208 224.618 41.0354 235.26 38.6589C245.902 36.2824 256.968 36.5896 267.462 39.5528C277.956 42.5159 287.548 48.042 295.375 55.6337C303.203 63.2254 309.019 72.6443 312.302 83.0426C313.314 82.9706 314.322 82.8906 315.35 82.8906C326.649 82.9997 337.448 87.5649 345.4 95.5935C353.351 103.622 357.812 114.465 357.812 125.765C357.812 137.064 353.351 147.907 345.4 155.936C337.448 163.964 326.649 168.529 315.35 168.639H42.4619C31.1627 168.529 20.3634 163.964 12.412 155.936C4.46063 147.907 0 137.064 0 125.765C0 114.465 4.46063 103.622 12.412 95.5935C20.3634 87.5649 31.1627 82.9997 42.4619 82.8906V82.8706Z" fill="white"/>
</svg>
