<svg width="498" height="228" viewBox="0 0 498 228" fill="none" xmlns="http://www.w3.org/2000/svg">
<path d="M182.634 142.208C183.114 142.208 183.578 142.264 184.054 142.28C184.366 122.793 191.422 104.015 204.021 89.1439C216.619 74.2727 233.982 64.227 253.153 60.7165C272.325 57.2061 292.121 60.4479 309.171 69.8901C326.222 79.3324 339.473 94.3916 346.67 112.504C354.907 105.359 364.791 100.373 375.433 97.9968C386.075 95.6203 397.141 95.9275 407.634 98.8907C418.128 101.854 427.721 107.38 435.548 114.972C443.375 122.563 449.192 131.982 452.474 142.38C453.486 142.308 454.494 142.228 455.522 142.228C466.821 142.338 477.621 146.903 485.572 154.931C493.523 162.96 497.984 173.803 497.984 185.103C497.984 196.402 493.523 207.245 485.572 215.274C477.621 223.302 466.821 227.867 455.522 227.977H182.634C171.335 227.867 160.536 223.302 152.584 215.274C144.633 207.245 140.172 196.402 140.172 185.103C140.172 173.803 144.633 162.96 152.584 154.931C160.536 146.903 171.335 142.338 182.634 142.228V142.208Z" fill="white"/>
<path d="M39.2784 75.1805C40.2104 75.1805 41.1224 75.2565 42.0384 75.3205C45.0137 65.8888 50.2881 57.3451 57.3866 50.4589C64.4852 43.5726 73.185 38.56 82.7027 35.8724C92.2204 33.1848 102.257 32.9066 111.909 35.0628C121.561 37.2191 130.525 41.742 137.994 48.2245C144.058 32.9519 154.883 20.0404 168.863 11.4048C182.844 2.76921 199.235 -1.13062 215.606 0.28368C231.978 1.69799 247.457 8.35111 259.749 19.2564C272.041 30.1616 280.492 44.7382 283.846 60.8245C271.785 58.5276 259.368 58.9004 247.466 61.9165C235.564 64.9326 224.468 70.5189 214.956 78.2828C205.445 86.0466 197.749 95.7995 192.411 106.856C187.072 117.912 184.22 130.004 184.054 142.28C183.578 142.28 183.114 142.208 182.634 142.208C172.211 142.204 162.147 146.015 154.342 152.924H39.2784C34.1391 152.977 29.0405 152.009 24.2774 150.079C19.5143 148.148 15.1812 145.292 11.5286 141.677C7.87609 138.061 4.97655 133.757 2.99771 129.014C1.01888 124.27 0 119.182 0 114.043C0 108.903 1.01888 103.814 2.99771 99.0712C4.97655 94.3279 7.87609 90.024 11.5286 86.4083C15.1812 82.7926 19.5143 79.9368 24.2774 78.0062C29.0405 76.0756 34.1391 75.1084 39.2784 75.1605V75.1805Z" fill="#F3F3F3"/>
</svg>
