<svg width="132" height="235" viewBox="0 0 132 235" fill="none" xmlns="http://www.w3.org/2000/svg">
<path opacity="0.9" d="M22.1981 176L120.144 176C120.144 176 118.731 180.709 121.321 181.415C123.911 182.121 119.908 183.534 120.85 184.476C121.792 185.417 124.382 186.83 124.382 186.83C124.382 186.83 122.72 187.536 123.433 188.949C124.147 190.362 122.027 187.772 124.147 190.362C126.266 192.952 125.531 196.484 125.531 196.484C125.531 196.484 123.866 197.19 125.654 198.838C127.443 200.486 127.443 203.782 127.443 203.782C127.443 203.782 135.684 212.73 127.443 212.73C119.203 212.73 11.6033 212.73 4.06911 212.73C-3.46536 212.73 1.24365 211.081 4.06911 207.55C6.89458 204.018 -3.22995 202.841 2.42068 200.486C8.07132 198.132 11.3676 202.135 8.07132 198.132C4.77533 194.129 3.59801 195.306 4.77533 194.129C5.95237 192.952 6.34801 192.952 6.9744 192.246C7.6008 191.539 8.30702 188.243 8.30702 188.243C8.30702 188.243 10.426 187.301 11.8387 187.066C13.2514 186.83 13.2514 184.947 13.2514 184.947C13.2514 184.947 13.2514 180.944 15.6058 179.296C17.9599 177.648 15.3701 176 22.1981 176Z" fill="#BD9E82"/>
<path opacity="0.1" d="M4.06862 207.55C6.89409 204.018 -3.23015 202.841 2.42049 200.487C8.07112 198.132 11.3674 202.135 8.07112 198.132C4.77484 194.129 3.59752 195.307 4.77484 194.129C5.95217 192.952 6.34781 192.952 6.97421 192.246C7.60031 191.54 8.30653 188.243 8.30653 188.243C8.30653 188.243 10.4255 187.302 11.8382 187.066C13.2509 186.83 13.2509 184.947 13.2509 184.947C13.2509 184.947 13.2509 180.944 15.6053 179.297C17.96 177.648 15.3699 176 22.1981 176L41.4179 176C74.348 199.641 109.047 208.742 130.009 212.219C129.432 212.532 128.621 212.73 127.443 212.73C119.202 212.73 11.6031 212.73 4.06862 212.73C-3.46585 212.73 1.24316 211.082 4.06862 207.55Z" fill="white"/>
<path d="M45 94.5L54 85.5L55 84.5L60 82.5L63.5 81.5H68H74L79.5 83L88 86L93.5 89.5L97.5 96.5V102.5L96.5 108.5V123L110 144V164L108 177L100.5 184.5L95.5 193.5L83.5 195L75 196.5L63 200.5L49 197.5L34 178L30.5 158L35 147.5L40 114L41 103L45 94.5Z" fill="white"/>
<path d="M62.2001 99.3139C62.2001 99.3139 62.1793 99.5021 62.1584 99.6067C62.2627 99.8368 62.4505 99.9623 62.7008 100.004C62.8677 100.025 63.0555 100.046 63.2224 100.088C63.3476 100.088 63.4519 100.067 63.5771 100.067C63.6397 100.067 63.7023 100.088 63.7648 100.109C64.0569 100.172 64.3281 100.192 64.6202 100.172C64.9749 100.172 65.3504 100.151 65.7051 100.067C66.1223 100.004 66.5187 99.8996 66.9151 99.7532C67.2907 99.6486 67.6662 99.5021 68 99.3348L68.5633 99.0211C68.8345 98.8537 69.064 98.6445 69.2309 98.3726C69.2309 98.268 69.2518 98.1844 69.2726 98.0798C69.1683 97.8497 68.9805 97.7242 68.7302 97.6823C68.6467 97.6405 68.5424 97.6196 68.459 97.5987C68.2086 97.5359 67.9374 97.515 67.6662 97.4732C67.3532 97.4523 67.0612 97.4732 66.7482 97.4732C66.4144 97.4732 66.0598 97.5359 65.7259 97.5987C65.3087 97.6614 64.9123 97.766 64.5159 97.9124C64.1404 98.017 63.7648 98.1634 63.431 98.3308C63.139 98.4563 62.8886 98.6236 62.6591 98.8119C62.4713 98.9374 62.3253 99.0838 62.2001 99.293V99.3139ZM64.5368 99.9832C64.3907 99.9832 64.2655 100.025 64.1195 100.046C63.9943 100.046 63.8692 100.046 63.744 100.046C64.0152 100.046 64.2656 100.046 64.5368 99.9832ZM54.0636 94.9631C57.2974 91.5327 60.1139 92.2439 61.2822 92.2857C62.7008 92.3485 63.5771 94.0009 62.3879 94.0637C61.1987 94.1264 60.1764 95.1723 59.5088 96.0508C58.6743 97.1385 58.8621 100.276 55.6909 101.468C52.2486 102.765 50.8508 98.3935 54.0845 94.9422L54.0636 94.9631ZM70.7122 92.3694C71.8179 92.3275 75.1142 91.3653 78.1602 94.482C81.2061 97.5987 79.2659 101.887 76.053 100.715C73.0696 99.6277 73.4452 96.511 72.6733 95.5279C72.0474 94.733 71.1711 94.0218 70.0654 93.9591C68.9597 93.8963 69.4187 92.4112 70.733 92.3694H70.7122ZM70.9834 104.857C71.0668 105.108 70.8373 105.338 70.6704 105.484C70.4201 105.735 69.982 105.903 69.669 105.986C69.2935 106.091 68.918 106.112 68.5424 106.07C68.3338 106.049 68.146 106.028 67.9374 106.007C67.9165 106.007 67.8957 106.007 67.8748 106.007C67.7705 106.007 67.687 106.007 67.5827 105.986C67.1863 105.966 66.8108 105.945 66.4144 105.924C66.018 105.924 65.6008 105.924 65.2044 105.924C65.0166 105.924 64.808 105.924 64.6202 105.924C64.5159 105.924 64.4325 105.924 64.3281 105.924C64.2238 105.924 63.9109 105.945 64.3281 105.924C63.9109 105.945 62.9303 105.986 63.0346 105.317C63.0764 105.066 63.431 104.815 63.6188 104.69C63.9317 104.501 64.3907 104.334 64.7663 104.313C66.6648 104.188 68.5424 104.229 70.4201 104.46C70.6496 104.48 70.9208 104.627 71.0042 104.857H70.9834ZM125.289 131.547C124.622 129.602 123.558 127.824 122.16 126.318C118.613 122.49 110.769 115.211 100.901 113.036C98.4805 112.492 97.7086 110.421 97.5208 108.559C99.8575 103.539 100.525 97.9961 97.7086 93.0178C96.3317 90.5914 94.2454 88.6461 91.867 87.0355C92.9728 86.9727 94.0576 86.7426 95.1008 86.3661C97.3957 85.5085 99.9201 83.6887 99.5445 80.9067C99.2316 78.6267 97.0827 77.0789 94.9756 76.6605C93.39 76.3258 91.7419 76.4095 90.1563 76.6605C88.3412 76.9534 86.1298 77.56 84.8571 79.0242C84.1269 79.8609 83.7097 80.9276 83.8557 82.0363C83.9183 82.5173 84.1269 82.9148 84.3981 83.2913C83.6054 82.9984 82.8334 82.7265 82.0615 82.4755C75.5732 80.3838 68.7093 79.9236 61.9915 80.9276C61.3656 81.0322 60.8232 81.4087 60.5728 81.7852C59.9678 81.9317 59.3837 82.1199 58.7995 82.3082C59.3211 81.4087 59.6966 80.4256 59.8218 79.3588C59.947 78.2921 59.8218 77.0998 59.4045 76.1167C59.0498 75.3218 58.6535 74.6943 57.9233 74.1923C57.3182 73.7739 56.6089 73.4811 55.8996 73.3138C52.4989 72.4562 48.8688 73.4183 46.3861 75.9075C45.3639 76.9324 44.7171 78.1875 44.3416 79.568C44.0286 80.6766 43.9035 82.099 44.3416 83.1867C44.738 84.128 45.489 84.6718 46.3444 85.132C47.0955 85.5294 47.8674 85.885 48.681 86.136C49.4947 86.3661 50.3083 86.5335 51.1428 86.6171C46.3027 90.445 42.5265 95.8626 40.0021 101.28C38.3122 104.962 37.7698 108.706 38.6878 112.324C33.7224 113.475 12.5467 119.457 9.68847 138.513C6.43387 160.12 16.4897 165.454 25.3356 162.505C26.3996 162.149 27.3801 161.71 28.2981 161.208C28.6319 164.806 29.3412 168.466 30.4678 172.022C29.5499 174.951 28.3189 182.272 30.3009 198.357C33.1174 221.178 40.482 229.001 45.0509 230.088C49.599 231.176 60.8858 233.352 65.4339 225.738C69.3978 219.107 73.0488 202.206 73.9042 198.001C75.1351 197.771 76.366 197.479 77.5969 197.165C76.3868 202.227 72.9445 217.726 74.7595 224.211C76.9293 232.034 79.099 234.209 84.2938 234C89.4887 233.791 100.546 233.121 105.532 222.705C110.518 212.267 116.151 194.676 115.066 184.238C114.336 177.189 111.854 172.001 110.31 169.366C110.769 167.692 111.103 165.977 111.374 164.22C111.895 160.832 112.292 157.38 112.104 153.95C112.229 153.95 112.333 153.929 112.459 153.908C115.046 153.552 132.508 152.778 125.331 131.568L125.289 131.547ZM41.233 106.342C42.0049 100.987 45.4682 95.8625 48.8271 91.7419C50.4335 89.7756 52.2486 87.9767 54.2723 86.4916C54.919 86.3661 55.5658 86.1569 56.1082 85.7595C56.4003 85.5294 56.7132 85.1948 56.9218 84.8182C58.8412 83.8142 60.9484 83.1239 63.2015 82.8939C63.7231 82.852 64.203 82.5801 64.495 82.2873C73.8416 81.5761 84.1269 83.9188 91.3037 90.0057C100.024 97.4104 95.8518 109.605 89.0297 116.78C84.6276 121.403 79.0573 124.436 73.0696 125.67L67.7288 126.255C65.7051 126.297 63.6814 126.151 61.6368 125.795C52.1651 124.122 39.5431 117.972 41.233 106.321V106.342ZM85.9003 194.174C89.4887 192.542 92.8684 190.555 95.8936 188.254C92.8059 190.701 89.4469 192.856 85.9003 194.174ZM107.806 163.823C107.305 167.295 106.721 170.725 105.115 173.884C103.321 177.44 100.525 180.64 97.7086 183.443C90.2397 190.869 80.6011 195.575 70.0654 196.391C60.3851 197.144 50.7256 194.801 43.7366 187.752C38.7086 182.69 35.5583 176.101 33.6598 169.282C32.7001 165.873 31.9699 162.275 31.7404 158.719C36.2259 154.682 38.5209 148.888 39.1676 144.453C40.0438 138.241 50.3918 130.836 62.4922 131.422C74.5926 132.008 79.6206 133.493 79.6206 133.493C79.6206 133.493 76.658 140.897 85.2327 146.231C92.931 151.021 97.3957 154.933 108.411 154.305C108.641 157.485 108.265 160.706 107.806 163.844V163.823Z" fill="#333333"/>
<path d="M27.5 5C28.5 10 23.5 188.5 17 197" stroke="#8E8E8E" stroke-width="2" stroke-dasharray="4 4"/>
<path d="M126 1C127 6 123.5 188.5 117 197" stroke="#8E8E8E" stroke-width="2" stroke-dasharray="4 4"/>
</svg>
