<svg width="132" height="459" viewBox="0 0 132 459" fill="none" xmlns="http://www.w3.org/2000/svg">
<path opacity="0.9" d="M22.1981 400L120.144 400C120.144 400 118.731 404.709 121.321 405.415C123.911 406.121 119.908 407.534 120.85 408.476C121.792 409.417 124.382 410.83 124.382 410.83C124.382 410.83 122.72 411.536 123.433 412.949C124.147 414.362 122.027 411.772 124.147 414.362C126.266 416.952 125.531 420.484 125.531 420.484C125.531 420.484 123.866 421.19 125.654 422.838C127.443 424.486 127.443 427.782 127.443 427.782C127.443 427.782 135.684 436.73 127.443 436.73C119.203 436.73 11.6033 436.73 4.06911 436.73C-3.46536 436.73 1.24365 435.081 4.06911 431.55C6.89458 428.018 -3.22995 426.841 2.42068 424.486C8.07132 422.132 11.3676 426.135 8.07132 422.132C4.77533 418.129 3.59801 419.306 4.77533 418.129C5.95237 416.952 6.34801 416.952 6.9744 416.246C7.6008 415.539 8.30702 412.243 8.30702 412.243C8.30702 412.243 10.426 411.301 11.8387 411.066C13.2514 410.83 13.2514 408.947 13.2514 408.947C13.2514 408.947 13.2514 404.944 15.6058 403.296C17.9599 401.648 15.3701 400 22.1981 400Z" fill="#BD9E82"/>
<path opacity="0.1" d="M4.06862 431.55C6.89409 428.018 -3.23015 426.841 2.42049 424.487C8.07112 422.132 11.3674 426.135 8.07112 422.132C4.77484 418.129 3.59752 419.307 4.77484 418.129C5.95217 416.952 6.34781 416.952 6.97421 416.246C7.60031 415.54 8.30653 412.243 8.30653 412.243C8.30653 412.243 10.4255 411.302 11.8382 411.066C13.2509 410.83 13.2509 408.947 13.2509 408.947C13.2509 408.947 13.2509 404.944 15.6053 403.297C17.96 401.648 15.3699 400 22.1981 400L41.4179 400C74.348 423.641 109.047 432.742 130.009 436.219C129.432 436.532 128.621 436.73 127.443 436.73C119.202 436.73 11.6031 436.73 4.06862 436.73C-3.46585 436.73 1.24316 435.082 4.06862 431.55Z" fill="white"/>
<path d="M45 318.5L54 309.5L55 308.5L60 306.5L63.5 305.5H68H74L79.5 307L88 310L93.5 313.5L97.5 320.5V326.5L96.5 332.5V347L110 368V388L108 401L100.5 408.5L95.5 417.5L83.5 419L75 420.5L63 424.5L49 421.5L34 402L30.5 382L35 371.5L40 338L41 327L45 318.5Z" fill="white"/>
<path d="M62.2001 323.314C62.2001 323.314 62.1793 323.502 62.1584 323.607C62.2627 323.837 62.4505 323.962 62.7008 324.004C62.8677 324.025 63.0555 324.046 63.2224 324.088C63.3476 324.088 63.4519 324.067 63.5771 324.067C63.6397 324.067 63.7023 324.088 63.7648 324.109C64.0569 324.172 64.3281 324.192 64.6202 324.172C64.9749 324.172 65.3504 324.151 65.7051 324.067C66.1223 324.004 66.5187 323.9 66.9151 323.753C67.2907 323.649 67.6662 323.502 68 323.335L68.5633 323.021C68.8345 322.854 69.064 322.645 69.2309 322.373C69.2309 322.268 69.2518 322.184 69.2726 322.08C69.1683 321.85 68.9805 321.724 68.7302 321.682C68.6467 321.641 68.5424 321.62 68.459 321.599C68.2086 321.536 67.9374 321.515 67.6662 321.473C67.3532 321.452 67.0612 321.473 66.7482 321.473C66.4144 321.473 66.0598 321.536 65.7259 321.599C65.3087 321.661 64.9123 321.766 64.5159 321.912C64.1404 322.017 63.7648 322.163 63.431 322.331C63.139 322.456 62.8886 322.624 62.6591 322.812C62.4713 322.937 62.3253 323.084 62.2001 323.293V323.314ZM64.5368 323.983C64.3907 323.983 64.2655 324.025 64.1195 324.046C63.9943 324.046 63.8692 324.046 63.744 324.046C64.0152 324.046 64.2656 324.046 64.5368 323.983ZM54.0636 318.963C57.2974 315.533 60.1139 316.244 61.2822 316.286C62.7008 316.348 63.5771 318.001 62.3879 318.064C61.1987 318.126 60.1764 319.172 59.5088 320.051C58.6743 321.139 58.8621 324.276 55.6909 325.468C52.2486 326.765 50.8508 322.394 54.0845 318.942L54.0636 318.963ZM70.7122 316.369C71.8179 316.328 75.1142 315.365 78.1602 318.482C81.2061 321.599 79.2659 325.887 76.053 324.715C73.0696 323.628 73.4452 320.511 72.6733 319.528C72.0474 318.733 71.1711 318.022 70.0654 317.959C68.9597 317.896 69.4187 316.411 70.733 316.369H70.7122ZM70.9834 328.857C71.0668 329.108 70.8373 329.338 70.6704 329.484C70.4201 329.736 69.982 329.903 69.669 329.987C69.2935 330.091 68.918 330.112 68.5424 330.07C68.3338 330.049 68.146 330.028 67.9374 330.007C67.9165 330.007 67.8957 330.007 67.8748 330.007C67.7705 330.007 67.687 330.007 67.5827 329.987C67.1863 329.966 66.8108 329.945 66.4144 329.924C66.018 329.924 65.6008 329.924 65.2044 329.924C65.0166 329.924 64.808 329.924 64.6202 329.924C64.5159 329.924 64.4325 329.924 64.3281 329.924C64.2238 329.924 63.9109 329.945 64.3281 329.924C63.9109 329.945 62.9303 329.987 63.0346 329.317C63.0764 329.066 63.431 328.815 63.6188 328.69C63.9317 328.501 64.3907 328.334 64.7663 328.313C66.6648 328.188 68.5424 328.229 70.4201 328.46C70.6496 328.48 70.9208 328.627 71.0042 328.857H70.9834ZM125.289 355.547C124.622 353.602 123.558 351.824 122.16 350.318C118.613 346.49 110.769 339.211 100.901 337.036C98.4805 336.492 97.7086 334.421 97.5208 332.559C99.8575 327.539 100.525 321.996 97.7086 317.018C96.3317 314.591 94.2454 312.646 91.867 311.035C92.9728 310.973 94.0576 310.743 95.1008 310.366C97.3957 309.509 99.9201 307.689 99.5445 304.907C99.2316 302.627 97.0827 301.079 94.9756 300.661C93.39 300.326 91.7419 300.41 90.1563 300.661C88.3412 300.953 86.1298 301.56 84.8571 303.024C84.1269 303.861 83.7097 304.928 83.8557 306.036C83.9183 306.517 84.1269 306.915 84.3981 307.291C83.6054 306.998 82.8334 306.727 82.0615 306.476C75.5732 304.384 68.7093 303.924 61.9915 304.928C61.3656 305.032 60.8232 305.409 60.5728 305.785C59.9678 305.932 59.3837 306.12 58.7995 306.308C59.3211 305.409 59.6966 304.426 59.8218 303.359C59.947 302.292 59.8218 301.1 59.4045 300.117C59.0498 299.322 58.6535 298.694 57.9233 298.192C57.3182 297.774 56.6089 297.481 55.8996 297.314C52.4989 296.456 48.8688 297.418 46.3861 299.908C45.3639 300.932 44.7171 302.187 44.3416 303.568C44.0286 304.677 43.9035 306.099 44.3416 307.187C44.738 308.128 45.489 308.672 46.3444 309.132C47.0955 309.529 47.8674 309.885 48.681 310.136C49.4947 310.366 50.3083 310.533 51.1428 310.617C46.3027 314.445 42.5265 319.863 40.0021 325.28C38.3122 328.962 37.7698 332.706 38.6878 336.324C33.7224 337.475 12.5467 343.457 9.68847 362.513C6.43387 384.12 16.4897 389.454 25.3356 386.505C26.3996 386.149 27.3801 385.71 28.2981 385.208C28.6319 388.806 29.3412 392.466 30.4678 396.022C29.5499 398.951 28.3189 406.272 30.3009 422.357C33.1174 445.178 40.482 453.001 45.0509 454.089C49.599 455.176 60.8858 457.352 65.4339 449.738C69.3978 443.107 73.0488 426.206 73.9042 422.001C75.1351 421.771 76.366 421.479 77.5969 421.165C76.3868 426.227 72.9445 441.726 74.7595 448.211C76.9293 456.034 79.099 458.209 84.2938 458C89.4887 457.791 100.546 457.122 105.532 446.705C110.518 436.267 116.151 418.676 115.066 408.238C114.336 401.189 111.854 396.001 110.31 393.366C110.769 391.692 111.103 389.977 111.374 388.22C111.895 384.832 112.292 381.38 112.104 377.95C112.229 377.95 112.333 377.929 112.459 377.908C115.046 377.552 132.508 376.778 125.331 355.568L125.289 355.547ZM41.233 330.342C42.0049 324.987 45.4682 319.863 48.8271 315.742C50.4335 313.776 52.2486 311.977 54.2723 310.492C54.919 310.366 55.5658 310.157 56.1082 309.76C56.4003 309.529 56.7132 309.195 56.9218 308.818C58.8412 307.814 60.9484 307.124 63.2015 306.894C63.7231 306.852 64.203 306.58 64.495 306.287C73.8416 305.576 84.1269 307.919 91.3037 314.006C100.024 321.41 95.8518 333.605 89.0297 340.78C84.6276 345.403 79.0573 348.436 73.0696 349.67L67.7288 350.255C65.7051 350.297 63.6814 350.151 61.6368 349.795C52.1651 348.122 39.5431 341.972 41.233 330.321V330.342ZM85.9003 418.174C89.4887 416.542 92.8684 414.555 95.8936 412.254C92.8059 414.701 89.4469 416.856 85.9003 418.174ZM107.806 387.823C107.305 391.295 106.721 394.725 105.115 397.884C103.321 401.44 100.525 404.64 97.7086 407.443C90.2397 414.869 80.6011 419.575 70.0654 420.391C60.3851 421.144 50.7256 418.801 43.7366 411.752C38.7086 406.69 35.5583 400.101 33.6598 393.282C32.7001 389.873 31.9699 386.275 31.7404 382.719C36.2259 378.682 38.5209 372.888 39.1676 368.453C40.0438 362.241 50.3918 354.836 62.4922 355.422C74.5926 356.008 79.6206 357.493 79.6206 357.493C79.6206 357.493 76.658 364.897 85.2327 370.231C92.931 375.021 97.3957 378.933 108.411 378.305C108.641 381.485 108.265 384.706 107.806 387.844V387.823Z" fill="#333333"/>
<path d="M27.5 229C28.5 234 23.5 412.5 17 421" stroke="#8E8E8E" stroke-width="2" stroke-dasharray="4 4"/>
<path d="M126 225C127 230 123.5 412.5 117 421" stroke="#8E8E8E" stroke-width="2" stroke-dasharray="4 4"/>
</svg>
